Istok-BoldItalic.ufo
<glyph name="exclam" format="2">
  <advance width="668"/>
  <unicode hex="0021"/>
  <outline>
    <contour>
      <point x="378.0" y="1359.0" type="line" smooth="yes"/>
      <point x="393.0" y="1434.0"/>
      <point x="465.0" y="1434.0" type="qcurve" smooth="yes"/>
      <point x="625.0" y="1434.0" type="line" smooth="yes"/>
      <point x="697.0" y="1434.0"/>
      <point x="678.0" y="1359.0" type="qcurve" smooth="yes"/>
      <point x="449.0" y="485.0" type="line" smooth="yes"/>
      <point x="432.0" y="420.0"/>
      <point x="369.0" y="420.0" type="qcurve" smooth="yes"/>
      <point x="253.0" y="420.0" type="line" smooth="yes"/>
      <point x="190.0" y="420.0"/>
      <point x="203.0" y="485.0" type="qcurve" smooth="yes"/>
    </contour>
    <contour>
      <point x="138.0" y="0.0" type="line" smooth="yes"/>
      <point x="68.0" y="0.0"/>
      <point x="85.0" y="75.0" type="qcurve" smooth="yes"/>
      <point x="116.0" y="209.0" type="line" smooth="yes"/>
      <point x="133.0" y="284.0"/>
      <point x="204.0" y="284.0" type="qcurve" smooth="yes"/>
      <point x="356.0" y="284.0" type="line" smooth="yes"/>
      <point x="426.0" y="284.0"/>
      <point x="408.0" y="209.0" type="qcurve" smooth="yes"/>
      <point x="377.0" y="75.0" type="line" smooth="yes"/>
      <point x="360.0" y="0.0"/>
      <point x="290.0" y="0.0" type="qcurve" smooth="yes"/>
    </contour>
  </outline>
</glyph>
<glyph name="dollar" format="2">
  <advance width="1200"/>
  <unicode hex="0024"/>
  <outline>
    <contour>
      <point x="57.0" y="102.0" type="qcurve" smooth="yes"/>
      <point x="-1.0" y="154.0"/>
      <point x="32.0" y="200.0" type="qcurve" smooth="yes"/>
      <point x="102.0" y="298.0" type="line" smooth="yes"/>
      <point x="136.0" y="346.0"/>
      <point x="206.0" y="288.0" type="qcurve" smooth="yes"/>
      <point x="260.0" y="243.0"/>
      <point x="409.0" y="195.0"/>
      <point x="452.0" y="188.0" type="qcurve"/>
      <point x="552.0" y="618.0" type="line"/>
      <point x="492.0" y="646.0"/>
      <point x="470.0" y="660.0" type="qcurve" smooth="yes"/>
      <point x="401.0" y="704.0"/>
      <point x="312.0" y="810.0"/>
      <point x="264.0" y="928.0"/>
      <point x="264.0" y="1037.0" type="qcurve" smooth="yes"/>
      <point x="264.0" y="1146.0"/>
      <point x="402.0" y="1370.0"/>
      <point x="651.0" y="1455.0"/>
      <point x="746.0" y="1455.0" type="qcurve"/>
      <point x="769.0" y="1556.0" type="line" smooth="yes"/>
      <point x="783.0" y="1616.0"/>
      <point x="833.0" y="1616.0" type="qcurve" smooth="yes"/>
      <point x="913.0" y="1616.0" type="line" smooth="yes"/>
      <point x="963.0" y="1616.0"/>
      <point x="949.0" y="1556.0" type="qcurve" smooth="yes"/>
      <point x="924.0" y="1450.0" type="line"/>
      <point x="1010.0" y="1436.0"/>
      <point x="1102.0" y="1386.0"/>
      <point x="1147.0" y="1347.0" type="qcurve" smooth="yes"/>
      <point x="1206.0" y="1296.0"/>
      <point x="1174.0" y="1257.0" type="qcurve" smooth="yes"/>
      <point x="1088.0" y="1151.0" type="line" smooth="yes"/>
      <point x="1041.0" y="1094.0"/>
      <point x="1002.0" y="1143.0" type="qcurve" smooth="yes"/>
      <point x="982.0" y="1168.0"/>
      <point x="912.0" y="1214.0"/>
      <point x="872.0" y="1224.0" type="qcurve"/>
      <point x="775.0" y="806.0" type="line"/>
      <point x="808.0" y="787.0"/>
      <point x="842.0" y="772.0" type="qcurve" smooth="yes"/>
      <point x="916.0" y="738.0"/>
      <point x="1028.0" y="624.0"/>
      <point x="1073.0" y="470.0"/>
      <point x="1073.0" y="406.0" type="qcurve" smooth="yes"/>
      <point x="1073.0" y="273.0"/>
      <point x="908.0" y="50.0"/>
      <point x="681.0" y="-32.0"/>
      <point x="582.0" y="-32.0" type="qcurve"/>
      <point x="555.0" y="-150.0" type="line" smooth="yes"/>
      <point x="541.0" y="-210.0"/>
      <point x="492.0" y="-210.0" type="qcurve" smooth="yes"/>
      <point x="412.0" y="-210.0" type="line" smooth="yes"/>
      <point x="361.0" y="-210.0"/>
      <point x="375.0" y="-150.0" type="qcurve" smooth="yes"/>
      <point x="403.0" y="-27.0" type="line"/>
      <point x="327.0" y="-18.0"/>
      <point x="122.0" y="42.0"/>
    </contour>
    <contour>
      <point x="520.0" y="1039.0" type="qcurve" smooth="yes"/>
      <point x="520.0" y="1009.0"/>
      <point x="540.0" y="938.0"/>
      <point x="588.0" y="901.0" type="qcurve" smooth="yes"/>
      <point x="604.0" y="889.0"/>
      <point x="614.0" y="883.0" type="qcurve"/>
      <point x="694.0" y="1233.0" type="line"/>
      <point x="612.0" y="1224.0"/>
      <point x="520.0" y="1102.0"/>
    </contour>
    <contour>
      <point x="634.0" y="196.0" type="line"/>
      <point x="695.0" y="210.0"/>
      <point x="813.0" y="318.0"/>
      <point x="813.0" y="402.0" type="qcurve" smooth="yes"/>
      <point x="813.0" y="437.0"/>
      <point x="786.0" y="509.0"/>
      <point x="746.0" y="534.0" type="qcurve" smooth="yes"/>
      <point x="737.0" y="540.0"/>
      <point x="717.0" y="550.0" type="qcurve"/>
    </contour>
  </outline>
</glyph>
<glyph name="plus" format="2">
  <advance width="1280"/>
  <unicode hex="002B"/>
  <outline>
    <contour>
      <point x="182.0" y="632.0" type="line" smooth="yes"/>
      <point x="122.0" y="632.0"/>
      <point x="122.0" y="682.0" type="qcurve" smooth="yes"/>
      <point x="122.0" y="768.0" type="line" smooth="yes"/>
      <point x="122.0" y="818.0"/>
      <point x="182.0" y="818.0" type="qcurve" smooth="yes"/>
      <point x="594.0" y="818.0" type="line"/>
      <point x="594.0" y="1230.0" type="line" smooth="yes"/>
      <point x="594.0" y="1290.0"/>
      <point x="644.0" y="1290.0" type="qcurve" smooth="yes"/>
      <point x="730.0" y="1290.0" type="line" smooth="yes"/>
      <point x="780.0" y="1290.0"/>
      <point x="780.0" y="1230.0" type="qcurve" smooth="yes"/>
      <point x="780.0" y="818.0" type="line"/>
      <point x="1192.0" y="818.0" type="line" smooth="yes"/>
      <point x="1252.0" y="818.0"/>
      <point x="1252.0" y="768.0" type="qcurve" smooth="yes"/>
      <point x="1252.0" y="682.0" type="line" smooth="yes"/>
      <point x="1252.0" y="632.0"/>
      <point x="1192.0" y="632.0" type="qcurve" smooth="yes"/>
      <point x="780.0" y="632.0" type="line"/>
      <point x="780.0" y="220.0" type="line" smooth="yes"/>
      <point x="780.0" y="160.0"/>
      <point x="730.0" y="160.0" type="qcurve" smooth="yes"/>
      <point x="644.0" y="160.0" type="line" smooth="yes"/>
      <point x="594.0" y="160.0"/>
      <point x="594.0" y="220.0" type="qcurve" smooth="yes"/>
      <point x="594.0" y="632.0" type="line"/>
    </contour>
  </outline>
</glyph>
<glyph name="six" format="2">
  <advance width="1200"/>
  <unicode hex="0036"/>
  <outline>
    <contour>
      <point x="112.0" y="491.0" type="qcurve" smooth="yes"/>
      <point x="112.0" y="909.0"/>
      <point x="510.0" y="1456.0"/>
      <point x="827.0" y="1456.0" type="qcurve" smooth="yes"/>
      <point x="947.0" y="1456.0"/>
      <point x="1116.0" y="1413.0"/>
      <point x="1184.0" y="1356.0" type="qcurve" smooth="yes"/>
      <point x="1236.0" y="1312.0"/>
      <point x="1205.0" y="1272.0" type="qcurve" smooth="yes"/>
      <point x="1128.0" y="1173.0" type="line" smooth="yes"/>
      <point x="1097.0" y="1133.0"/>
      <point x="1035.0" y="1173.0" type="qcurve" smooth="yes"/>
      <point x="981.0" y="1208.0"/>
      <point x="878.0" y="1232.0"/>
      <point x="818.0" y="1232.0" type="qcurve" smooth="yes"/>
      <point x="693.0" y="1232.0"/>
      <point x="468.0" y="1020.0"/>
      <point x="417.0" y="797.0" type="qcurve"/>
      <point x="421.0" y="797.0" type="line"/>
      <point x="484.0" y="872.0"/>
      <point x="660.0" y="926.0"/>
      <point x="741.0" y="926.0" type="qcurve" smooth="yes"/>
      <point x="933.0" y="926.0"/>
      <point x="1116.0" y="711.0"/>
      <point x="1116.0" y="525.0" type="qcurve" smooth="yes"/>
      <point x="1116.0" y="291.0"/>
      <point x="783.0" y="-34.0"/>
      <point x="529.0" y="-34.0" type="qcurve" smooth="yes"/>
      <point x="309.0" y="-34.0"/>
      <point x="112.0" y="219.0"/>
    </contour>
    <contour>
      <point x="398.0" y="383.0" type="qcurve" smooth="yes"/>
      <point x="398.0" y="279.0"/>
      <point x="495.0" y="190.0"/>
      <point x="566.0" y="190.0" type="qcurve" smooth="yes"/>
      <point x="668.0" y="190.0"/>
      <point x="816.0" y="402.0"/>
      <point x="816.0" y="550.0" type="qcurve" smooth="yes"/>
      <point x="816.0" y="630.0"/>
      <point x="720.0" y="702.0"/>
      <point x="660.0" y="702.0" type="qcurve" smooth="yes"/>
      <point x="537.0" y="702.0"/>
      <point x="398.0" y="498.0"/>
    </contour>
  </outline>
</glyph>
<glyph name="seven" format="2">
  <advance width="1112"/>
  <unicode hex="0037"/>
  <outline>
    <contour>
      <point x="299.0" y="1174.0" type="line" smooth="yes"/>
      <point x="234.0" y="1174.0"/>
      <point x="249.0" y="1239.0" type="qcurve" smooth="yes"/>
      <point x="276.0" y="1357.0" type="line" smooth="yes"/>
      <point x="291.0" y="1422.0"/>
      <point x="356.0" y="1422.0" type="qcurve" smooth="yes"/>
      <point x="1172.0" y="1422.0" type="line" smooth="yes"/>
      <point x="1237.0" y="1422.0"/>
      <point x="1222.0" y="1357.0" type="qcurve" smooth="yes"/>
      <point x="1196.0" y="1244.0" type="line" smooth="yes"/>
      <point x="1184.0" y="1191.0"/>
      <point x="1121.0" y="1137.0" type="qcurve" smooth="yes"/>
      <point x="869.0" y="921.0"/>
      <point x="597.0" y="469.0"/>
      <point x="518.0" y="121.0" type="qcurve" smooth="yes"/>
      <point x="504.0" y="59.0" type="line" smooth="yes"/>
      <point x="489.0" y="-6.0"/>
      <point x="424.0" y="-6.0" type="qcurve" smooth="yes"/>
      <point x="274.0" y="-6.0" type="line" smooth="yes"/>
      <point x="210.0" y="-6.0"/>
      <point x="224.0" y="59.0" type="qcurve" smooth="yes"/>
      <point x="230.0" y="86.0" type="line" smooth="yes"/>
      <point x="319.0" y="489.0"/>
      <point x="684.0" y="987.0"/>
      <point x="897.0" y="1174.0" type="qcurve"/>
      <point x="898.0" y="1178.0" type="line"/>
      <point x="857.0" y="1174.0"/>
      <point x="817.0" y="1174.0" type="qcurve" smooth="yes"/>
    </contour>
  </outline>
</glyph>
<glyph name="less" format="2">
  <advance width="1327"/>
  <unicode hex="003C"/>
  <outline>
    <contour>
      <point x="175.0" y="634.0" type="line" smooth="yes"/>
      <point x="135.0" y="655.0"/>
      <point x="135.0" y="689.0" type="qcurve" smooth="yes"/>
      <point x="135.0" y="781.0" type="line" smooth="yes"/>
      <point x="135.0" y="815.0"/>
      <point x="175.0" y="836.0" type="qcurve" smooth="yes"/>
      <point x="1116.0" y="1337.0" type="line" smooth="yes"/>
      <point x="1169.0" y="1365.0"/>
      <point x="1193.0" y="1321.0" type="qcurve" smooth="yes"/>
      <point x="1230.0" y="1250.0" type="line" smooth="yes"/>
      <point x="1253.0" y="1206.0"/>
      <point x="1201.0" y="1178.0" type="qcurve" smooth="yes"/>
      <point x="367.0" y="736.0" type="line"/>
      <point x="367.0" y="734.0" type="line"/>
      <point x="1201.0" y="292.0" type="line" smooth="yes"/>
      <point x="1253.0" y="264.0"/>
      <point x="1230.0" y="220.0" type="qcurve" smooth="yes"/>
      <point x="1193.0" y="149.0" type="line" smooth="yes"/>
      <point x="1169.0" y="105.0"/>
      <point x="1116.0" y="133.0" type="qcurve" smooth="yes"/>
    </contour>
  </outline>
</glyph>
<glyph name="A" format="2">
  <advance width="1394"/>
  <unicode hex="0041"/>
  <outline>
    <contour>
      <point x="-30.0" y="0.0" type="line" smooth="yes"/>
      <point x="-102.0" y="0.0"/>
      <point x="-63.0" y="66.0" type="qcurve" smooth="yes"/>
      <point x="701.0" y="1353.0" type="line" smooth="yes"/>
      <point x="749.0" y="1434.0"/>
      <point x="812.0" y="1434.0" type="qcurve" smooth="yes"/>
      <point x="952.0" y="1434.0" type="line" smooth="yes"/>
      <point x="1015.0" y="1434.0"/>
      <point x="1029.0" y="1353.0" type="qcurve" smooth="yes"/>
      <point x="1245.0" y="66.0" type="line" smooth="yes"/>
      <point x="1256.0" y="0.0"/>
      <point x="1184.0" y="0.0" type="qcurve" smooth="yes"/>
      <point x="1045.0" y="0.0" type="line" smooth="yes"/>
      <point x="979.0" y="0.0"/>
      <point x="968.0" y="69.0" type="qcurve" smooth="yes"/>
      <point x="923.0" y="338.0" type="line"/>
      <point x="415.0" y="338.0" type="line"/>
      <point x="256.0" y="69.0" type="line" smooth="yes"/>
      <point x="215.0" y="0.0"/>
      <point x="149.0" y="0.0" type="qcurve" smooth="yes"/>
    </contour>
    <contour>
      <point x="561.0" y="586.0" type="line"/>
      <point x="883.0" y="586.0" type="line"/>
      <point x="827.0" y="904.0" type="line" smooth="yes"/>
      <point x="819.0" y="951.0"/>
      <point x="819.0" y="1012.0"/>
      <point x="825.0" y="1061.0" type="qcurve"/>
      <point x="821.0" y="1061.0" type="line"/>
      <point x="805.0" y="1012.0"/>
      <point x="786.0" y="962.0"/>
      <point x="751.0" y="904.0" type="qcurve" smooth="yes"/>
    </contour>
  </outline>
</glyph>
<glyph name="B" format="2">
  <advance width="1379"/>
  <unicode hex="0042"/>
  <outline>
    <contour>
      <point x="120.0" y="0.0" type="line" smooth="yes"/>
      <point x="40.0" y="0.0"/>
      <point x="57.0" y="75.0" type="qcurve" smooth="yes"/>
      <point x="354.0" y="1359.0" type="line" smooth="yes"/>
      <point x="371.0" y="1434.0"/>
      <point x="451.0" y="1434.0" type="qcurve" smooth="yes"/>
      <point x="771.0" y="1434.0" type="line" smooth="yes"/>
      <point x="1068.0" y="1434.0"/>
      <point x="1318.0" y="1236.0"/>
      <point x="1318.0" y="1076.0" type="qcurve" smooth="yes"/>
      <point x="1318.0" y="920.0"/>
      <point x="1068.0" y="760.0"/>
      <point x="948.0" y="750.0" type="qcurve"/>
      <point x="948.0" y="747.0" type="line"/>
      <point x="1064.0" y="736.0"/>
      <point x="1252.0" y="580.0"/>
      <point x="1252.0" y="423.0" type="qcurve" smooth="yes"/>
      <point x="1252.0" y="244.0"/>
      <point x="884.0" y="0.0"/>
      <point x="530.0" y="0.0" type="qcurve" smooth="yes"/>
    </contour>
    <contour>
      <point x="388.0" y="244.0" type="line"/>
      <point x="554.0" y="244.0" type="line" smooth="yes"/>
      <point x="784.0" y="244.0"/>
      <point x="940.0" y="336.0"/>
      <point x="940.0" y="452.0" type="qcurve" smooth="yes"/>
      <point x="940.0" y="544.0"/>
      <point x="789.0" y="618.0"/>
      <point x="601.0" y="618.0" type="qcurve" smooth="yes"/>
      <point x="475.0" y="618.0" type="line"/>
    </contour>
    <contour>
      <point x="529.0" y="854.0" type="line"/>
      <point x="680.0" y="854.0" type="line" smooth="yes"/>
      <point x="840.0" y="854.0"/>
      <point x="1022.0" y="972.0"/>
      <point x="1022.0" y="1056.0" type="qcurve" smooth="yes"/>
      <point x="1022.0" y="1132.0"/>
      <point x="892.0" y="1190.0"/>
      <point x="718.0" y="1190.0" type="qcurve" smooth="yes"/>
      <point x="607.0" y="1190.0" type="line"/>
    </contour>
  </outline>
</glyph>
<glyph name="C" format="2">
  <advance width="1404"/>
  <unicode hex="0043"/>
  <outline>
    <contour>
      <point x="100.0" y="588.0" type="qcurve" smooth="yes"/>
      <point x="100.0" y="936.0"/>
      <point x="504.0" y="1468.0"/>
      <point x="892.0" y="1468.0" type="qcurve" smooth="yes"/>
      <point x="1072.0" y="1468.0"/>
      <point x="1324.0" y="1343.0"/>
      <point x="1380.0" y="1251.0" type="qcurve" smooth="yes"/>
      <point x="1420.0" y="1185.0"/>
      <point x="1363.0" y="1147.0" type="qcurve" smooth="yes"/>
      <point x="1239.0" y="1064.0" type="line" smooth="yes"/>
      <point x="1193.0" y="1033.0"/>
      <point x="1143.0" y="1100.0" type="qcurve" smooth="yes"/>
      <point x="1093.0" y="1166.0"/>
      <point x="943.0" y="1232.0"/>
      <point x="871.0" y="1232.0" type="qcurve" smooth="yes"/>
      <point x="660.0" y="1232.0"/>
      <point x="412.0" y="848.0"/>
      <point x="412.0" y="550.0" type="qcurve" smooth="yes"/>
      <point x="412.0" y="399.0"/>
      <point x="568.0" y="202.0"/>
      <point x="757.0" y="202.0" type="qcurve" smooth="yes"/>
      <point x="865.0" y="202.0"/>
      <point x="1009.0" y="285.0"/>
      <point x="1050.0" y="342.0" type="qcurve" smooth="yes"/>
      <point x="1103.0" y="415.0"/>
      <point x="1150.0" y="389.0" type="qcurve" smooth="yes"/>
      <point x="1277.0" y="319.0" type="line" smooth="yes"/>
      <point x="1339.0" y="285.0"/>
      <point x="1295.0" y="221.0" type="qcurve" smooth="yes"/>
      <point x="1219.0" y="111.0"/>
      <point x="937.0" y="-34.0"/>
      <point x="736.0" y="-34.0" type="qcurve" smooth="yes"/>
      <point x="436.0" y="-34.0"/>
      <point x="100.0" y="273.0"/>
    </contour>
  </outline>
</glyph>
<glyph name="F" format="2">
  <advance width="1176"/>
  <unicode hex="0046"/>
  <outline>
    <contour>
      <point x="110.0" y="0.0" type="line" smooth="yes"/>
      <point x="40.0" y="0.0"/>
      <point x="57.0" y="75.0" type="qcurve" smooth="yes"/>
      <point x="354.0" y="1359.0" type="line" smooth="yes"/>
      <point x="371.0" y="1434.0"/>
      <point x="441.0" y="1434.0" type="qcurve" smooth="yes"/>
      <point x="1232.0" y="1434.0" type="line" smooth="yes"/>
      <point x="1307.0" y="1434.0"/>
      <point x="1292.0" y="1369.0" type="qcurve" smooth="yes"/>
      <point x="1265.0" y="1251.0" type="line" smooth="yes"/>
      <point x="1250.0" y="1186.0"/>
      <point x="1175.0" y="1186.0" type="qcurve" smooth="yes"/>
      <point x="606.0" y="1186.0" type="line"/>
      <point x="525.0" y="838.0" type="line"/>
      <point x="1012.0" y="838.0" type="line" smooth="yes"/>
      <point x="1087.0" y="838.0"/>
      <point x="1072.0" y="773.0" type="qcurve" smooth="yes"/>
      <point x="1045.0" y="655.0" type="line" smooth="yes"/>
      <point x="1030.0" y="590.0"/>
      <point x="955.0" y="590.0" type="qcurve" smooth="yes"/>
      <point x="468.0" y="590.0" type="line"/>
      <point x="349.0" y="75.0" type="line" smooth="yes"/>
      <point x="332.0" y="0.0"/>
      <point x="262.0" y="0.0" type="qcurve" smooth="yes"/>
    </contour>
  </outline>
</glyph>
<glyph name="M" format="2">
  <advance width="1828"/>
  <unicode hex="004D"/>
  <outline>
    <contour>
      <point x="110.0" y="0.0" type="line" smooth="yes"/>
      <point x="40.0" y="0.0"/>
      <point x="57.0" y="75.0" type="qcurve" smooth="yes"/>
      <point x="354.0" y="1359.0" type="line" smooth="yes"/>
      <point x="371.0" y="1434.0"/>
      <point x="441.0" y="1434.0" type="qcurve" smooth="yes"/>
      <point x="717.0" y="1434.0" type="line" smooth="yes"/>
      <point x="776.0" y="1434.0"/>
      <point x="782.0" y="1354.0" type="qcurve" smooth="yes"/>
      <point x="850.0" y="477.0" type="line" smooth="yes"/>
      <point x="855.0" y="415.0"/>
      <point x="852.0" y="347.0"/>
      <point x="846.0" y="297.0" type="qcurve"/>
      <point x="852.0" y="297.0" type="line"/>
      <point x="869.0" y="347.0"/>
      <point x="898.0" y="419.0"/>
      <point x="930.0" y="477.0" type="qcurve" smooth="yes"/>
      <point x="1404.0" y="1354.0" type="line" smooth="yes"/>
      <point x="1447.0" y="1434.0"/>
      <point x="1505.0" y="1434.0" type="qcurve" smooth="yes"/>
      <point x="1809.0" y="1434.0" type="line" smooth="yes"/>
      <point x="1879.0" y="1434.0"/>
      <point x="1862.0" y="1359.0" type="qcurve" smooth="yes"/>
      <point x="1565.0" y="75.0" type="line" smooth="yes"/>
      <point x="1548.0" y="0.0"/>
      <point x="1478.0" y="0.0" type="qcurve" smooth="yes"/>
      <point x="1326.0" y="0.0" type="line" smooth="yes"/>
      <point x="1256.0" y="0.0"/>
      <point x="1273.0" y="75.0" type="qcurve" smooth="yes"/>
      <point x="1464.0" y="901.0" type="line" smooth="yes"/>
      <point x="1478.0" y="960.0"/>
      <point x="1497.0" y="1021.0" type="qcurve"/>
      <point x="1490.0" y="1021.0" type="line"/>
      <point x="984.0" y="81.0" type="line" smooth="yes"/>
      <point x="940.0" y="0.0"/>
      <point x="879.0" y="0.0" type="qcurve" smooth="yes"/>
      <point x="709.0" y="0.0" type="line" smooth="yes"/>
      <point x="648.0" y="0.0"/>
      <point x="642.0" y="81.0" type="qcurve" smooth="yes"/>
      <point x="570.0" y="1021.0" type="line"/>
      <point x="563.0" y="1021.0" type="line"/>
      <point x="554.0" y="963.0"/>
      <point x="540.0" y="901.0" type="qcurve" smooth="yes"/>
      <point x="349.0" y="75.0" type="line" smooth="yes"/>
      <point x="332.0" y="0.0"/>
      <point x="262.0" y="0.0" type="qcurve" smooth="yes"/>
    </contour>
  </outline>
</glyph>
<glyph name="N" format="2">
  <advance width="1472"/>
  <unicode hex="004E"/>
  <outline>
    <contour>
      <point x="110.0" y="0.0" type="line" smooth="yes"/>
      <point x="40.0" y="0.0"/>
      <point x="57.0" y="75.0" type="qcurve" smooth="yes"/>
      <point x="354.0" y="1359.0" type="line" smooth="yes"/>
      <point x="371.0" y="1434.0"/>
      <point x="441.0" y="1434.0" type="qcurve" smooth="yes"/>
      <point x="576.0" y="1434.0" type="line" smooth="yes"/>
      <point x="662.0" y="1434.0"/>
      <point x="690.0" y="1364.0" type="qcurve" smooth="yes"/>
      <point x="1019.0" y="524.0" type="line"/>
      <point x="1026.0" y="524.0" type="line"/>
      <point x="1035.0" y="584.0"/>
      <point x="1049.0" y="644.0" type="qcurve" smooth="yes"/>
      <point x="1214.0" y="1359.0" type="line" smooth="yes"/>
      <point x="1231.0" y="1434.0"/>
      <point x="1301.0" y="1434.0" type="qcurve" smooth="yes"/>
      <point x="1453.0" y="1434.0" type="line" smooth="yes"/>
      <point x="1523.0" y="1434.0"/>
      <point x="1506.0" y="1359.0" type="qcurve" smooth="yes"/>
      <point x="1209.0" y="75.0" type="line" smooth="yes"/>
      <point x="1192.0" y="0.0"/>
      <point x="1122.0" y="0.0" type="qcurve" smooth="yes"/>
      <point x="997.0" y="0.0" type="line" smooth="yes"/>
      <point x="911.0" y="0.0"/>
      <point x="883.0" y="70.0" type="qcurve" smooth="yes"/>
      <point x="548.0" y="926.0" type="line"/>
      <point x="541.0" y="926.0" type="line"/>
      <point x="532.0" y="866.0"/>
      <point x="518.0" y="806.0" type="qcurve" smooth="yes"/>
      <point x="349.0" y="75.0" type="line" smooth="yes"/>
      <point x="332.0" y="0.0"/>
      <point x="262.0" y="0.0" type="qcurve" smooth="yes"/>
    </contour>
  </outline>
</glyph>
<glyph name="P" format="2">
  <advance width="1328"/>
  <unicode hex="0050"/>
  <outline>
    <contour>
      <point x="110.0" y="0.0" type="line" smooth="yes"/>
      <point x="40.0" y="0.0"/>
      <point x="57.0" y="75.0" type="qcurve" smooth="yes"/>
      <point x="354.0" y="1359.0" type="line" smooth="yes"/>
      <point x="371.0" y="1434.0"/>
      <point x="441.0" y="1434.0" type="qcurve" smooth="yes"/>
      <point x="795.0" y="1434.0" type="line" smooth="yes"/>
      <point x="1076.0" y="1434.0"/>
      <point x="1348.0" y="1248.0"/>
      <point x="1348.0" y="1047.0" type="qcurve" smooth="yes"/>
      <point x="1348.0" y="820.0"/>
      <point x="988.0" y="536.0"/>
      <point x="628.0" y="536.0" type="qcurve" smooth="yes"/>
      <point x="456.0" y="536.0" type="line"/>
      <point x="349.0" y="75.0" type="line" smooth="yes"/>
      <point x="332.0" y="0.0"/>
      <point x="262.0" y="0.0" type="qcurve" smooth="yes"/>
    </contour>
    <contour>
      <point x="512.0" y="780.0" type="line"/>
      <point x="683.0" y="780.0" type="line" smooth="yes"/>
      <point x="892.0" y="780.0"/>
      <point x="1052.0" y="912.0"/>
      <point x="1052.0" y="1011.0" type="qcurve" smooth="yes"/>
      <point x="1052.0" y="1113.0"/>
      <point x="916.0" y="1190.0"/>
      <point x="738.0" y="1190.0" type="qcurve" smooth="yes"/>
      <point x="607.0" y="1190.0" type="line"/>
    </contour>
  </outline>
</glyph>
<glyph name="R" format="2">
  <advance width="1428"/>
  <unicode hex="0052"/>
  <outline>
    <contour>
      <point x="110.0" y="0.0" type="line" smooth="yes"/>
      <point x="40.0" y="0.0"/>
      <point x="57.0" y="75.0" type="qcurve" smooth="yes"/>
      <point x="354.0" y="1359.0" type="line" smooth="yes"/>
      <point x="371.0" y="1434.0"/>
      <point x="441.0" y="1434.0" type="qcurve" smooth="yes"/>
      <point x="851.0" y="1434.0" type="line" smooth="yes"/>
      <point x="1152.0" y="1434.0"/>
      <point x="1407.0" y="1245.0"/>
      <point x="1407.0" y="1077.0" type="qcurve" smooth="yes"/>
      <point x="1407.0" y="917.0"/>
      <point x="1146.0" y="678.0"/>
      <point x="908.0" y="647.0" type="qcurve"/>
      <point x="908.0" y="645.0" type="line"/>
      <point x="987.0" y="612.0"/>
      <point x="1057.0" y="486.0"/>
      <point x="1078.0" y="433.0" type="qcurve" smooth="yes"/>
      <point x="1212.0" y="86.0" type="line" smooth="yes"/>
      <point x="1245.0" y="0.0"/>
      <point x="1154.0" y="0.0" type="qcurve" smooth="yes"/>
      <point x="1001.0" y="0.0" type="line" smooth="yes"/>
      <point x="946.0" y="0.0"/>
      <point x="925.0" y="59.0" type="qcurve" smooth="yes"/>
      <point x="806.0" y="396.0" type="line" smooth="yes"/>
      <point x="779.0" y="473.0"/>
      <point x="648.0" y="579.0"/>
      <point x="560.0" y="579.0" type="qcurve" smooth="yes"/>
      <point x="466.0" y="579.0" type="line"/>
      <point x="349.0" y="75.0" type="line" smooth="yes"/>
      <point x="332.0" y="0.0"/>
      <point x="262.0" y="0.0" type="qcurve" smooth="yes"/>
    </contour>
    <contour>
      <point x="523.0" y="827.0" type="line"/>
      <point x="732.0" y="827.0" type="line" smooth="yes"/>
      <point x="876.0" y="827.0"/>
      <point x="1121.0" y="939.0"/>
      <point x="1121.0" y="1049.0" type="qcurve" smooth="yes"/>
      <point x="1121.0" y="1137.0"/>
      <point x="948.0" y="1190.0"/>
      <point x="794.0" y="1190.0" type="qcurve" smooth="yes"/>
      <point x="607.0" y="1190.0" type="line"/>
    </contour>
  </outline>
</glyph>
<glyph name="T" format="2">
  <advance width="1246"/>
  <unicode hex="0054"/>
  <outline>
    <contour>
      <point x="261.0" y="1178.0" type="line" smooth="yes"/>
      <point x="186.0" y="1178.0"/>
      <point x="201.0" y="1243.0" type="qcurve" smooth="yes"/>
      <point x="230.0" y="1369.0" type="line" smooth="yes"/>
      <point x="245.0" y="1434.0"/>
      <point x="320.0" y="1434.0" type="qcurve" smooth="yes"/>
      <point x="1348.0" y="1434.0" type="line" smooth="yes"/>
      <point x="1423.0" y="1434.0"/>
      <point x="1408.0" y="1369.0" type="qcurve" smooth="yes"/>
      <point x="1379.0" y="1243.0" type="line" smooth="yes"/>
      <point x="1364.0" y="1178.0"/>
      <point x="1289.0" y="1178.0" type="qcurve" smooth="yes"/>
      <point x="921.0" y="1178.0" type="line"/>
      <point x="662.0" y="55.0" type="line" smooth="yes"/>
      <point x="649.0" y="0.0"/>
      <point x="599.0" y="0.0" type="qcurve" smooth="yes"/>
      <point x="407.0" y="0.0" type="line" smooth="yes"/>
      <point x="357.0" y="0.0"/>
      <point x="370.0" y="55.0" type="qcurve" smooth="yes"/>
      <point x="629.0" y="1178.0" type="line"/>
    </contour>
  </outline>
</glyph>
<glyph name="U" format="2">
  <advance width="1422"/>
  <unicode hex="0055"/>
  <outline>
    <contour>
      <point x="178.0" y="597.0" type="qcurve" smooth="yes"/>
      <point x="358.0" y="1379.0" type="line" smooth="yes"/>
      <point x="371.0" y="1434.0"/>
      <point x="441.0" y="1434.0" type="qcurve" smooth="yes"/>
      <point x="593.0" y="1434.0" type="line" smooth="yes"/>
      <point x="663.0" y="1434.0"/>
      <point x="650.0" y="1379.0" type="qcurve" smooth="yes"/>
      <point x="472.0" y="607.0" type="line" smooth="yes"/>
      <point x="410.0" y="339.0"/>
      <point x="520.0" y="202.0"/>
      <point x="637.0" y="202.0" type="qcurve" smooth="yes"/>
      <point x="738.0" y="202.0"/>
      <point x="935.0" y="367.0"/>
      <point x="990.0" y="607.0" type="qcurve" smooth="yes"/>
      <point x="1168.0" y="1379.0" type="line" smooth="yes"/>
      <point x="1181.0" y="1434.0"/>
      <point x="1251.0" y="1434.0" type="qcurve" smooth="yes"/>
      <point x="1403.0" y="1434.0" type="line" smooth="yes"/>
      <point x="1473.0" y="1434.0"/>
      <point x="1460.0" y="1379.0" type="qcurve" smooth="yes"/>
      <point x="1280.0" y="597.0" type="line" smooth="yes"/>
      <point x="1196.0" y="233.0"/>
      <point x="888.0" y="-34.0"/>
      <point x="607.0" y="-34.0" type="qcurve" smooth="yes"/>
      <point x="366.0" y="-34.0"/>
      <point x="101.0" y="263.0"/>
    </contour>
  </outline>
</glyph>
<glyph name="Y" format="2">
  <advance width="1368"/>
  <unicode hex="0059"/>
  <outline>
    <contour>
      <point x="242.0" y="1348.0" type="line" smooth="yes"/>
      <point x="211.0" y="1434.0"/>
      <point x="309.0" y="1434.0" type="qcurve" smooth="yes"/>
      <point x="454.0" y="1434.0" type="line" smooth="yes"/>
      <point x="506.0" y="1434.0"/>
      <point x="530.0" y="1365.0" type="qcurve" smooth="yes"/>
      <point x="657.0" y="994.0" type="line" smooth="yes"/>
      <point x="674.0" y="943.0"/>
      <point x="711.0" y="828.0"/>
      <point x="711.0" y="748.0" type="qcurve"/>
      <point x="715.0" y="748.0" type="line"/>
      <point x="734.0" y="819.0"/>
      <point x="823.0" y="936.0"/>
      <point x="869.0" y="994.0" type="qcurve" smooth="yes"/>
      <point x="1168.0" y="1365.0" type="line" smooth="yes"/>
      <point x="1224.0" y="1434.0"/>
      <point x="1276.0" y="1434.0" type="qcurve" smooth="yes"/>
      <point x="1481.0" y="1434.0" type="line" smooth="yes"/>
      <point x="1579.0" y="1434.0"/>
      <point x="1508.0" y="1348.0" type="qcurve" smooth="yes"/>
      <point x="831.0" y="525.0" type="line"/>
      <point x="723.0" y="55.0" type="line" smooth="yes"/>
      <point x="710.0" y="0.0"/>
      <point x="640.0" y="0.0" type="qcurve" smooth="yes"/>
      <point x="488.0" y="0.0" type="line" smooth="yes"/>
      <point x="418.0" y="0.0"/>
      <point x="431.0" y="55.0" type="qcurve" smooth="yes"/>
      <point x="539.0" y="525.0" type="line"/>
    </contour>
  </outline>
</glyph>
<glyph name="c" format="2">
  <advance width="1086"/>
  <unicode hex="0063"/>
  <outline>
    <contour>
      <point x="58.0" y="412.0" type="qcurve" smooth="yes"/>
      <point x="58.0" y="644.0"/>
      <point x="394.0" y="1070.0"/>
      <point x="673.0" y="1070.0" type="qcurve" smooth="yes"/>
      <point x="822.0" y="1070.0"/>
      <point x="978.0" y="980.0"/>
      <point x="1029.0" y="906.0" type="qcurve" smooth="yes"/>
      <point x="1058.0" y="864.0"/>
      <point x="1012.0" y="833.0" type="qcurve" smooth="yes"/>
      <point x="903.0" y="760.0" type="line" smooth="yes"/>
      <point x="864.0" y="734.0"/>
      <point x="826.0" y="790.0" type="qcurve" smooth="yes"/>
      <point x="805.0" y="821.0"/>
      <point x="733.0" y="874.0"/>
      <point x="663.0" y="874.0" type="qcurve" smooth="yes"/>
      <point x="550.0" y="874.0"/>
      <point x="354.0" y="622.0"/>
      <point x="354.0" y="387.0" type="qcurve" smooth="yes"/>
      <point x="354.0" y="282.0"/>
      <point x="452.0" y="176.0"/>
      <point x="536.0" y="176.0" type="qcurve" smooth="yes"/>
      <point x="614.0" y="176.0"/>
      <point x="713.0" y="242.0"/>
      <point x="760.0" y="301.0" type="qcurve" smooth="yes"/>
      <point x="797.0" y="347.0"/>
      <point x="841.0" y="306.0" type="qcurve" smooth="yes"/>
      <point x="922.0" y="231.0" type="line" smooth="yes"/>
      <point x="961.0" y="195.0"/>
      <point x="920.0" y="143.0" type="qcurve" smooth="yes"/>
      <point x="881.0" y="93.0"/>
      <point x="684.0" y="-20.0"/>
      <point x="518.0" y="-20.0" type="qcurve" smooth="yes"/>
      <point x="258.0" y="-20.0"/>
      <point x="58.0" y="237.0"/>
    </contour>
  </outline>
</glyph>
<glyph name="d" format="2">
  <advance width="1192"/>
  <unicode hex="0064"/>
  <outline>
    <contour>
      <point x="66.0" y="399.0" type="qcurve" smooth="yes"/>
      <point x="66.0" y="662.0"/>
      <point x="387.0" y="1070.0"/>
      <point x="599.0" y="1070.0" type="qcurve" smooth="yes"/>
      <point x="671.0" y="1070.0"/>
      <point x="827.0" y="1032.0"/>
      <point x="877.0" y="954.0" type="qcurve"/>
      <point x="881.0" y="954.0" type="line"/>
      <point x="885.0" y="985.0"/>
      <point x="896.0" y="1034.0" type="qcurve" smooth="yes"/>
      <point x="983.0" y="1416.0" type="line" smooth="yes"/>
      <point x="997.0" y="1476.0"/>
      <point x="1057.0" y="1476.0" type="qcurve" smooth="yes"/>
      <point x="1217.0" y="1476.0" type="line" smooth="yes"/>
      <point x="1277.0" y="1476.0"/>
      <point x="1263.0" y="1416.0" type="qcurve" smooth="yes"/>
      <point x="950.0" y="60.0" type="line" smooth="yes"/>
      <point x="936.0" y="0.0"/>
      <point x="876.0" y="0.0" type="qcurve" smooth="yes"/>
      <point x="718.0" y="0.0" type="line" smooth="yes"/>
      <point x="667.0" y="0.0"/>
      <point x="678.0" y="60.0" type="qcurve" smooth="yes"/>
      <point x="692.0" y="138.0" type="line"/>
      <point x="688.0" y="138.0" type="line"/>
      <point x="616.0" y="52.0"/>
      <point x="502.0" y="-20.0"/>
      <point x="429.0" y="-20.0" type="qcurve" smooth="yes"/>
      <point x="231.0" y="-20.0"/>
      <point x="66.0" y="240.0"/>
    </contour>
    <contour>
      <point x="362.0" y="380.0" type="qcurve" smooth="yes"/>
      <point x="362.0" y="276.0"/>
      <point x="439.0" y="176.0"/>
      <point x="507.0" y="176.0" type="qcurve" smooth="yes"/>
      <point x="577.0" y="176.0"/>
      <point x="738.0" y="354.0"/>
      <point x="777.0" y="522.0" type="qcurve" smooth="yes"/>
      <point x="814.0" y="680.0" type="line"/>
      <point x="814.0" y="776.0"/>
      <point x="747.0" y="874.0"/>
      <point x="647.0" y="874.0" type="qcurve" smooth="yes"/>
      <point x="512.0" y="874.0"/>
      <point x="362.0" y="570.0"/>
    </contour>
  </outline>
</glyph>
<glyph name="e" format="2">
  <advance width="1150"/>
  <unicode hex="0065"/>
  <outline>
    <contour>
      <point x="58.0" y="415.0" type="qcurve" smooth="yes"/>
      <point x="58.0" y="646.0"/>
      <point x="388.0" y="1070.0"/>
      <point x="679.0" y="1070.0" type="qcurve" smooth="yes"/>
      <point x="880.0" y="1070.0"/>
      <point x="1104.0" y="890.0"/>
      <point x="1104.0" y="774.0" type="qcurve" smooth="yes"/>
      <point x="1104.0" y="582.0"/>
      <point x="819.0" y="462.0"/>
      <point x="566.0" y="418.0" type="qcurve" smooth="yes"/>
      <point x="357.0" y="382.0" type="line"/>
      <point x="356.0" y="369.0"/>
      <point x="356.0" y="354.0" type="qcurve" smooth="yes"/>
      <point x="356.0" y="290.0"/>
      <point x="426.0" y="176.0"/>
      <point x="552.0" y="176.0" type="qcurve" smooth="yes"/>
      <point x="624.0" y="176.0"/>
      <point x="774.0" y="231.0"/>
      <point x="819.0" y="265.0" type="qcurve" smooth="yes"/>
      <point x="871.0" y="304.0"/>
      <point x="900.0" y="265.0" type="qcurve" smooth="yes"/>
      <point x="959.0" y="187.0" type="line" smooth="yes"/>
      <point x="995.0" y="140.0"/>
      <point x="951.0" y="99.0" type="qcurve" smooth="yes"/>
      <point x="885.5189819335938" y="38.97549819946289"/>
      <point x="676.3250122070312" y="-20.0"/>
      <point x="534.0" y="-20.0" type="qcurve" smooth="yes"/>
      <point x="258.0" y="-20.0"/>
      <point x="58.0" y="234.0"/>
    </contour>
    <contour>
      <point x="370.0" y="570.0" type="qcurve"/>
      <point x="589.0" y="606.0" type="line" smooth="yes"/>
      <point x="694.0" y="623.0"/>
      <point x="867.0" y="690.0"/>
      <point x="867.0" y="751.0" type="qcurve" smooth="yes"/>
      <point x="867.0" y="806.0"/>
      <point x="762.0" y="874.0"/>
      <point x="682.0" y="874.0" type="qcurve" smooth="yes"/>
      <point x="555.0" y="874.0"/>
      <point x="404.0" y="698.0"/>
    </contour>
  </outline>
</glyph>
<glyph name="g" format="2">
  <advance width="1192"/>
  <unicode hex="0067"/>
  <outline>
    <contour>
      <point x="66.0" y="402.0" type="qcurve" smooth="yes"/>
      <point x="66.0" y="662.0"/>
      <point x="387.0" y="1070.0"/>
      <point x="599.0" y="1070.0" type="qcurve" smooth="yes"/>
      <point x="671.0" y="1070.0"/>
      <point x="827.0" y="1032.0"/>
      <point x="877.0" y="954.0" type="qcurve"/>
      <point x="881.0" y="954.0" type="line"/>
      <point x="893.0" y="990.0" type="line" smooth="yes"/>
      <point x="913.0" y="1050.0"/>
      <point x="960.0" y="1050.0" type="qcurve" smooth="yes"/>
      <point x="1118.0" y="1050.0" type="line" smooth="yes"/>
      <point x="1179.0" y="1050.0"/>
      <point x="1165.0" y="990.0" type="qcurve" smooth="yes"/>
      <point x="939.0" y="11.0" type="line" smooth="yes"/>
      <point x="885.0" y="-223.0"/>
      <point x="596.0" y="-420.0"/>
      <point x="325.0" y="-420.0" type="qcurve" smooth="yes"/>
      <point x="210.0" y="-420.0"/>
      <point x="73.0" y="-386.0"/>
      <point x="-9.0" y="-342.0" type="qcurve" smooth="yes"/>
      <point x="-51.0" y="-320.0"/>
      <point x="-18.0" y="-263.0" type="qcurve" smooth="yes"/>
      <point x="25.0" y="-190.0" type="line" smooth="yes"/>
      <point x="52.0" y="-144.0"/>
      <point x="103.0" y="-170.0" type="qcurve" smooth="yes"/>
      <point x="140.0" y="-189.0"/>
      <point x="254.0" y="-224.0"/>
      <point x="340.0" y="-224.0" type="qcurve" smooth="yes"/>
      <point x="448.0" y="-224.0"/>
      <point x="628.0" y="-128.0"/>
      <point x="663.0" y="31.0" type="qcurve" smooth="yes"/>
      <point x="671.0" y="67.0" type="line" smooth="yes"/>
      <point x="679.0" y="103.0"/>
      <point x="694.0" y="147.0" type="qcurve"/>
      <point x="690.0" y="147.0" type="line"/>
      <point x="618.0" y="61.0"/>
      <point x="504.0" y="-11.0"/>
      <point x="431.0" y="-11.0" type="qcurve" smooth="yes"/>
      <point x="233.0" y="-11.0"/>
      <point x="66.0" y="256.0"/>
    </contour>
    <contour>
      <point x="362.0" y="383.0" type="qcurve" smooth="yes"/>
      <point x="362.0" y="294.0"/>
      <point x="441.0" y="185.0"/>
      <point x="509.0" y="185.0" type="qcurve" smooth="yes"/>
      <point x="579.0" y="185.0"/>
      <point x="741.0" y="368.0"/>
      <point x="777.0" y="522.0" type="qcurve" smooth="yes"/>
      <point x="814.0" y="680.0" type="line"/>
      <point x="814.0" y="776.0"/>
      <point x="747.0" y="874.0"/>
      <point x="647.0" y="874.0" type="qcurve" smooth="yes"/>
      <point x="512.0" y="874.0"/>
      <point x="362.0" y="570.0"/>
    </contour>
  </outline>
</glyph>
<glyph name="x" format="2">
  <advance width="1046"/>
  <unicode hex="0078"/>
  <outline>
    <contour>
      <point x="-33.0" y="0.0" type="line" smooth="yes"/>
      <point x="-118.0" y="0.0"/>
      <point x="-52.0" y="73.0" type="qcurve" smooth="yes"/>
      <point x="402.0" y="572.0" type="line"/>
      <point x="205.0" y="977.0" type="line" smooth="yes"/>
      <point x="169.0" y="1050.0"/>
      <point x="257.0" y="1050.0" type="qcurve" smooth="yes"/>
      <point x="423.0" y="1050.0" type="line" smooth="yes"/>
      <point x="468.0" y="1050.0"/>
      <point x="482.0" y="1010.0" type="qcurve" smooth="yes"/>
      <point x="572.0" y="751.0" type="line"/>
      <point x="762.0" y="1010.0" type="line" smooth="yes"/>
      <point x="791.0" y="1050.0"/>
      <point x="839.0" y="1050.0" type="qcurve" smooth="yes"/>
      <point x="1061.0" y="1050.0" type="line" smooth="yes"/>
      <point x="1148.0" y="1050.0"/>
      <point x="1081.0" y="977.0" type="qcurve" smooth="yes"/>
      <point x="680.0" y="539.0" type="line"/>
      <point x="904.0" y="73.0" type="line" smooth="yes"/>
      <point x="939.0" y="0.0"/>
      <point x="851.0" y="0.0" type="qcurve" smooth="yes"/>
      <point x="686.0" y="0.0" type="line" smooth="yes"/>
      <point x="642.0" y="0.0"/>
      <point x="627.0" y="40.0" type="qcurve" smooth="yes"/>
      <point x="508.0" y="358.0" type="line"/>
      <point x="268.0" y="40.0" type="line" smooth="yes"/>
      <point x="238.0" y="0.0"/>
      <point x="191.0" y="0.0" type="qcurve" smooth="yes"/>
    </contour>
  </outline>
</glyph>
<glyph name="z" format="2">
  <advance width="964"/>
  <unicode hex="007A"/>
  <outline>
    <contour>
      <point x="-8.0" y="0.0" type="line" smooth="yes"/>
      <point x="-67.0" y="0.0"/>
      <point x="-56.0" y="50.0" type="qcurve" smooth="yes"/>
      <point x="-39.0" y="126.0" type="line" smooth="yes"/>
      <point x="-28.0" y="175.0"/>
      <point x="27.0" y="234.0" type="qcurve" smooth="yes"/>
      <point x="601.0" y="850.0" type="line"/>
      <point x="602.0" y="854.0" type="line"/>
      <point x="561.0" y="850.0"/>
      <point x="521.0" y="850.0" type="qcurve" smooth="yes"/>
      <point x="212.0" y="850.0" type="line" smooth="yes"/>
      <point x="153.0" y="850.0"/>
      <point x="164.0" y="900.0" type="qcurve" smooth="yes"/>
      <point x="171.0" y="932.0" type="line" smooth="yes"/>
      <point x="197.0" y="1050.0"/>
      <point x="258.0" y="1050.0" type="qcurve" smooth="yes"/>
      <point x="950.0" y="1050.0" type="line" smooth="yes"/>
      <point x="1010.0" y="1050.0"/>
      <point x="999.0" y="1000.0" type="qcurve" smooth="yes"/>
      <point x="983.0" y="930.0" type="line" smooth="yes"/>
      <point x="971.0" y="876.0"/>
      <point x="915.0" y="816.0" type="qcurve" smooth="yes"/>
      <point x="342.0" y="200.0" type="line"/>
      <point x="341.0" y="196.0" type="line"/>
      <point x="395.0" y="200.0"/>
      <point x="422.0" y="200.0" type="qcurve" smooth="yes"/>
      <point x="778.0" y="200.0" type="line" smooth="yes"/>
      <point x="838.0" y="200.0"/>
      <point x="827.0" y="150.0" type="qcurve" smooth="yes"/>
      <point x="804.0" y="50.0" type="line" smooth="yes"/>
      <point x="792.0" y="0.0"/>
      <point x="732.0" y="0.0" type="qcurve" smooth="yes"/>
    </contour>
  </outline>
</glyph>
<glyph name="exclamdown" format="2">
  <advance width="668"/>
  <unicode hex="00A1"/>
  <outline>
    <contour>
      <point x="45.0" y="-384.0" type="line" smooth="yes"/>
      <point x="-27.0" y="-384.0"/>
      <point x="-7.0" y="-309.0" type="qcurve" smooth="yes"/>
      <point x="221.0" y="565.0" type="line" smooth="yes"/>
      <point x="238.0" y="630.0"/>
      <point x="301.0" y="630.0" type="qcurve" smooth="yes"/>
      <point x="417.0" y="630.0" type="line" smooth="yes"/>
      <point x="480.0" y="630.0"/>
      <point x="467.0" y="565.0" type="qcurve" smooth="yes"/>
      <point x="293.0" y="-309.0" type="line" smooth="yes"/>
      <point x="278.0" y="-384.0"/>
      <point x="205.0" y="-384.0" type="qcurve" smooth="yes"/>
    </contour>
    <contour>
      <point x="315.0" y="766.0" type="line" smooth="yes"/>
      <point x="245.0" y="766.0"/>
      <point x="262.0" y="841.0" type="qcurve" smooth="yes"/>
      <point x="293.0" y="975.0" type="line" smooth="yes"/>
      <point x="310.0" y="1050.0"/>
      <point x="380.0" y="1050.0" type="qcurve" smooth="yes"/>
      <point x="532.0" y="1050.0" type="line" smooth="yes"/>
      <point x="602.0" y="1050.0"/>
      <point x="585.0" y="975.0" type="qcurve" smooth="yes"/>
      <point x="554.0" y="841.0" type="line" smooth="yes"/>
      <point x="537.0" y="766.0"/>
      <point x="467.0" y="766.0" type="qcurve" smooth="yes"/>
    </contour>
  </outline>
</glyph>
<glyph name="sterling" format="2">
  <advance width="1200"/>
  <unicode hex="00A3"/>
  <outline>
    <contour>
      <point x="25.0" y="0.0" type="line" smooth="yes"/>
      <point x="-50.0" y="0.0"/>
      <point x="-35.0" y="65.0" type="qcurve" smooth="yes"/>
      <point x="-21.0" y="124.0" type="line" smooth="yes"/>
      <point x="-9.0" y="173.0"/>
      <point x="40.0" y="212.0" type="qcurve" smooth="yes"/>
      <point x="96.0" y="256.0"/>
      <point x="208.0" y="384.0"/>
      <point x="236.0" y="503.0" type="qcurve" smooth="yes"/>
      <point x="255.0" y="583.0" type="line"/>
      <point x="154.0" y="583.0" type="line" smooth="yes"/>
      <point x="90.0" y="583.0"/>
      <point x="105.0" y="648.0" type="qcurve" smooth="yes"/>
      <point x="132.0" y="766.0" type="line" smooth="yes"/>
      <point x="147.0" y="831.0"/>
      <point x="212.0" y="831.0" type="qcurve" smooth="yes"/>
      <point x="312.0" y="831.0" type="line"/>
      <point x="345.0" y="973.0" type="line" smooth="yes"/>
      <point x="401.0" y="1216.0"/>
      <point x="666.0" y="1456.0"/>
      <point x="892.0" y="1456.0" type="qcurve" smooth="yes"/>
      <point x="993.0" y="1456.0"/>
      <point x="1172.0" y="1391.0"/>
      <point x="1227.0" y="1317.0" type="qcurve" smooth="yes"/>
      <point x="1263.0" y="1269.0"/>
      <point x="1229.0" y="1233.0" type="qcurve" smooth="yes"/>
      <point x="1160.0" y="1159.0" type="line" smooth="yes"/>
      <point x="1113.0" y="1108.0"/>
      <point x="1067.0" y="1159.0" type="qcurve" smooth="yes"/>
      <point x="1041.0" y="1188.0"/>
      <point x="942.0" y="1232.0"/>
      <point x="883.0" y="1232.0" type="qcurve" smooth="yes"/>
      <point x="786.0" y="1232.0"/>
      <point x="658.0" y="1119.0"/>
      <point x="633.0" y="1010.0" type="qcurve" smooth="yes"/>
      <point x="592.0" y="831.0" type="line"/>
      <point x="829.0" y="831.0" type="line" smooth="yes"/>
      <point x="894.0" y="831.0"/>
      <point x="879.0" y="766.0" type="qcurve" smooth="yes"/>
      <point x="852.0" y="648.0" type="line" smooth="yes"/>
      <point x="837.0" y="583.0"/>
      <point x="773.0" y="583.0" type="qcurve" smooth="yes"/>
      <point x="535.0" y="583.0" type="line"/>
      <point x="514.0" y="495.0" type="line" smooth="yes"/>
      <point x="493.0" y="406.0"/>
      <point x="439.0" y="291.0"/>
      <point x="387.0" y="250.0" type="qcurve"/>
      <point x="387.0" y="244.0" type="line"/>
      <point x="448.0" y="248.0"/>
      <point x="488.0" y="248.0" type="qcurve" smooth="yes"/>
      <point x="986.0" y="248.0" type="line" smooth="yes"/>
      <point x="1061.0" y="248.0"/>
      <point x="1046.0" y="183.0" type="qcurve" smooth="yes"/>
      <point x="1019.0" y="65.0" type="line" smooth="yes"/>
      <point x="1004.0" y="0.0"/>
      <point x="929.0" y="0.0" type="qcurve" smooth="yes"/>
    </contour>
  </outline>
</glyph>
<glyph name="brokenbar" format="2">
  <advance width="630"/>
  <unicode hex="00A6"/>
  <outline>
    <contour>
      <point x="265.0" y="-338.0" type="line" smooth="yes"/>
      <point x="215.0" y="-338.0"/>
      <point x="215.0" y="-278.0" type="qcurve" smooth="yes"/>
      <point x="215.0" y="336.0" type="line" smooth="yes"/>
      <point x="215.0" y="396.0"/>
      <point x="265.0" y="396.0" type="qcurve" smooth="yes"/>
      <point x="365.0" y="396.0" type="line" smooth="yes"/>
      <point x="415.0" y="396.0"/>
      <point x="415.0" y="336.0" type="qcurve" smooth="yes"/>
      <point x="415.0" y="-278.0" type="line" smooth="yes"/>
      <point x="415.0" y="-338.0"/>
      <point x="365.0" y="-338.0" type="qcurve" smooth="yes"/>
    </contour>
    <contour>
      <point x="265.0" y="660.0" type="line" smooth="yes"/>
      <point x="215.0" y="660.0"/>
      <point x="215.0" y="720.0" type="qcurve" smooth="yes"/>
      <point x="215.0" y="1334.0" type="line" smooth="yes"/>
      <point x="215.0" y="1394.0"/>
      <point x="265.0" y="1394.0" type="qcurve" smooth="yes"/>
      <point x="365.0" y="1394.0" type="line" smooth="yes"/>
      <point x="415.0" y="1394.0"/>
      <point x="415.0" y="1334.0" type="qcurve" smooth="yes"/>
      <point x="415.0" y="720.0" type="line" smooth="yes"/>
      <point x="415.0" y="660.0"/>
      <point x="365.0" y="660.0" type="qcurve" smooth="yes"/>
    </contour>
  </outline>
</glyph>
<glyph name="logicalnot" format="2">
  <advance width="1200"/>
  <unicode hex="00AC"/>
  <outline>
    <contour>
      <point x="185.0" y="775.0" type="line" smooth="yes"/>
      <point x="125.0" y="775.0"/>
      <point x="125.0" y="825.0" type="qcurve" smooth="yes"/>
      <point x="125.0" y="911.0" type="line" smooth="yes"/>
      <point x="125.0" y="961.0"/>
      <point x="185.0" y="961.0" type="qcurve" smooth="yes"/>
      <point x="1175.0" y="961.0" type="line"/>
      <point x="1175.0" y="463.0" type="line" smooth="yes"/>
      <point x="1175.0" y="403.0"/>
      <point x="1125.0" y="403.0" type="qcurve" smooth="yes"/>
      <point x="1039.0" y="403.0" type="line" smooth="yes"/>
      <point x="989.0" y="403.0"/>
      <point x="989.0" y="463.0" type="qcurve" smooth="yes"/>
      <point x="989.0" y="775.0" type="line"/>
    </contour>
  </outline>
</glyph>
<glyph name="paragraph" format="2">
  <advance width="1140"/>
  <unicode hex="00B6"/>
  <outline>
    <contour>
      <point x="81.0" y="1084.0" type="qcurve" smooth="yes"/>
      <point x="81.0" y="1226.0"/>
      <point x="289.0" y="1434.0"/>
      <point x="451.0" y="1434.0" type="qcurve" smooth="yes"/>
      <point x="601.0" y="1434.0" type="line" smooth="yes"/>
      <point x="651.0" y="1434.0"/>
      <point x="651.0" y="1374.0" type="qcurve" smooth="yes"/>
      <point x="651.0" y="-310.0" type="line" smooth="yes"/>
      <point x="651.0" y="-370.0"/>
      <point x="601.0" y="-370.0" type="qcurve" smooth="yes"/>
      <point x="501.0" y="-370.0" type="line" smooth="yes"/>
      <point x="451.0" y="-370.0"/>
      <point x="451.0" y="-310.0" type="qcurve" smooth="yes"/>
      <point x="451.0" y="734.0" type="line"/>
      <point x="289.0" y="734.0"/>
      <point x="81.0" y="942.0"/>
    </contour>
    <contour>
      <point x="860.0" y="-370.0" type="line" smooth="yes"/>
      <point x="810.0" y="-370.0"/>
      <point x="810.0" y="-310.0" type="qcurve" smooth="yes"/>
      <point x="810.0" y="1374.0" type="line" smooth="yes"/>
      <point x="810.0" y="1434.0"/>
      <point x="860.0" y="1434.0" type="qcurve" smooth="yes"/>
      <point x="960.0" y="1434.0" type="line" smooth="yes"/>
      <point x="1010.0" y="1434.0"/>
      <point x="1010.0" y="1374.0" type="qcurve" smooth="yes"/>
      <point x="1010.0" y="-310.0" type="line" smooth="yes"/>
      <point x="1010.0" y="-370.0"/>
      <point x="960.0" y="-370.0" type="qcurve" smooth="yes"/>
    </contour>
  </outline>
</glyph>
<glyph name="periodcentered" format="2">
  <advance width="668"/>
  <unicode hex="00B7"/>
  <outline>
    <contour>
      <point x="306.0" y="583.0" type="line" smooth="yes"/>
      <point x="236.0" y="583.0"/>
      <point x="236.0" y="658.0" type="qcurve" smooth="yes"/>
      <point x="236.0" y="792.0" type="line" smooth="yes"/>
      <point x="236.0" y="867.0"/>
      <point x="306.0" y="867.0" type="qcurve" smooth="yes"/>
      <point x="458.0" y="867.0" type="line" smooth="yes"/>
      <point x="528.0" y="867.0"/>
      <point x="528.0" y="792.0" type="qcurve" smooth="yes"/>
      <point x="528.0" y="658.0" type="line" smooth="yes"/>
      <point x="528.0" y="583.0"/>
      <point x="458.0" y="583.0" type="qcurve" smooth="yes"/>
    </contour>
  </outline>
</glyph>
<glyph name="Oslash" format="2">
  <advance width="1532"/>
  <unicode hex="00D8"/>
  <outline>
    <contour>
      <point x="104.0" y="587.0" type="qcurve" smooth="yes"/>
      <point x="104.0" y="957.0"/>
      <point x="530.0" y="1468.0"/>
      <point x="880.0" y="1468.0" type="qcurve" smooth="yes"/>
      <point x="1166.0" y="1468.0"/>
      <point x="1333.0" y="1327.0" type="qcurve"/>
      <point x="1465.0" y="1442.0" type="line" smooth="yes"/>
      <point x="1511.0" y="1482.0"/>
      <point x="1547.0" y="1440.0" type="qcurve" smooth="yes"/>
      <point x="1625.0" y="1349.0" type="line" smooth="yes"/>
      <point x="1661.0" y="1307.0"/>
      <point x="1616.0" y="1268.0" type="qcurve" smooth="yes"/>
      <point x="1468.0" y="1139.0" type="line"/>
      <point x="1518.0" y="1016.0"/>
      <point x="1518.0" y="847.0" type="qcurve" smooth="yes"/>
      <point x="1518.0" y="477.0"/>
      <point x="1092.0" y="-34.0"/>
      <point x="742.0" y="-34.0" type="qcurve" smooth="yes"/>
      <point x="456.0" y="-34.0"/>
      <point x="289.0" y="107.0" type="qcurve"/>
      <point x="157.0" y="-8.0" type="line" smooth="yes"/>
      <point x="111.0" y="-48.0"/>
      <point x="75.0" y="-6.0" type="qcurve" smooth="yes"/>
      <point x="-3.0" y="85.0" type="line" smooth="yes"/>
      <point x="-39.0" y="127.0"/>
      <point x="6.0" y="166.0" type="qcurve" smooth="yes"/>
      <point x="154.0" y="295.0" type="line"/>
      <point x="104.0" y="418.0"/>
    </contour>
    <contour>
      <point x="416.0" y="545.0" type="qcurve" smooth="yes"/>
      <point x="416.0" y="535.0"/>
      <point x="416.0" y="525.0" type="qcurve"/>
      <point x="1121.0" y="1141.0" type="line"/>
      <point x="1036.0" y="1232.0"/>
      <point x="866.0" y="1232.0" type="qcurve" smooth="yes"/>
      <point x="666.0" y="1232.0"/>
      <point x="416.0" y="855.0"/>
    </contour>
    <contour>
      <point x="501.0" y="293.0" type="line"/>
      <point x="586.0" y="202.0"/>
      <point x="756.0" y="202.0" type="qcurve" smooth="yes"/>
      <point x="956.0" y="202.0"/>
      <point x="1206.0" y="579.0"/>
      <point x="1206.0" y="889.0" type="qcurve" smooth="yes"/>
      <point x="1206.0" y="899.0"/>
      <point x="1206.0" y="909.0" type="qcurve"/>
    </contour>
  </outline>
</glyph>
<glyph name="Thorn" format="2">
  <advance width="1306"/>
  <unicode hex="00DE"/>
  <outline>
    <contour>
      <point x="107.0" y="-11.0" type="line" smooth="yes"/>
      <point x="38.0" y="-11.0"/>
      <point x="55.0" y="64.0" type="qcurve" smooth="yes"/>
      <point x="355.0" y="1363.0" type="line" smooth="yes"/>
      <point x="372.0" y="1438.0"/>
      <point x="442.0" y="1438.0" type="qcurve" smooth="yes"/>
      <point x="594.0" y="1438.0" type="line" smooth="yes"/>
      <point x="664.0" y="1438.0"/>
      <point x="647.0" y="1363.0" type="qcurve" smooth="yes"/>
      <point x="609.0" y="1198.0" type="line"/>
      <point x="735.0" y="1198.0" type="line" smooth="yes"/>
      <point x="1014.0" y="1198.0"/>
      <point x="1270.0" y="985.0"/>
      <point x="1270.0" y="811.0" type="qcurve" smooth="yes"/>
      <point x="1270.0" y="579.0"/>
      <point x="933.0" y="302.0"/>
      <point x="588.0" y="302.0" type="qcurve" smooth="yes"/>
      <point x="402.0" y="302.0" type="line"/>
      <point x="347.0" y="64.0" type="line" smooth="yes"/>
      <point x="330.0" y="-11.0"/>
      <point x="259.0" y="-11.0" type="qcurve" smooth="yes"/>
    </contour>
    <contour>
      <point x="458.0" y="546.0" type="line"/>
      <point x="651.0" y="546.0" type="line" smooth="yes"/>
      <point x="794.0" y="546.0"/>
      <point x="968.0" y="656.0"/>
      <point x="968.0" y="773.0" type="qcurve" smooth="yes"/>
      <point x="968.0" y="874.0"/>
      <point x="816.0" y="954.0"/>
      <point x="685.0" y="954.0" type="qcurve" smooth="yes"/>
      <point x="552.0" y="954.0" type="line"/>
    </contour>
  </outline>
</glyph>
<glyph name="germandbls" format="2">
  <advance width="1337"/>
  <unicode hex="00DF"/>
  <outline>
    <contour>
      <point x="-16.0" y="-400.0" type="line" smooth="yes"/>
      <point x="-76.0" y="-400.0"/>
      <point x="-62.0" y="-340.0" type="qcurve" smooth="yes"/>
      <point x="272.0" y="1110.0" type="line" smooth="yes"/>
      <point x="318.0" y="1311.0"/>
      <point x="630.0" y="1496.0"/>
      <point x="872.0" y="1496.0" type="qcurve" smooth="yes"/>
      <point x="1056.0" y="1496.0"/>
      <point x="1269.0" y="1346.0"/>
      <point x="1269.0" y="1192.0" type="qcurve" smooth="yes"/>
      <point x="1269.0" y="1064.0"/>
      <point x="1086.0" y="867.0"/>
      <point x="938.0" y="798.0" type="qcurve"/>
      <point x="938.0" y="795.0" type="line"/>
      <point x="1062.0" y="778.0"/>
      <point x="1220.0" y="602.0"/>
      <point x="1220.0" y="456.0" type="qcurve" smooth="yes"/>
      <point x="1220.0" y="260.0"/>
      <point x="966.0" y="-20.0"/>
      <point x="684.0" y="-20.0" type="qcurve" smooth="yes"/>
      <point x="622.0" y="-20.0"/>
      <point x="494.0" y="10.0"/>
      <point x="454.0" y="37.0" type="qcurve" smooth="yes"/>
      <point x="421.0" y="60.0"/>
      <point x="444.0" y="101.0" type="qcurve" smooth="yes"/>
      <point x="502.0" y="204.0" type="line" smooth="yes"/>
      <point x="524.0" y="243.0"/>
      <point x="571.0" y="217.0" type="qcurve" smooth="yes"/>
      <point x="598.0" y="202.0"/>
      <point x="647.0" y="176.0"/>
      <point x="686.0" y="176.0" type="qcurve" smooth="yes"/>
      <point x="812.0" y="176.0"/>
      <point x="924.0" y="340.0"/>
      <point x="924.0" y="434.0" type="qcurve" smooth="yes"/>
      <point x="924.0" y="514.0"/>
      <point x="844.0" y="632.0"/>
      <point x="714.0" y="640.0" type="qcurve" smooth="yes"/>
      <point x="690.0" y="642.0"/>
      <point x="683.0" y="675.0" type="qcurve" smooth="yes"/>
      <point x="657.0" y="807.0" type="line" smooth="yes"/>
      <point x="652.0" y="833.0"/>
      <point x="693.0" y="859.0" type="qcurve" smooth="yes"/>
      <point x="770.0" y="908.0" type="line" smooth="yes"/>
      <point x="889.0" y="984.0"/>
      <point x="989.0" y="1118.0"/>
      <point x="989.0" y="1183.0" type="qcurve" smooth="yes"/>
      <point x="989.0" y="1248.0"/>
      <point x="896.0" y="1300.0"/>
      <point x="836.0" y="1300.0" type="qcurve" smooth="yes"/>
      <point x="732.0" y="1300.0"/>
      <point x="570.0" y="1188.0"/>
      <point x="536.0" y="1040.0" type="qcurve" smooth="yes"/>
      <point x="218.0" y="-340.0" type="line" smooth="yes"/>
      <point x="204.0" y="-400.0"/>
      <point x="144.0" y="-400.0" type="qcurve" smooth="yes"/>
    </contour>
  </outline>
</glyph>
<glyph name="Aogonek" format="2">
  <advance width="1394"/>
  <unicode hex="0104"/>
  <outline>
    <contour>
      <point x="-30.0" y="0.0" type="line" smooth="yes"/>
      <point x="-102.0" y="0.0"/>
      <point x="-63.0" y="66.0" type="qcurve" smooth="yes"/>
      <point x="701.0" y="1353.0" type="line" smooth="yes"/>
      <point x="749.0" y="1434.0"/>
      <point x="812.0" y="1434.0" type="qcurve" smooth="yes"/>
      <point x="952.0" y="1434.0" type="line" smooth="yes"/>
      <point x="1015.0" y="1434.0"/>
      <point x="1029.0" y="1353.0" type="qcurve" smooth="yes"/>
      <point x="1245.0" y="66.0" type="line" smooth="yes"/>
      <point x="1256.0" y="10.0"/>
      <point x="1195.0" y="-17.0" type="qcurve" smooth="yes"/>
      <point x="1119.0" y="-51.0"/>
      <point x="964.0" y="-160.0"/>
      <point x="964.0" y="-189.0" type="qcurve" smooth="yes"/>
      <point x="964.0" y="-210.0"/>
      <point x="998.0" y="-224.0"/>
      <point x="1025.0" y="-224.0" type="qcurve" smooth="yes"/>
      <point x="1069.0" y="-224.0"/>
      <point x="1110.0" y="-219.0" type="qcurve" smooth="yes"/>
      <point x="1149.0" y="-214.0"/>
      <point x="1150.0" y="-253.0" type="qcurve" smooth="yes"/>
      <point x="1153.0" y="-368.0" type="line" smooth="yes"/>
      <point x="1154.0" y="-406.0"/>
      <point x="1119.0" y="-411.0" type="qcurve" smooth="yes"/>
      <point x="1050.0" y="-420.0"/>
      <point x="972.0" y="-420.0" type="qcurve" smooth="yes"/>
      <point x="848.0" y="-420.0"/>
      <point x="728.0" y="-333.0"/>
      <point x="728.0" y="-266.0" type="qcurve" smooth="yes"/>
      <point x="728.0" y="-230.0"/>
      <point x="746.0" y="-161.0"/>
      <point x="846.0" y="-60.0"/>
      <point x="928.0" y="-7.0" type="qcurve" smooth="yes"/>
      <point x="976.0" y="24.0"/>
      <point x="968.0" y="69.0" type="qcurve" smooth="yes"/>
      <point x="923.0" y="338.0" type="line"/>
      <point x="415.0" y="338.0" type="line"/>
      <point x="256.0" y="69.0" type="line" smooth="yes"/>
      <point x="215.0" y="0.0"/>
      <point x="149.0" y="0.0" type="qcurve" smooth="yes"/>
    </contour>
    <contour>
      <point x="561.0" y="586.0" type="line"/>
      <point x="883.0" y="586.0" type="line"/>
      <point x="827.0" y="904.0" type="line" smooth="yes"/>
      <point x="819.0" y="951.0"/>
      <point x="819.0" y="1012.0"/>
      <point x="825.0" y="1061.0" type="qcurve"/>
      <point x="821.0" y="1061.0" type="line"/>
      <point x="805.0" y="1012.0"/>
      <point x="786.0" y="962.0"/>
      <point x="751.0" y="904.0" type="qcurve" smooth="yes"/>
    </contour>
  </outline>
</glyph>
<glyph name="dotlessi" format="2">
  <advance width="552"/>
  <unicode hex="0131"/>
  <outline>
    <contour>
      <point x="76.0" y="0.0" type="line" smooth="yes"/>
      <point x="16.0" y="0.0"/>
      <point x="30.0" y="60.0" type="qcurve" smooth="yes"/>
      <point x="245.0" y="990.0" type="line" smooth="yes"/>
      <point x="259.0" y="1050.0"/>
      <point x="318.0" y="1050.0" type="qcurve" smooth="yes"/>
      <point x="478.0" y="1050.0" type="line" smooth="yes"/>
      <point x="538.0" y="1050.0"/>
      <point x="525.0" y="990.0" type="qcurve" smooth="yes"/>
      <point x="310.0" y="60.0" type="line" smooth="yes"/>
      <point x="296.0" y="0.0"/>
      <point x="236.0" y="0.0" type="qcurve" smooth="yes"/>
    </contour>
  </outline>
</glyph>
<glyph name="Lslash" format="2">
  <advance width="1244"/>
  <unicode hex="0141"/>
  <outline>
    <contour>
      <point x="96.0" y="390.0" type="line" smooth="yes"/>
      <point x="16.0" y="343.0"/>
      <point x="31.0" y="410.0" type="qcurve" smooth="yes"/>
      <point x="66.0" y="570.0" type="line" smooth="yes"/>
      <point x="78.0" y="624.0"/>
      <point x="136.0" y="658.0" type="qcurve" smooth="yes"/>
      <point x="294.0" y="750.0" type="line"/>
      <point x="436.0" y="1359.0" type="line" smooth="yes"/>
      <point x="453.0" y="1434.0"/>
      <point x="523.0" y="1434.0" type="qcurve" smooth="yes"/>
      <point x="685.0" y="1434.0" type="line" smooth="yes"/>
      <point x="746.0" y="1434.0"/>
      <point x="728.0" y="1359.0" type="qcurve" smooth="yes"/>
      <point x="660.0" y="1070.0" type="line" smooth="yes"/>
      <point x="646.0" y="1009.0"/>
      <point x="627.0" y="950.0" type="qcurve"/>
      <point x="634.0" y="950.0" type="line"/>
      <point x="901.0" y="1105.0" type="line" smooth="yes"/>
      <point x="982.0" y="1152.0"/>
      <point x="967.0" y="1085.0" type="qcurve" smooth="yes"/>
      <point x="931.0" y="925.0" type="line" smooth="yes"/>
      <point x="919.0" y="870.0"/>
      <point x="861.0" y="837.0" type="qcurve" smooth="yes"/>
      <point x="569.0" y="668.0" type="line"/>
      <point x="471.0" y="248.0" type="line"/>
      <point x="1054.0" y="248.0" type="line" smooth="yes"/>
      <point x="1129.0" y="248.0"/>
      <point x="1114.0" y="183.0" type="qcurve" smooth="yes"/>
      <point x="1087.0" y="65.0" type="line" smooth="yes"/>
      <point x="1072.0" y="0.0"/>
      <point x="997.0" y="0.0" type="qcurve" smooth="yes"/>
      <point x="192.0" y="0.0" type="line" smooth="yes"/>
      <point x="121.0" y="0.0"/>
      <point x="139.0" y="75.0" type="qcurve" smooth="yes"/>
      <point x="203.0" y="348.0" type="line" smooth="yes"/>
      <point x="217.0" y="409.0"/>
      <point x="236.0" y="468.0" type="qcurve"/>
      <point x="229.0" y="468.0" type="line"/>
    </contour>
  </outline>
</glyph>
<glyph name="lslash" format="2">
  <advance width="692"/>
  <unicode hex="0142"/>
  <outline>
    <contour>
      <point x="78.0" y="465.0" type="line" smooth="yes"/>
      <point x="14.0" y="425.0"/>
      <point x="27.0" y="480.0" type="qcurve" smooth="yes"/>
      <point x="63.0" y="638.0" type="line" smooth="yes"/>
      <point x="73.0" y="683.0"/>
      <point x="124.0" y="715.0" type="qcurve" smooth="yes"/>
      <point x="267.0" y="805.0" type="line"/>
      <point x="368.0" y="1241.0" type="line" smooth="yes"/>
      <point x="379.0" y="1288.0"/>
      <point x="407.0" y="1323.0" type="qcurve" smooth="yes"/>
      <point x="516.0" y="1458.0" type="line" smooth="yes"/>
      <point x="547.0" y="1496.0"/>
      <point x="576.0" y="1496.0" type="qcurve" smooth="yes"/>
      <point x="646.0" y="1496.0" type="line" smooth="yes"/>
      <point x="707.0" y="1496.0"/>
      <point x="693.0" y="1436.0" type="qcurve" smooth="yes"/>
      <point x="614.0" y="1096.0" type="line" smooth="yes"/>
      <point x="604.0" y="1053.0"/>
      <point x="592.0" y="1016.0" type="qcurve"/>
      <point x="596.0" y="1016.0" type="line"/>
      <point x="736.0" y="1104.0" type="line" smooth="yes"/>
      <point x="800.0" y="1144.0"/>
      <point x="787.0" y="1088.0" type="qcurve" smooth="yes"/>
      <point x="751.0" y="930.0" type="line" smooth="yes"/>
      <point x="741.0" y="886.0"/>
      <point x="690.0" y="854.0" type="qcurve" smooth="yes"/>
      <point x="536.0" y="758.0" type="line"/>
      <point x="375.0" y="60.0" type="line" smooth="yes"/>
      <point x="361.0" y="0.0"/>
      <point x="301.0" y="0.0" type="qcurve" smooth="yes"/>
      <point x="141.0" y="0.0" type="line" smooth="yes"/>
      <point x="81.0" y="0.0"/>
      <point x="95.0" y="60.0" type="qcurve" smooth="yes"/>
      <point x="189.0" y="467.0" type="line" smooth="yes"/>
      <point x="199.0" y="510.0"/>
      <point x="211.0" y="547.0" type="qcurve"/>
      <point x="207.0" y="547.0" type="line"/>
    </contour>
  </outline>
</glyph>
<glyph name="uni0191" format="2">
  <advance width="1176"/>
  <unicode hex="0191"/>
  <outline>
    <contour>
      <point x="-329.0" y="-389.0" type="qcurve" smooth="yes"/>
      <point x="-369.0" y="-374.0"/>
      <point x="-351.0" y="-320.0" type="qcurve" smooth="yes"/>
      <point x="-312.0" y="-206.0" type="line" smooth="yes"/>
      <point x="-292.0" y="-146.0"/>
      <point x="-240.0" y="-167.0" type="qcurve" smooth="yes"/>
      <point x="-196.0" y="-184.0"/>
      <point x="-149.0" y="-184.0" type="qcurve" smooth="yes"/>
      <point x="-72.0" y="-184.0"/>
      <point x="24.0" y="-69.0"/>
      <point x="61.0" y="91.0" type="qcurve" smooth="yes"/>
      <point x="354.0" y="1359.0" type="line" smooth="yes"/>
      <point x="371.0" y="1434.0"/>
      <point x="441.0" y="1434.0" type="qcurve" smooth="yes"/>
      <point x="1232.0" y="1434.0" type="line" smooth="yes"/>
      <point x="1307.0" y="1434.0"/>
      <point x="1292.0" y="1369.0" type="qcurve" smooth="yes"/>
      <point x="1265.0" y="1251.0" type="line" smooth="yes"/>
      <point x="1250.0" y="1186.0"/>
      <point x="1175.0" y="1186.0" type="qcurve" smooth="yes"/>
      <point x="606.0" y="1186.0" type="line"/>
      <point x="525.0" y="838.0" type="line"/>
      <point x="1012.0" y="838.0" type="line" smooth="yes"/>
      <point x="1087.0" y="838.0"/>
      <point x="1072.0" y="773.0" type="qcurve" smooth="yes"/>
      <point x="1045.0" y="655.0" type="line" smooth="yes"/>
      <point x="1030.0" y="590.0"/>
      <point x="955.0" y="590.0" type="qcurve" smooth="yes"/>
      <point x="468.0" y="590.0" type="line"/>
      <point x="340.0" y="35.0" type="line" smooth="yes"/>
      <point x="285.0" y="-202.0"/>
      <point x="45.0" y="-420.0"/>
      <point x="-145.0" y="-420.0" type="qcurve" smooth="yes"/>
      <point x="-248.0" y="-420.0"/>
    </contour>
  </outline>
</glyph>
<glyph name="uni0197" format="2">
  <advance width="800"/>
  <unicode hex="0197"/>
  <outline>
    <contour>
      <point x="145.0" y="622.0" type="line" smooth="yes"/>
      <point x="70.0" y="622.0"/>
      <point x="85.0" y="687.0" type="qcurve" smooth="yes"/>
      <point x="112.0" y="805.0" type="line" smooth="yes"/>
      <point x="127.0" y="870.0"/>
      <point x="202.0" y="870.0" type="qcurve" smooth="yes"/>
      <point x="335.0" y="870.0" type="line"/>
      <point x="448.0" y="1359.0" type="line" smooth="yes"/>
      <point x="465.0" y="1434.0"/>
      <point x="535.0" y="1434.0" type="qcurve" smooth="yes"/>
      <point x="687.0" y="1434.0" type="line" smooth="yes"/>
      <point x="757.0" y="1434.0"/>
      <point x="740.0" y="1359.0" type="qcurve" smooth="yes"/>
      <point x="627.0" y="870.0" type="line"/>
      <point x="760.0" y="870.0" type="line" smooth="yes"/>
      <point x="835.0" y="870.0"/>
      <point x="820.0" y="805.0" type="qcurve" smooth="yes"/>
      <point x="793.0" y="687.0" type="line" smooth="yes"/>
      <point x="778.0" y="622.0"/>
      <point x="703.0" y="622.0" type="qcurve" smooth="yes"/>
      <point x="570.0" y="622.0" type="line"/>
      <point x="443.0" y="75.0" type="line" smooth="yes"/>
      <point x="426.0" y="0.0"/>
      <point x="356.0" y="0.0" type="qcurve" smooth="yes"/>
      <point x="204.0" y="0.0" type="line" smooth="yes"/>
      <point x="134.0" y="0.0"/>
      <point x="151.0" y="75.0" type="qcurve" smooth="yes"/>
      <point x="278.0" y="622.0" type="line"/>
    </contour>
  </outline>
</glyph>
<glyph name="uni01B2" format="2">
  <advance width="1377"/>
  <unicode hex="01B2"/>
  <outline>
    <contour>
      <point x="178.0" y="597.0" type="qcurve" smooth="yes"/>
      <point x="358.0" y="1379.0" type="line" smooth="yes"/>
      <point x="371.0" y="1434.0"/>
      <point x="441.0" y="1434.0" type="qcurve" smooth="yes"/>
      <point x="593.0" y="1434.0" type="line" smooth="yes"/>
      <point x="663.0" y="1434.0"/>
      <point x="650.0" y="1379.0" type="qcurve" smooth="yes"/>
      <point x="472.0" y="607.0" type="line" smooth="yes"/>
      <point x="410.0" y="337.0"/>
      <point x="552.0" y="202.0"/>
      <point x="669.0" y="202.0" type="qcurve" smooth="yes"/>
      <point x="822.0" y="202.0"/>
      <point x="1053.0" y="651.0"/>
      <point x="1053.0" y="893.0" type="qcurve" smooth="yes"/>
      <point x="1053.0" y="978.0"/>
      <point x="987.0" y="1170.0"/>
      <point x="950.0" y="1235.0" type="qcurve" smooth="yes"/>
      <point x="905.0" y="1313.0"/>
      <point x="954.0" y="1347.0" type="qcurve" smooth="yes"/>
      <point x="1088.0" y="1439.0" type="line" smooth="yes"/>
      <point x="1156.0" y="1485.0"/>
      <point x="1208.0" y="1407.0" type="qcurve" smooth="yes"/>
      <point x="1290.0" y="1284.0"/>
      <point x="1365.0" y="1029.0"/>
      <point x="1365.0" y="947.0" type="qcurve" smooth="yes"/>
      <point x="1365.0" y="540.0"/>
      <point x="967.0" y="-34.0"/>
      <point x="637.0" y="-34.0" type="qcurve" smooth="yes"/>
      <point x="375.0" y="-34.0"/>
      <point x="100.0" y="257.0"/>
    </contour>
  </outline>
</glyph>
<glyph name="uni0244" format="2">
  <advance width="1610"/>
  <unicode hex="0244"/>
  <outline>
    <contour>
      <point x="145.0" y="622.0" type="line" smooth="yes"/>
      <point x="70.0" y="622.0"/>
      <point x="85.0" y="687.0" type="qcurve" smooth="yes"/>
      <point x="112.0" y="805.0" type="line" smooth="yes"/>
      <point x="127.0" y="870.0"/>
      <point x="202.0" y="870.0" type="qcurve" smooth="yes"/>
      <point x="335.0" y="870.0" type="line"/>
      <point x="452.0" y="1379.0" type="line" smooth="yes"/>
      <point x="465.0" y="1434.0"/>
      <point x="535.0" y="1434.0" type="qcurve" smooth="yes"/>
      <point x="687.0" y="1434.0" type="line" smooth="yes"/>
      <point x="757.0" y="1434.0"/>
      <point x="744.0" y="1379.0" type="qcurve" smooth="yes"/>
      <point x="627.0" y="870.0" type="line"/>
      <point x="1145.0" y="870.0" type="line"/>
      <point x="1262.0" y="1379.0" type="line" smooth="yes"/>
      <point x="1275.0" y="1434.0"/>
      <point x="1345.0" y="1434.0" type="qcurve" smooth="yes"/>
      <point x="1497.0" y="1434.0" type="line" smooth="yes"/>
      <point x="1567.0" y="1434.0"/>
      <point x="1554.0" y="1379.0" type="qcurve" smooth="yes"/>
      <point x="1437.0" y="870.0" type="line"/>
      <point x="1570.0" y="870.0" type="line" smooth="yes"/>
      <point x="1645.0" y="870.0"/>
      <point x="1630.0" y="805.0" type="qcurve" smooth="yes"/>
      <point x="1603.0" y="687.0" type="line" smooth="yes"/>
      <point x="1588.0" y="622.0"/>
      <point x="1513.0" y="622.0" type="qcurve" smooth="yes"/>
      <point x="1380.0" y="622.0" type="line"/>
      <point x="1374.0" y="597.0" type="line" smooth="yes"/>
      <point x="1290.0" y="234.0"/>
      <point x="982.0" y="-34.0"/>
      <point x="701.0" y="-34.0" type="qcurve" smooth="yes"/>
      <point x="460.0" y="-34.0"/>
      <point x="195.0" y="263.0"/>
      <point x="272.0" y="597.0" type="qcurve" smooth="yes"/>
      <point x="278.0" y="622.0" type="line"/>
    </contour>
    <contour>
      <point x="566.0" y="607.0" type="line" smooth="yes"/>
      <point x="504.0" y="339.0"/>
      <point x="614.0" y="202.0"/>
      <point x="731.0" y="202.0" type="qcurve" smooth="yes"/>
      <point x="832.0" y="202.0"/>
      <point x="1029.0" y="367.0"/>
      <point x="1084.0" y="607.0" type="qcurve" smooth="yes"/>
      <point x="1087.0" y="622.0" type="line"/>
      <point x="569.0" y="622.0" type="line"/>
    </contour>
  </outline>
</glyph>
<glyph name="uni0245" format="2">
  <advance width="1370"/>
  <unicode hex="0245"/>
  <outline>
    <contour>
      <point x="-30.0" y="0.0" type="line" smooth="yes"/>
      <point x="-102.0" y="0.0"/>
      <point x="-62.0" y="66.0" type="qcurve" smooth="yes"/>
      <point x="713.0" y="1353.0" type="line" smooth="yes"/>
      <point x="762.0" y="1434.0"/>
      <point x="826.0" y="1434.0" type="qcurve" smooth="yes"/>
      <point x="966.0" y="1434.0" type="line" smooth="yes"/>
      <point x="1030.0" y="1434.0"/>
      <point x="1041.0" y="1353.0" type="qcurve" smooth="yes"/>
      <point x="1222.0" y="66.0" type="line" smooth="yes"/>
      <point x="1231.0" y="0.0"/>
      <point x="1160.0" y="0.0" type="qcurve" smooth="yes"/>
      <point x="1021.0" y="0.0" type="line" smooth="yes"/>
      <point x="954.0" y="0.0"/>
      <point x="945.0" y="69.0" type="qcurve" smooth="yes"/>
      <point x="832.0" y="904.0" type="line" smooth="yes"/>
      <point x="825.0" y="964.0"/>
      <point x="825.0" y="1012.0"/>
      <point x="832.0" y="1061.0" type="qcurve"/>
      <point x="828.0" y="1061.0" type="line"/>
      <point x="811.0" y="1012.0"/>
      <point x="790.0" y="962.0"/>
      <point x="756.0" y="904.0" type="qcurve" smooth="yes"/>
      <point x="257.0" y="69.0" type="line" smooth="yes"/>
      <point x="216.0" y="0.0"/>
      <point x="149.0" y="0.0" type="qcurve" smooth="yes"/>
    </contour>
  </outline>
</glyph>
<glyph name="uni0256" format="2">
  <advance width="1204"/>
  <unicode hex="0256"/>
  <outline>
    <contour>
      <point x="66.0" y="399.0" type="qcurve" smooth="yes"/>
      <point x="66.0" y="662.0"/>
      <point x="387.0" y="1070.0"/>
      <point x="599.0" y="1070.0" type="qcurve" smooth="yes"/>
      <point x="671.0" y="1070.0"/>
      <point x="827.0" y="1032.0"/>
      <point x="877.0" y="954.0" type="qcurve"/>
      <point x="881.0" y="954.0" type="line"/>
      <point x="885.0" y="987.0"/>
      <point x="896.0" y="1034.0" type="qcurve" smooth="yes"/>
      <point x="983.0" y="1416.0" type="line" smooth="yes"/>
      <point x="997.0" y="1476.0"/>
      <point x="1057.0" y="1476.0" type="qcurve" smooth="yes"/>
      <point x="1217.0" y="1476.0" type="line" smooth="yes"/>
      <point x="1277.0" y="1476.0"/>
      <point x="1263.0" y="1416.0" type="qcurve" smooth="yes"/>
      <point x="942.0" y="26.0" type="line" smooth="yes"/>
      <point x="908.0" y="-120.0"/>
      <point x="948.0" y="-224.0"/>
      <point x="995.0" y="-224.0" type="qcurve" smooth="yes"/>
      <point x="1017.0" y="-224.0"/>
      <point x="1055.0" y="-218.0" type="qcurve" smooth="yes"/>
      <point x="1095.0" y="-210.0"/>
      <point x="1099.0" y="-248.0" type="qcurve" smooth="yes"/>
      <point x="1112.0" y="-358.0" type="line" smooth="yes"/>
      <point x="1117.0" y="-399.0"/>
      <point x="1070.0" y="-407.0" type="qcurve" smooth="yes"/>
      <point x="998.0" y="-420.0"/>
      <point x="928.0" y="-420.0" type="qcurve" smooth="yes"/>
      <point x="766.0" y="-420.0"/>
      <point x="611.0" y="-199.0"/>
      <point x="655.0" y="-4.0" type="qcurve" smooth="yes"/>
      <point x="667.0" y="49.0" type="line" smooth="yes"/>
      <point x="676.0" y="88.0"/>
      <point x="692.0" y="138.0" type="qcurve"/>
      <point x="688.0" y="138.0" type="line"/>
      <point x="616.0" y="52.0"/>
      <point x="502.0" y="-20.0"/>
      <point x="429.0" y="-20.0" type="qcurve" smooth="yes"/>
      <point x="231.0" y="-20.0"/>
      <point x="66.0" y="240.0"/>
    </contour>
    <contour>
      <point x="362.0" y="380.0" type="qcurve" smooth="yes"/>
      <point x="362.0" y="276.0"/>
      <point x="439.0" y="176.0"/>
      <point x="507.0" y="176.0" type="qcurve" smooth="yes"/>
      <point x="577.0" y="176.0"/>
      <point x="738.0" y="354.0"/>
      <point x="777.0" y="522.0" type="qcurve" smooth="yes"/>
      <point x="814.0" y="680.0" type="line"/>
      <point x="814.0" y="776.0"/>
      <point x="747.0" y="874.0"/>
      <point x="647.0" y="874.0" type="qcurve" smooth="yes"/>
      <point x="512.0" y="874.0"/>
      <point x="362.0" y="570.0"/>
    </contour>
  </outline>
</glyph>
<glyph name="uni0269" format="2">
  <advance width="746"/>
  <unicode hex="0269"/>
  <outline>
    <contour>
      <point x="88.0" y="311.0" type="qcurve" smooth="yes"/>
      <point x="245.0" y="990.0" type="line" smooth="yes"/>
      <point x="259.0" y="1050.0"/>
      <point x="318.0" y="1050.0" type="qcurve" smooth="yes"/>
      <point x="478.0" y="1050.0" type="line" smooth="yes"/>
      <point x="539.0" y="1050.0"/>
      <point x="525.0" y="990.0" type="qcurve" smooth="yes"/>
      <point x="368.0" y="313.0" type="line" smooth="yes"/>
      <point x="351.0" y="241.0"/>
      <point x="376.0" y="163.0"/>
      <point x="427.0" y="163.0" type="qcurve" smooth="yes"/>
      <point x="450.0" y="163.0"/>
      <point x="498.0" y="178.0"/>
      <point x="532.0" y="194.0" type="qcurve" smooth="yes"/>
      <point x="567.0" y="210.0"/>
      <point x="578.0" y="172.0" type="qcurve" smooth="yes"/>
      <point x="605.0" y="79.0" type="line" smooth="yes"/>
      <point x="615.0" y="45.0"/>
      <point x="581.0" y="26.0" type="qcurve" smooth="yes"/>
      <point x="544.0" y="5.0"/>
      <point x="422.0" y="-33.0"/>
      <point x="364.0" y="-33.0" type="qcurve" smooth="yes"/>
      <point x="197.0" y="-33.0"/>
      <point x="49.0" y="142.0"/>
    </contour>
  </outline>
</glyph>
<glyph name="uni028B" format="2">
  <advance width="1169"/>
  <unicode hex="028B"/>
  <outline>
    <contour>
      <point x="121.0" y="464.0" type="qcurve" smooth="yes"/>
      <point x="243.0" y="990.0" type="line" smooth="yes"/>
      <point x="257.0" y="1050.0"/>
      <point x="316.0" y="1050.0" type="qcurve" smooth="yes"/>
      <point x="476.0" y="1050.0" type="line" smooth="yes"/>
      <point x="537.0" y="1050.0"/>
      <point x="523.0" y="990.0" type="qcurve" smooth="yes"/>
      <point x="411.0" y="508.0" type="line" smooth="yes"/>
      <point x="360.0" y="290.0"/>
      <point x="415.0" y="176.0"/>
      <point x="513.0" y="176.0" type="qcurve" smooth="yes"/>
      <point x="621.0" y="176.0"/>
      <point x="817.0" y="453.0"/>
      <point x="817.0" y="618.0" type="qcurve" smooth="yes"/>
      <point x="817.0" y="717.0"/>
      <point x="795.0" y="837.0"/>
      <point x="774.0" y="896.0" type="qcurve" smooth="yes"/>
      <point x="754.0" y="952.0"/>
      <point x="795.0" y="972.0" type="qcurve" smooth="yes"/>
      <point x="954.0" y="1051.0" type="line" smooth="yes"/>
      <point x="1003.0" y="1075.0"/>
      <point x="1029.0" y="1020.0" type="qcurve" smooth="yes"/>
      <point x="1059.0" y="957.0"/>
      <point x="1113.0" y="799.0"/>
      <point x="1113.0" y="697.0" type="qcurve" smooth="yes"/>
      <point x="1113.0" y="391.0"/>
      <point x="756.0" y="-20.0"/>
      <point x="491.0" y="-20.0" type="qcurve" smooth="yes"/>
      <point x="291.0" y="-20.0"/>
      <point x="62.0" y="208.0"/>
    </contour>
  </outline>
</glyph>
<glyph name="uni028C" format="2">
  <advance width="1008"/>
  <unicode hex="028C"/>
  <outline>
    <contour>
      <point x="-45.0" y="0.0" type="line" smooth="yes"/>
      <point x="-103.0" y="0.0"/>
      <point x="-60.0" y="78.0" type="qcurve" smooth="yes"/>
      <point x="439.0" y="983.0" type="line" smooth="yes"/>
      <point x="476.0" y="1050.0"/>
      <point x="527.0" y="1050.0" type="qcurve" smooth="yes"/>
      <point x="725.0" y="1050.0" type="line" smooth="yes"/>
      <point x="777.0" y="1050.0"/>
      <point x="783.0" y="983.0" type="qcurve" smooth="yes"/>
      <point x="864.0" y="78.0" type="line" smooth="yes"/>
      <point x="871.0" y="0.0"/>
      <point x="813.0" y="0.0" type="qcurve" smooth="yes"/>
      <point x="652.0" y="0.0" type="line" smooth="yes"/>
      <point x="605.0" y="0.0"/>
      <point x="603.0" y="51.0" type="qcurve" smooth="yes"/>
      <point x="584.0" y="637.0" type="line" smooth="yes"/>
      <point x="582.0" y="686.0"/>
      <point x="587.0" y="782.0"/>
      <point x="592.0" y="812.0" type="qcurve"/>
      <point x="586.0" y="812.0" type="line"/>
      <point x="577.0" y="782.0"/>
      <point x="538.0" y="686.0"/>
      <point x="514.0" y="637.0" type="qcurve" smooth="yes"/>
      <point x="223.0" y="51.0" type="line" smooth="yes"/>
      <point x="198.0" y="0.0"/>
      <point x="152.0" y="0.0" type="qcurve" smooth="yes"/>
    </contour>
  </outline>
</glyph>
<glyph name="uni0292" format="2">
  <advance width="1025"/>
  <unicode hex="0292"/>
  <outline>
    <contour>
      <point x="-87.0" y="-292.0" type="qcurve" smooth="yes"/>
      <point x="-130.0" y="-241.0"/>
      <point x="-87.0" y="-203.0" type="qcurve" smooth="yes"/>
      <point x="-3.0" y="-130.0" type="line" smooth="yes"/>
      <point x="44.0" y="-89.0"/>
      <point x="85.0" y="-134.0" type="qcurve" smooth="yes"/>
      <point x="135.0" y="-189.0"/>
      <point x="227.0" y="-224.0"/>
      <point x="284.0" y="-224.0" type="qcurve" smooth="yes"/>
      <point x="408.0" y="-224.0"/>
      <point x="530.0" y="-51.0"/>
      <point x="530.0" y="59.0" type="qcurve" smooth="yes"/>
      <point x="530.0" y="125.0"/>
      <point x="435.0" y="253.0"/>
      <point x="312.0" y="253.0" type="qcurve" smooth="yes"/>
      <point x="219.0" y="253.0" type="line" smooth="yes"/>
      <point x="160.0" y="253.0"/>
      <point x="171.0" y="303.0" type="qcurve" smooth="yes"/>
      <point x="188.0" y="379.0" type="line" smooth="yes"/>
      <point x="202.0" y="440.0"/>
      <point x="249.0" y="487.0" type="qcurve" smooth="yes"/>
      <point x="613.0" y="850.0" type="line"/>
      <point x="613.0" y="854.0" type="line"/>
      <point x="572.0" y="850.0"/>
      <point x="532.0" y="850.0" type="qcurve" smooth="yes"/>
      <point x="216.0" y="850.0" type="line" smooth="yes"/>
      <point x="156.0" y="850.0"/>
      <point x="168.0" y="900.0" type="qcurve" smooth="yes"/>
      <point x="191.0" y="1000.0" type="line" smooth="yes"/>
      <point x="203.0" y="1050.0"/>
      <point x="262.0" y="1050.0" type="qcurve" smooth="yes"/>
      <point x="950.0" y="1050.0" type="line" smooth="yes"/>
      <point x="1010.0" y="1050.0"/>
      <point x="999.0" y="1000.0" type="qcurve" smooth="yes"/>
      <point x="983.0" y="930.0" type="line" smooth="yes"/>
      <point x="970.0" y="874.0"/>
      <point x="918.0" y="822.0" type="qcurve" smooth="yes"/>
      <point x="548.0" y="453.0" type="line"/>
      <point x="548.0" y="449.0" type="line"/>
      <point x="654.0" y="423.0"/>
      <point x="824.0" y="231.0"/>
      <point x="824.0" y="106.0" type="qcurve" smooth="yes"/>
      <point x="824.0" y="-129.0"/>
      <point x="537.0" y="-420.0"/>
      <point x="266.0" y="-420.0" type="qcurve" smooth="yes"/>
      <point x="147.0" y="-420.0"/>
      <point x="-27.0" y="-363.0"/>
    </contour>
  </outline>
</glyph>
<glyph name="dotaccent" format="2">
  <advance width="614"/>
  <unicode hex="02D9"/>
  <outline>
    <contour>
      <point x="385.0" y="1204.0" type="line" smooth="yes"/>
      <point x="325.0" y="1204.0"/>
      <point x="339.0" y="1264.0" type="qcurve" smooth="yes"/>
      <point x="368.0" y="1392.0" type="line" smooth="yes"/>
      <point x="382.0" y="1452.0"/>
      <point x="442.0" y="1452.0" type="qcurve" smooth="yes"/>
      <point x="602.0" y="1452.0" type="line" smooth="yes"/>
      <point x="662.0" y="1452.0"/>
      <point x="648.0" y="1392.0" type="qcurve" smooth="yes"/>
      <point x="619.0" y="1264.0" type="line" smooth="yes"/>
      <point x="605.0" y="1204.0"/>
      <point x="545.0" y="1204.0" type="qcurve" smooth="yes"/>
    </contour>
  </outline>
</glyph>
<glyph name="hungarumlaut" format="2">
  <advance width="614"/>
  <unicode hex="02DD"/>
  <outline>
    <contour>
      <point x="171.0" y="1150.0" type="line" smooth="yes"/>
      <point x="129.0" y="1150.0"/>
      <point x="161.0" y="1218.0" type="qcurve" smooth="yes"/>
      <point x="240.0" y="1384.0" type="line" smooth="yes"/>
      <point x="264.0" y="1435.0"/>
      <point x="348.0" y="1435.0" type="qcurve" smooth="yes"/>
      <point x="483.0" y="1435.0" type="line" smooth="yes"/>
      <point x="538.0" y="1435.0"/>
      <point x="476.0" y="1366.0" type="qcurve"/>
      <point x="338.0" y="1192.0" type="line" smooth="yes"/>
      <point x="305.0" y="1150.0"/>
      <point x="235.0" y="1150.0" type="qcurve" smooth="yes"/>
    </contour>
    <contour>
      <point x="512.0" y="1150.0" type="line" smooth="yes"/>
      <point x="470.0" y="1150.0"/>
      <point x="502.0" y="1218.0" type="qcurve" smooth="yes"/>
      <point x="581.0" y="1384.0" type="line" smooth="yes"/>
      <point x="605.0" y="1435.0"/>
      <point x="689.0" y="1435.0" type="qcurve" smooth="yes"/>
      <point x="824.0" y="1435.0" type="line" smooth="yes"/>
      <point x="879.0" y="1435.0"/>
      <point x="817.0" y="1366.0" type="qcurve"/>
      <point x="679.0" y="1192.0" type="line" smooth="yes"/>
      <point x="646.0" y="1150.0"/>
      <point x="576.0" y="1150.0" type="qcurve" smooth="yes"/>
    </contour>
  </outline>
</glyph>
<glyph name="uni0394" format="2">
  <advance width="1432"/>
  <unicode hex="0394"/>
  <outline>
    <contour>
      <point x="2.0" y="0.0" type="line" smooth="yes"/>
      <point x="-68.0" y="0.0"/>
      <point x="-51.0" y="75.0" type="qcurve" smooth="yes"/>
      <point x="-44.0" y="105.0" type="line" smooth="yes"/>
      <point x="-36.0" y="141.0"/>
      <point x="0.0" y="197.0" type="qcurve" smooth="yes"/>
      <point x="744.0" y="1353.0" type="line" smooth="yes"/>
      <point x="796.0" y="1434.0"/>
      <point x="857.0" y="1434.0" type="qcurve" smooth="yes"/>
      <point x="997.0" y="1434.0" type="line" smooth="yes"/>
      <point x="1058.0" y="1433.0"/>
      <point x="1072.0" y="1353.0" type="qcurve" smooth="yes"/>
      <point x="1282.0" y="197.0" type="line" smooth="yes"/>
      <point x="1292.0" y="141.0"/>
      <point x="1284.0" y="105.0" type="qcurve" smooth="yes"/>
      <point x="1277.0" y="75.0" type="line" smooth="yes"/>
      <point x="1260.0" y="0.0"/>
      <point x="1190.0" y="0.0" type="qcurve" smooth="yes"/>
    </contour>
    <contour>
      <point x="357.0" y="244.0" type="line"/>
      <point x="418.0" y="248.0"/>
      <point x="458.0" y="248.0" type="qcurve" smooth="yes"/>
      <point x="888.0" y="248.0" type="line" smooth="yes"/>
      <point x="928.0" y="248.0"/>
      <point x="987.0" y="244.0" type="qcurve"/>
      <point x="989.0" y="250.0" type="line"/>
      <point x="868.0" y="904.0" type="line" smooth="yes"/>
      <point x="860.0" y="946.0"/>
      <point x="856.0" y="1011.0"/>
      <point x="863.0" y="1061.0" type="qcurve"/>
      <point x="859.0" y="1061.0" type="line"/>
      <point x="842.0" y="1011.0"/>
      <point x="808.0" y="945.0"/>
      <point x="782.0" y="904.0" type="qcurve" smooth="yes"/>
      <point x="359.0" y="250.0" type="line"/>
    </contour>
  </outline>
</glyph>
<glyph name="Sigma" format="2">
  <advance width="1247"/>
  <unicode hex="03A3"/>
  <outline>
    <contour>
      <point x="25.0" y="0.0" type="line" smooth="yes"/>
      <point x="-50.0" y="0.0"/>
      <point x="-35.0" y="65.0" type="qcurve" smooth="yes"/>
      <point x="-16.0" y="147.0" type="line" smooth="yes"/>
      <point x="-1.0" y="211.0"/>
      <point x="67.0" y="286.0" type="qcurve" smooth="yes"/>
      <point x="452.0" y="708.0" type="line" smooth="yes"/>
      <point x="514.0" y="776.0"/>
      <point x="482.0" y="839.0" type="qcurve" smooth="yes"/>
      <point x="295.0" y="1201.0" type="line" smooth="yes"/>
      <point x="272.0" y="1246.0"/>
      <point x="284.0" y="1302.0" type="qcurve" smooth="yes"/>
      <point x="299.0" y="1369.0" type="line" smooth="yes"/>
      <point x="314.0" y="1434.0"/>
      <point x="389.0" y="1434.0" type="qcurve" smooth="yes"/>
      <point x="1285.0" y="1434.0" type="line" smooth="yes"/>
      <point x="1360.0" y="1434.0"/>
      <point x="1345.0" y="1369.0" type="qcurve" smooth="yes"/>
      <point x="1318.0" y="1251.0" type="line" smooth="yes"/>
      <point x="1303.0" y="1186.0"/>
      <point x="1228.0" y="1186.0" type="qcurve" smooth="yes"/>
      <point x="757.0" y="1186.0" type="line" smooth="yes"/>
      <point x="697.0" y="1186.0"/>
      <point x="638.0" y="1191.0" type="qcurve"/>
      <point x="638.0" y="1184.0" type="line"/>
      <point x="833.0" y="791.0" type="line" smooth="yes"/>
      <point x="865.0" y="727.0"/>
      <point x="805.0" y="664.0" type="qcurve" smooth="yes"/>
      <point x="416.0" y="250.0" type="line"/>
      <point x="416.0" y="243.0" type="line"/>
      <point x="477.0" y="248.0"/>
      <point x="537.0" y="248.0" type="qcurve" smooth="yes"/>
      <point x="1041.0" y="248.0" type="line" smooth="yes"/>
      <point x="1116.0" y="248.0"/>
      <point x="1101.0" y="183.0" type="qcurve" smooth="yes"/>
      <point x="1074.0" y="65.0" type="line" smooth="yes"/>
      <point x="1059.0" y="0.0"/>
      <point x="984.0" y="0.0" type="qcurve" smooth="yes"/>
    </contour>
  </outline>
</glyph>
<glyph name="uni03A9" format="2">
  <advance width="1616"/>
  <unicode hex="03A9"/>
  <outline>
    <contour>
      <point x="13.0" y="0.0" type="line" smooth="yes"/>
      <point x="-62.0" y="0.0"/>
      <point x="-47.0" y="65.0" type="qcurve" smooth="yes"/>
      <point x="-20.0" y="183.0" type="line" smooth="yes"/>
      <point x="-5.0" y="248.0"/>
      <point x="70.0" y="248.0" type="qcurve" smooth="yes"/>
      <point x="244.0" y="248.0" type="line" smooth="yes"/>
      <point x="294.0" y="248.0"/>
      <point x="343.0" y="244.0" type="qcurve"/>
      <point x="343.0" y="250.0" type="line"/>
      <point x="259.0" y="309.0"/>
      <point x="149.0" y="525.0"/>
      <point x="149.0" y="614.0" type="qcurve" smooth="yes"/>
      <point x="149.0" y="963.0"/>
      <point x="573.0" y="1468.0"/>
      <point x="941.0" y="1468.0" type="qcurve" smooth="yes"/>
      <point x="1233.0" y="1468.0"/>
      <point x="1569.0" y="1161.0"/>
      <point x="1569.0" y="874.0" type="qcurve" smooth="yes"/>
      <point x="1569.0" y="672.0"/>
      <point x="1286.0" y="309.0"/>
      <point x="1175.0" y="250.0" type="qcurve"/>
      <point x="1174.0" y="244.0" type="line"/>
      <point x="1225.0" y="248.0"/>
      <point x="1275.0" y="248.0" type="qcurve" smooth="yes"/>
      <point x="1420.0" y="248.0" type="line" smooth="yes"/>
      <point x="1495.0" y="248.0"/>
      <point x="1480.0" y="183.0" type="qcurve" smooth="yes"/>
      <point x="1453.0" y="65.0" type="line" smooth="yes"/>
      <point x="1438.0" y="0.0"/>
      <point x="1363.0" y="0.0" type="qcurve" smooth="yes"/>
      <point x="878.0" y="0.0" type="line" smooth="yes"/>
      <point x="803.0" y="0.0"/>
      <point x="818.0" y="65.0" type="qcurve" smooth="yes"/>
      <point x="835.0" y="139.0" type="line" smooth="yes"/>
      <point x="850.0" y="205.0"/>
      <point x="896.0" y="232.0" type="qcurve" smooth="yes"/>
      <point x="1002.0" y="294.0"/>
      <point x="1257.0" y="645.0"/>
      <point x="1257.0" y="906.0" type="qcurve" smooth="yes"/>
      <point x="1257.0" y="1053.0"/>
      <point x="1089.0" y="1232.0"/>
      <point x="935.0" y="1232.0" type="qcurve" smooth="yes"/>
      <point x="717.0" y="1232.0"/>
      <point x="461.0" y="861.0"/>
      <point x="461.0" y="562.0" type="qcurve" smooth="yes"/>
      <point x="461.0" y="492.0"/>
      <point x="507.0" y="296.0"/>
      <point x="594.0" y="227.0" type="qcurve" smooth="yes"/>
      <point x="629.0" y="199.0"/>
      <point x="615.0" y="139.0" type="qcurve" smooth="yes"/>
      <point x="598.0" y="65.0" type="line" smooth="yes"/>
      <point x="583.0" y="0.0"/>
      <point x="508.0" y="0.0" type="qcurve" smooth="yes"/>
    </contour>
  </outline>
</glyph>
<glyph name="afii10051" format="2">
  <advance width="1610"/>
  <unicode hex="0402"/>
  <outline>
    <contour>
      <point x="261.0" y="1178.0" type="line" smooth="yes"/>
      <point x="186.0" y="1178.0"/>
      <point x="201.0" y="1243.0" type="qcurve" smooth="yes"/>
      <point x="230.0" y="1369.0" type="line" smooth="yes"/>
      <point x="245.0" y="1434.0"/>
      <point x="320.0" y="1434.0" type="qcurve" smooth="yes"/>
      <point x="1348.0" y="1434.0" type="line" smooth="yes"/>
      <point x="1423.0" y="1434.0"/>
      <point x="1408.0" y="1369.0" type="qcurve" smooth="yes"/>
      <point x="1379.0" y="1243.0" type="line" smooth="yes"/>
      <point x="1364.0" y="1178.0"/>
      <point x="1289.0" y="1178.0" type="qcurve" smooth="yes"/>
      <point x="891.0" y="1178.0" type="line"/>
      <point x="837.0" y="943.0" type="line" smooth="yes"/>
      <point x="822.0" y="878.0"/>
      <point x="804.0" y="823.0" type="qcurve"/>
      <point x="811.0" y="823.0" type="line"/>
      <point x="892.0" y="868.0"/>
      <point x="1050.0" y="910.0"/>
      <point x="1123.0" y="910.0" type="qcurve" smooth="yes"/>
      <point x="1308.0" y="910.0"/>
      <point x="1505.0" y="675.0"/>
      <point x="1505.0" y="490.0" type="qcurve" smooth="yes"/>
      <point x="1505.0" y="268.0"/>
      <point x="1266.0" y="-34.0"/>
      <point x="1017.0" y="-34.0" type="qcurve" smooth="yes"/>
      <point x="919.0" y="-34.0"/>
      <point x="860.0" y="-16.0" type="qcurve" smooth="yes"/>
      <point x="792.0" y="4.0"/>
      <point x="811.0" y="50.0" type="qcurve" smooth="yes"/>
      <point x="861.0" y="170.0" type="line" smooth="yes"/>
      <point x="883.0" y="223.0"/>
      <point x="920.0" y="212.0" type="qcurve" smooth="yes"/>
      <point x="955.0" y="202.0"/>
      <point x="1008.0" y="202.0" type="qcurve" smooth="yes"/>
      <point x="1106.0" y="202.0"/>
      <point x="1193.0" y="382.0"/>
      <point x="1193.0" y="472.0" type="qcurve" smooth="yes"/>
      <point x="1193.0" y="564.0"/>
      <point x="1112.0" y="674.0"/>
      <point x="1007.0" y="674.0" type="qcurve" smooth="yes"/>
      <point x="960.0" y="674.0"/>
      <point x="847.0" y="648.0"/>
      <point x="757.0" y="599.0" type="qcurve"/>
      <point x="632.0" y="55.0" type="line" smooth="yes"/>
      <point x="619.0" y="0.0"/>
      <point x="569.0" y="0.0" type="qcurve" smooth="yes"/>
      <point x="377.0" y="0.0" type="line" smooth="yes"/>
      <point x="327.0" y="0.0"/>
      <point x="340.0" y="55.0" type="qcurve" smooth="yes"/>
      <point x="599.0" y="1178.0" type="line"/>
    </contour>
  </outline>
</glyph>
<glyph name="afii10021" format="2">
  <advance width="1538"/>
  <unicode hex="0414"/>
  <outline>
    <contour>
      <point x="-85.0" y="-370.0" type="line" smooth="yes"/>
      <point x="-145.0" y="-370.0"/>
      <point x="-129.0" y="-300.0" type="qcurve" smooth="yes"/>
      <point x="-20.0" y="173.0" type="line" smooth="yes"/>
      <point x="-3.0" y="248.0"/>
      <point x="87.0" y="248.0" type="qcurve" smooth="yes"/>
      <point x="130.0" y="248.0" type="line"/>
      <point x="294.0" y="381.0"/>
      <point x="480.0" y="779.0"/>
      <point x="554.0" y="1100.0" type="qcurve" smooth="yes"/>
      <point x="614.0" y="1359.0" type="line" smooth="yes"/>
      <point x="631.0" y="1434.0"/>
      <point x="701.0" y="1434.0" type="qcurve" smooth="yes"/>
      <point x="1429.0" y="1434.0" type="line" smooth="yes"/>
      <point x="1499.0" y="1434.0"/>
      <point x="1482.0" y="1359.0" type="qcurve" smooth="yes"/>
      <point x="1225.0" y="248.0" type="line"/>
      <point x="1325.0" y="248.0" type="line" smooth="yes"/>
      <point x="1415.0" y="248.0"/>
      <point x="1398.0" y="173.0" type="qcurve" smooth="yes"/>
      <point x="1289.0" y="-300.0" type="line" smooth="yes"/>
      <point x="1273.0" y="-370.0"/>
      <point x="1213.0" y="-370.0" type="qcurve" smooth="yes"/>
      <point x="1083.0" y="-370.0" type="line" smooth="yes"/>
      <point x="1023.0" y="-370.0"/>
      <point x="1039.0" y="-300.0" type="qcurve" smooth="yes"/>
      <point x="1108.0" y="0.0" type="line"/>
      <point x="190.0" y="0.0" type="line"/>
      <point x="121.0" y="-300.0" type="line" smooth="yes"/>
      <point x="105.0" y="-370.0"/>
      <point x="45.0" y="-370.0" type="qcurve" smooth="yes"/>
    </contour>
    <contour>
      <point x="442.0" y="248.0" type="qcurve"/>
      <point x="933.0" y="248.0" type="line"/>
      <point x="1150.0" y="1186.0" type="line"/>
      <point x="824.0" y="1186.0" type="line"/>
      <point x="791.0" y="1044.0" type="line" smooth="yes"/>
      <point x="702.0" y="663.0"/>
      <point x="534.0" y="303.0"/>
    </contour>
  </outline>
</glyph>
<glyph name="afii10028" format="2">
  <advance width="1348"/>
  <unicode hex="041A"/>
  <outline>
    <contour>
      <point x="110.0" y="0.0" type="line" smooth="yes"/>
      <point x="40.0" y="0.0"/>
      <point x="57.0" y="75.0" type="qcurve" smooth="yes"/>
      <point x="354.0" y="1359.0" type="line" smooth="yes"/>
      <point x="371.0" y="1434.0"/>
      <point x="441.0" y="1434.0" type="qcurve" smooth="yes"/>
      <point x="593.0" y="1434.0" type="line" smooth="yes"/>
      <point x="663.0" y="1434.0"/>
      <point x="646.0" y="1359.0" type="qcurve" smooth="yes"/>
      <point x="529.0" y="855.0" type="line"/>
      <point x="549.0" y="855.0" type="line" smooth="yes"/>
      <point x="615.0" y="855.0"/>
      <point x="768.0" y="966.0"/>
      <point x="842.0" y="1050.0" type="qcurve" smooth="yes"/>
      <point x="1127.0" y="1375.0" type="line" smooth="yes"/>
      <point x="1179.0" y="1434.0"/>
      <point x="1231.0" y="1434.0" type="qcurve" smooth="yes"/>
      <point x="1432.0" y="1434.0" type="line" smooth="yes"/>
      <point x="1529.0" y="1434.0"/>
      <point x="1450.0" y="1348.0" type="qcurve" smooth="yes"/>
      <point x="1090.0" y="954.0" type="line" smooth="yes"/>
      <point x="1024.0" y="882.0"/>
      <point x="904.0" y="783.0"/>
      <point x="820.0" y="735.0" type="qcurve"/>
      <point x="819.0" y="734.0" type="line"/>
      <point x="888.0" y="705.0"/>
      <point x="998.0" y="573.0"/>
      <point x="1035.0" y="480.0" type="qcurve" smooth="yes"/>
      <point x="1190.0" y="86.0" type="line" smooth="yes"/>
      <point x="1224.0" y="0.0"/>
      <point x="1132.0" y="0.0" type="qcurve" smooth="yes"/>
      <point x="969.0" y="0.0" type="line" smooth="yes"/>
      <point x="914.0" y="0.0"/>
      <point x="893.0" y="59.0" type="qcurve" smooth="yes"/>
      <point x="779.0" y="384.0" type="line" smooth="yes"/>
      <point x="752.0" y="462.0"/>
      <point x="624.0" y="611.0"/>
      <point x="528.0" y="611.0" type="qcurve" smooth="yes"/>
      <point x="473.0" y="611.0" type="line"/>
      <point x="349.0" y="75.0" type="line" smooth="yes"/>
      <point x="332.0" y="0.0"/>
      <point x="262.0" y="0.0" type="qcurve" smooth="yes"/>
    </contour>
  </outline>
</glyph>
<glyph name="afii10037" format="2">
  <advance width="1382"/>
  <unicode hex="0423"/>
  <outline>
    <contour>
      <point x="253.0" y="1348.0" type="line" smooth="yes"/>
      <point x="228.0" y="1434.0"/>
      <point x="320.0" y="1434.0" type="qcurve" smooth="yes"/>
      <point x="470.0" y="1434.0" type="line" smooth="yes"/>
      <point x="529.0" y="1434.0"/>
      <point x="546.0" y="1365.0" type="qcurve" smooth="yes"/>
      <point x="698.0" y="754.0" type="line" smooth="yes"/>
      <point x="710.0" y="706.0"/>
      <point x="724.0" y="596.0"/>
      <point x="726.0" y="526.0" type="qcurve"/>
      <point x="730.0" y="526.0" type="line"/>
      <point x="752.0" y="600.0"/>
      <point x="805.0" y="703.0"/>
      <point x="834.0" y="754.0" type="qcurve" smooth="yes"/>
      <point x="1184.0" y="1365.0" type="line" smooth="yes"/>
      <point x="1224.0" y="1434.0"/>
      <point x="1292.0" y="1434.0" type="qcurve" smooth="yes"/>
      <point x="1476.0" y="1434.0" type="line" smooth="yes"/>
      <point x="1558.0" y="1434.0"/>
      <point x="1503.0" y="1348.0" type="qcurve" smooth="yes"/>
      <point x="851.0" y="331.0" type="line" smooth="yes"/>
      <point x="680.0" y="64.0"/>
      <point x="456.0" y="-34.0"/>
      <point x="313.0" y="-34.0" type="qcurve" smooth="yes"/>
      <point x="196.0" y="-34.0"/>
      <point x="126.0" y="0.0" type="qcurve" smooth="yes"/>
      <point x="79.0" y="23.0"/>
      <point x="98.0" y="78.0" type="qcurve" smooth="yes"/>
      <point x="143.0" y="206.0" type="line" smooth="yes"/>
      <point x="160.0" y="254.0"/>
      <point x="221.0" y="226.0" type="qcurve" smooth="yes"/>
      <point x="275.0" y="202.0"/>
      <point x="338.0" y="202.0" type="qcurve" smooth="yes"/>
      <point x="386.0" y="202.0"/>
      <point x="485.0" y="229.0"/>
      <point x="526.0" y="291.0" type="qcurve" smooth="yes"/>
      <point x="548.0" y="324.0" type="line"/>
    </contour>
  </outline>
</glyph>
<glyph name="afii10038" format="2">
  <advance width="1838"/>
  <unicode hex="0424"/>
  <outline>
    <contour>
      <point x="121.0" y="648.0" type="qcurve" smooth="yes"/>
      <point x="121.0" y="914.0"/>
      <point x="520.0" y="1300.0"/>
      <point x="910.0" y="1300.0" type="qcurve" smooth="yes"/>
      <point x="953.0" y="1300.0" type="line"/>
      <point x="969.0" y="1367.0" type="line" smooth="yes"/>
      <point x="987.0" y="1442.0"/>
      <point x="1056.0" y="1442.0" type="qcurve" smooth="yes"/>
      <point x="1208.0" y="1442.0" type="line" smooth="yes"/>
      <point x="1279.0" y="1442.0"/>
      <point x="1261.0" y="1367.0" type="qcurve" smooth="yes"/>
      <point x="1245.0" y="1300.0" type="line"/>
      <point x="1288.0" y="1300.0" type="line" smooth="yes"/>
      <point x="1568.0" y="1300.0"/>
      <point x="1814.0" y="1068.0"/>
      <point x="1814.0" y="812.0" type="qcurve" smooth="yes"/>
      <point x="1814.0" y="546.0"/>
      <point x="1415.0" y="160.0"/>
      <point x="1025.0" y="160.0" type="qcurve" smooth="yes"/>
      <point x="982.0" y="160.0" type="line"/>
      <point x="959.0" y="60.0" type="line" smooth="yes"/>
      <point x="942.0" y="-15.0"/>
      <point x="872.0" y="-15.0" type="qcurve" smooth="yes"/>
      <point x="720.0" y="-15.0" type="line" smooth="yes"/>
      <point x="650.0" y="-15.0"/>
      <point x="667.0" y="60.0" type="qcurve" smooth="yes"/>
      <point x="690.0" y="160.0" type="line"/>
      <point x="647.0" y="160.0" type="line" smooth="yes"/>
      <point x="367.0" y="160.0"/>
      <point x="121.0" y="392.0"/>
    </contour>
    <contour>
      <point x="423.0" y="632.0" type="qcurve" smooth="yes"/>
      <point x="423.0" y="520.0"/>
      <point x="537.0" y="390.0"/>
      <point x="713.0" y="390.0" type="qcurve" smooth="yes"/>
      <point x="743.0" y="390.0" type="line"/>
      <point x="900.0" y="1070.0" type="line"/>
      <point x="870.0" y="1070.0" type="line" smooth="yes"/>
      <point x="622.0" y="1070.0"/>
      <point x="423.0" y="797.0"/>
    </contour>
    <contour>
      <point x="1035.0" y="390.0" type="line"/>
      <point x="1065.0" y="390.0" type="line" smooth="yes"/>
      <point x="1313.0" y="390.0"/>
      <point x="1512.0" y="663.0"/>
      <point x="1512.0" y="828.0" type="qcurve" smooth="yes"/>
      <point x="1512.0" y="940.0"/>
      <point x="1398.0" y="1070.0"/>
      <point x="1222.0" y="1070.0" type="qcurve" smooth="yes"/>
      <point x="1192.0" y="1070.0" type="line"/>
    </contour>
  </outline>
</glyph>
<glyph name="afii10040" format="2">
  <advance width="1522"/>
  <unicode hex="0426"/>
  <outline>
    <contour>
      <point x="110.0" y="0.0" type="line" smooth="yes"/>
      <point x="40.0" y="0.0"/>
      <point x="57.0" y="75.0" type="qcurve" smooth="yes"/>
      <point x="354.0" y="1359.0" type="line" smooth="yes"/>
      <point x="371.0" y="1434.0"/>
      <point x="441.0" y="1434.0" type="qcurve" smooth="yes"/>
      <point x="593.0" y="1434.0" type="line" smooth="yes"/>
      <point x="663.0" y="1434.0"/>
      <point x="646.0" y="1359.0" type="qcurve" smooth="yes"/>
      <point x="389.0" y="248.0" type="line"/>
      <point x="915.0" y="248.0" type="line"/>
      <point x="1172.0" y="1359.0" type="line" smooth="yes"/>
      <point x="1189.0" y="1434.0"/>
      <point x="1259.0" y="1434.0" type="qcurve" smooth="yes"/>
      <point x="1411.0" y="1434.0" type="line" smooth="yes"/>
      <point x="1481.0" y="1434.0"/>
      <point x="1464.0" y="1359.0" type="qcurve" smooth="yes"/>
      <point x="1207.0" y="248.0" type="line"/>
      <point x="1329.0" y="248.0" type="line" smooth="yes"/>
      <point x="1399.0" y="248.0"/>
      <point x="1382.0" y="173.0" type="qcurve" smooth="yes"/>
      <point x="1273.0" y="-300.0" type="line" smooth="yes"/>
      <point x="1257.0" y="-370.0"/>
      <point x="1197.0" y="-370.0" type="qcurve" smooth="yes"/>
      <point x="1067.0" y="-370.0" type="line" smooth="yes"/>
      <point x="1007.0" y="-370.0"/>
      <point x="1023.0" y="-300.0" type="qcurve" smooth="yes"/>
      <point x="1092.0" y="0.0" type="line"/>
    </contour>
  </outline>
</glyph>
<glyph name="afii10042" format="2">
  <advance width="2140"/>
  <unicode hex="0428"/>
  <outline>
    <contour>
      <point x="110.0" y="0.0" type="line" smooth="yes"/>
      <point x="40.0" y="0.0"/>
      <point x="57.0" y="75.0" type="qcurve" smooth="yes"/>
      <point x="354.0" y="1359.0" type="line" smooth="yes"/>
      <point x="371.0" y="1434.0"/>
      <point x="441.0" y="1434.0" type="qcurve" smooth="yes"/>
      <point x="593.0" y="1434.0" type="line" smooth="yes"/>
      <point x="663.0" y="1434.0"/>
      <point x="646.0" y="1359.0" type="qcurve" smooth="yes"/>
      <point x="389.0" y="248.0" type="line"/>
      <point x="861.0" y="248.0" type="line"/>
      <point x="1118.0" y="1359.0" type="line" smooth="yes"/>
      <point x="1135.0" y="1434.0"/>
      <point x="1205.0" y="1434.0" type="qcurve" smooth="yes"/>
      <point x="1357.0" y="1434.0" type="line" smooth="yes"/>
      <point x="1427.0" y="1434.0"/>
      <point x="1410.0" y="1359.0" type="qcurve" smooth="yes"/>
      <point x="1153.0" y="248.0" type="line"/>
      <point x="1625.0" y="248.0" type="line"/>
      <point x="1882.0" y="1359.0" type="line" smooth="yes"/>
      <point x="1899.0" y="1434.0"/>
      <point x="1969.0" y="1434.0" type="qcurve" smooth="yes"/>
      <point x="2121.0" y="1434.0" type="line" smooth="yes"/>
      <point x="2191.0" y="1434.0"/>
      <point x="2174.0" y="1359.0" type="qcurve" smooth="yes"/>
      <point x="1877.0" y="75.0" type="line" smooth="yes"/>
      <point x="1860.0" y="0.0"/>
      <point x="1790.0" y="0.0" type="qcurve" smooth="yes"/>
    </contour>
  </outline>
</glyph>
<glyph name="afii10044" format="2">
  <advance width="1746"/>
  <unicode hex="042A"/>
  <outline>
    <contour>
      <point x="263.0" y="1186.0" type="line" smooth="yes"/>
      <point x="188.0" y="1186.0"/>
      <point x="203.0" y="1251.0" type="qcurve" smooth="yes"/>
      <point x="230.0" y="1369.0" type="line" smooth="yes"/>
      <point x="245.0" y="1434.0"/>
      <point x="320.0" y="1434.0" type="qcurve" smooth="yes"/>
      <point x="989.0" y="1434.0" type="line" smooth="yes"/>
      <point x="1059.0" y="1434.0"/>
      <point x="1042.0" y="1359.0" type="qcurve" smooth="yes"/>
      <point x="929.0" y="870.0" type="line"/>
      <point x="1064.0" y="870.0" type="line" smooth="yes"/>
      <point x="1396.0" y="870.0"/>
      <point x="1631.0" y="640.0"/>
      <point x="1631.0" y="474.0" type="qcurve" smooth="yes"/>
      <point x="1631.0" y="267.0"/>
      <point x="1268.0" y="0.0"/>
      <point x="903.0" y="0.0" type="qcurve" smooth="yes"/>
      <point x="506.0" y="0.0" type="line" smooth="yes"/>
      <point x="436.0" y="0.0"/>
      <point x="453.0" y="75.0" type="qcurve" smooth="yes"/>
      <point x="710.0" y="1186.0" type="line"/>
    </contour>
    <contour>
      <point x="784.0" y="244.0" type="line"/>
      <point x="930.0" y="244.0" type="line" smooth="yes"/>
      <point x="1120.0" y="244.0"/>
      <point x="1319.0" y="332.0"/>
      <point x="1319.0" y="457.0" type="qcurve" smooth="yes"/>
      <point x="1319.0" y="555.0"/>
      <point x="1188.0" y="626.0"/>
      <point x="979.0" y="626.0" type="qcurve" smooth="yes"/>
      <point x="873.0" y="626.0" type="line"/>
    </contour>
  </outline>
</glyph>
<glyph name="afii10046" format="2">
  <advance width="1350"/>
  <unicode hex="042C"/>
  <outline>
    <contour>
      <point x="110.0" y="0.0" type="line" smooth="yes"/>
      <point x="40.0" y="0.0"/>
      <point x="57.0" y="75.0" type="qcurve" smooth="yes"/>
      <point x="354.0" y="1359.0" type="line" smooth="yes"/>
      <point x="371.0" y="1434.0"/>
      <point x="441.0" y="1434.0" type="qcurve" smooth="yes"/>
      <point x="593.0" y="1434.0" type="line" smooth="yes"/>
      <point x="663.0" y="1434.0"/>
      <point x="646.0" y="1359.0" type="qcurve" smooth="yes"/>
      <point x="533.0" y="870.0" type="line"/>
      <point x="668.0" y="870.0" type="line" smooth="yes"/>
      <point x="1000.0" y="870.0"/>
      <point x="1235.0" y="640.0"/>
      <point x="1235.0" y="474.0" type="qcurve" smooth="yes"/>
      <point x="1235.0" y="267.0"/>
      <point x="872.0" y="0.0"/>
      <point x="507.0" y="0.0" type="qcurve" smooth="yes"/>
    </contour>
    <contour>
      <point x="388.0" y="244.0" type="line"/>
      <point x="534.0" y="244.0" type="line" smooth="yes"/>
      <point x="724.0" y="244.0"/>
      <point x="923.0" y="332.0"/>
      <point x="923.0" y="457.0" type="qcurve" smooth="yes"/>
      <point x="923.0" y="555.0"/>
      <point x="792.0" y="626.0"/>
      <point x="583.0" y="626.0" type="qcurve" smooth="yes"/>
      <point x="477.0" y="626.0" type="line"/>
    </contour>
  </outline>
</glyph>
<glyph name="afii10047" format="2">
  <advance width="1388"/>
  <unicode hex="042D"/>
  <outline>
    <contour>
      <point x="86.0" y="156.0" type="qcurve" smooth="yes"/>
      <point x="41.0" y="225.0"/>
      <point x="91.0" y="268.0" type="qcurve" smooth="yes"/>
      <point x="176.0" y="342.0" type="line" smooth="yes"/>
      <point x="229.0" y="388.0"/>
      <point x="293.0" y="318.0" type="qcurve" smooth="yes"/>
      <point x="347.0" y="258.0"/>
      <point x="522.0" y="202.0"/>
      <point x="594.0" y="202.0" type="qcurve" smooth="yes"/>
      <point x="801.0" y="202.0"/>
      <point x="1014.0" y="456.0"/>
      <point x="1044.0" y="622.0" type="qcurve"/>
      <point x="523.0" y="622.0" type="line" smooth="yes"/>
      <point x="448.0" y="622.0"/>
      <point x="463.0" y="687.0" type="qcurve" smooth="yes"/>
      <point x="490.0" y="805.0" type="line" smooth="yes"/>
      <point x="505.0" y="870.0"/>
      <point x="580.0" y="870.0" type="qcurve" smooth="yes"/>
      <point x="1067.0" y="870.0" type="line"/>
      <point x="1067.0" y="1053.0"/>
      <point x="906.0" y="1232.0"/>
      <point x="724.0" y="1232.0" type="qcurve" smooth="yes"/>
      <point x="624.0" y="1232.0"/>
      <point x="465.0" y="1167.0"/>
      <point x="407.0" y="1107.0" type="qcurve" smooth="yes"/>
      <point x="363.0" y="1062.0"/>
      <point x="320.0" y="1095.0" type="qcurve" smooth="yes"/>
      <point x="221.0" y="1172.0" type="line" smooth="yes"/>
      <point x="161.0" y="1219.0"/>
      <point x="203.0" y="1270.0" type="qcurve" smooth="yes"/>
      <point x="293.0" y="1378.0"/>
      <point x="582.0" y="1468.0"/>
      <point x="747.0" y="1468.0" type="qcurve" smooth="yes"/>
      <point x="1066.0" y="1468.0"/>
      <point x="1374.0" y="1149.0"/>
      <point x="1374.0" y="846.0" type="qcurve" smooth="yes"/>
      <point x="1374.0" y="474.0"/>
      <point x="975.0" y="-34.0"/>
      <point x="570.0" y="-34.0" type="qcurve" smooth="yes"/>
      <point x="380.0" y="-34.0"/>
      <point x="149.0" y="58.0"/>
    </contour>
  </outline>
</glyph>
<glyph name="afii10048" format="2">
  <advance width="2096"/>
  <unicode hex="042E"/>
  <outline>
    <contour>
      <point x="110.0" y="0.0" type="line" smooth="yes"/>
      <point x="40.0" y="0.0"/>
      <point x="57.0" y="75.0" type="qcurve" smooth="yes"/>
      <point x="354.0" y="1359.0" type="line" smooth="yes"/>
      <point x="371.0" y="1434.0"/>
      <point x="441.0" y="1434.0" type="qcurve" smooth="yes"/>
      <point x="593.0" y="1434.0" type="line" smooth="yes"/>
      <point x="663.0" y="1434.0"/>
      <point x="646.0" y="1359.0" type="qcurve" smooth="yes"/>
      <point x="533.0" y="870.0" type="line"/>
      <point x="703.0" y="870.0" type="line"/>
      <point x="746.0" y="1068.0"/>
      <point x="1122.0" y="1468.0"/>
      <point x="1444.0" y="1468.0" type="qcurve" smooth="yes"/>
      <point x="1744.0" y="1468.0"/>
      <point x="2082.0" y="1157.0"/>
      <point x="2082.0" y="847.0" type="qcurve" smooth="yes"/>
      <point x="2082.0" y="477.0"/>
      <point x="1656.0" y="-34.0"/>
      <point x="1306.0" y="-34.0" type="qcurve" smooth="yes"/>
      <point x="1006.0" y="-34.0"/>
      <point x="668.0" y="277.0"/>
      <point x="668.0" y="587.0" type="qcurve" smooth="yes"/>
      <point x="668.0" y="605.0"/>
      <point x="669.0" y="622.0" type="qcurve"/>
      <point x="476.0" y="622.0" type="line"/>
      <point x="349.0" y="75.0" type="line" smooth="yes"/>
      <point x="332.0" y="0.0"/>
      <point x="262.0" y="0.0" type="qcurve" smooth="yes"/>
    </contour>
    <contour>
      <point x="980.0" y="545.0" type="qcurve" smooth="yes"/>
      <point x="980.0" y="385.0"/>
      <point x="1150.0" y="202.0"/>
      <point x="1320.0" y="202.0" type="qcurve" smooth="yes"/>
      <point x="1520.0" y="202.0"/>
      <point x="1770.0" y="579.0"/>
      <point x="1770.0" y="889.0" type="qcurve" smooth="yes"/>
      <point x="1770.0" y="1049.0"/>
      <point x="1600.0" y="1232.0"/>
      <point x="1430.0" y="1232.0" type="qcurve" smooth="yes"/>
      <point x="1230.0" y="1232.0"/>
      <point x="980.0" y="855.0"/>
    </contour>
  </outline>
</glyph>
<glyph name="afii10068" format="2">
  <advance width="980"/>
  <unicode hex="0433"/>
  <outline>
    <contour>
      <point x="33.0" y="253.0" type="qcurve" smooth="yes"/>
      <point x="33.0" y="331.0"/>
      <point x="88.0" y="438.0"/>
      <point x="215.0" y="536.0"/>
      <point x="299.0" y="570.0" type="qcurve" smooth="yes"/>
      <point x="378.0" y="602.0"/>
      <point x="501.0" y="652.0"/>
      <point x="549.0" y="673.0" type="qcurve" smooth="yes"/>
      <point x="586.0" y="689.0"/>
      <point x="625.0" y="732.0"/>
      <point x="635.0" y="769.0"/>
      <point x="635.0" y="794.0" type="qcurve" smooth="yes"/>
      <point x="635.0" y="815.0"/>
      <point x="612.0" y="854.0"/>
      <point x="570.0" y="874.0"/>
      <point x="522.0" y="874.0" type="qcurve" smooth="yes"/>
      <point x="469.0" y="874.0"/>
      <point x="358.0" y="844.0"/>
      <point x="311.0" y="816.0" type="qcurve" smooth="yes"/>
      <point x="260.0" y="785.0"/>
      <point x="234.0" y="824.0" type="qcurve" smooth="yes"/>
      <point x="181.0" y="904.0" type="line" smooth="yes"/>
      <point x="156.0" y="942.0"/>
      <point x="193.0" y="968.0" type="qcurve" smooth="yes"/>
      <point x="255.0" y="1012.0"/>
      <point x="475.0" y="1070.0"/>
      <point x="588.0" y="1070.0" type="qcurve" smooth="yes"/>
      <point x="698.0" y="1070.0"/>
      <point x="844.0" y="1010.0"/>
      <point x="915.0" y="882.0"/>
      <point x="915.0" y="801.0" type="qcurve" smooth="yes"/>
      <point x="915.0" y="722.0"/>
      <point x="854.0" y="610.0"/>
      <point x="752.0" y="534.0"/>
      <point x="651.0" y="492.0" type="qcurve" smooth="yes"/>
      <point x="585.0" y="464.0"/>
      <point x="488.0" y="426.0"/>
      <point x="429.0" y="400.0" type="qcurve" smooth="yes"/>
      <point x="384.0" y="380.0"/>
      <point x="344.0" y="348.0"/>
      <point x="329.0" y="307.0"/>
      <point x="329.0" y="282.0" type="qcurve" smooth="yes"/>
      <point x="329.0" y="259.0"/>
      <point x="352.0" y="207.0"/>
      <point x="408.0" y="176.0"/>
      <point x="465.0" y="176.0" type="qcurve" smooth="yes"/>
      <point x="520.0" y="176.0"/>
      <point x="687.0" y="234.0"/>
      <point x="733.0" y="262.0" type="qcurve" smooth="yes"/>
      <point x="785.0" y="293.0"/>
      <point x="805.0" y="262.0" type="qcurve" smooth="yes"/>
      <point x="863.0" y="174.0" type="line" smooth="yes"/>
      <point x="898.0" y="121.0"/>
      <point x="857.0" y="98.0" type="qcurve" smooth="yes"/>
      <point x="760.0" y="42.0"/>
      <point x="549.0" y="-20.0"/>
      <point x="423.0" y="-20.0" type="qcurve" smooth="yes"/>
      <point x="262.0" y="-20.0"/>
      <point x="109.0" y="66.0"/>
      <point x="33.0" y="178.0"/>
    </contour>
  </outline>
</glyph>
<glyph name="afii10073" format="2">
  <advance width="1038"/>
  <unicode hex="0437"/>
  <outline>
    <contour>
      <point x="72.0" y="102.0" type="qcurve" smooth="yes"/>
      <point x="25.0" y="149.0"/>
      <point x="65.0" y="184.0" type="qcurve" smooth="yes"/>
      <point x="153.0" y="263.0" type="line" smooth="yes"/>
      <point x="206.0" y="311.0"/>
      <point x="248.0" y="266.0" type="qcurve" smooth="yes"/>
      <point x="278.0" y="234.0"/>
      <point x="350.0" y="176.0"/>
      <point x="430.0" y="176.0" type="qcurve" smooth="yes"/>
      <point x="524.0" y="176.0"/>
      <point x="615.0" y="284.0"/>
      <point x="615.0" y="337.0" type="qcurve" smooth="yes"/>
      <point x="615.0" y="380.0"/>
      <point x="560.0" y="448.0"/>
      <point x="475.0" y="448.0" type="qcurve" smooth="yes"/>
      <point x="335.0" y="448.0" type="line" smooth="yes"/>
      <point x="274.0" y="448.0"/>
      <point x="286.0" y="498.0" type="qcurve" smooth="yes"/>
      <point x="310.0" y="598.0" type="line" smooth="yes"/>
      <point x="322.0" y="648.0"/>
      <point x="381.0" y="648.0" type="qcurve" smooth="yes"/>
      <point x="513.0" y="648.0" type="line" smooth="yes"/>
      <point x="596.0" y="648.0"/>
      <point x="695.0" y="724.0"/>
      <point x="695.0" y="777.0" type="qcurve" smooth="yes"/>
      <point x="695.0" y="829.0"/>
      <point x="592.0" y="874.0"/>
      <point x="518.0" y="874.0" type="qcurve" smooth="yes"/>
      <point x="454.0" y="874.0"/>
      <point x="368.0" y="840.0"/>
      <point x="325.0" y="807.0" type="qcurve" smooth="yes"/>
      <point x="277.0" y="770.0"/>
      <point x="248.0" y="810.0" type="qcurve" smooth="yes"/>
      <point x="180.0" y="905.0" type="line" smooth="yes"/>
      <point x="147.0" y="951.0"/>
      <point x="187.0" y="980.0" type="qcurve" smooth="yes"/>
      <point x="234.0" y="1014.0"/>
      <point x="404.0" y="1070.0"/>
      <point x="536.0" y="1070.0" type="qcurve" smooth="yes"/>
      <point x="740.0" y="1070.0"/>
      <point x="969.0" y="941.0"/>
      <point x="969.0" y="822.0" type="qcurve" smooth="yes"/>
      <point x="969.0" y="725.0"/>
      <point x="840.0" y="586.0"/>
      <point x="750.0" y="559.0" type="qcurve"/>
      <point x="749.0" y="556.0" type="line"/>
      <point x="854.0" y="506.0"/>
      <point x="911.0" y="402.0"/>
      <point x="911.0" y="342.0" type="qcurve" smooth="yes"/>
      <point x="911.0" y="187.0"/>
      <point x="638.0" y="-20.0"/>
      <point x="410.0" y="-20.0" type="qcurve" smooth="yes"/>
      <point x="268.0" y="-20.0"/>
      <point x="116.0" y="58.0"/>
    </contour>
  </outline>
</glyph>
<glyph name="afii10078" format="2">
  <advance width="1500"/>
  <unicode hex="043C"/>
  <outline>
    <contour>
      <point x="76.0" y="0.0" type="line" smooth="yes"/>
      <point x="16.0" y="0.0"/>
      <point x="30.0" y="60.0" type="qcurve" smooth="yes"/>
      <point x="245.0" y="990.0" type="line" smooth="yes"/>
      <point x="259.0" y="1050.0"/>
      <point x="318.0" y="1050.0" type="qcurve" smooth="yes"/>
      <point x="571.0" y="1050.0" type="line" smooth="yes"/>
      <point x="637.0" y="1050.0"/>
      <point x="641.0" y="985.0" type="qcurve" smooth="yes"/>
      <point x="676.0" y="383.0" type="line" smooth="yes"/>
      <point x="678.0" y="348.0"/>
      <point x="675.0" y="253.0"/>
      <point x="668.0" y="224.0" type="qcurve"/>
      <point x="672.0" y="224.0" type="line"/>
      <point x="679.0" y="253.0"/>
      <point x="717.0" y="343.0"/>
      <point x="738.0" y="383.0" type="qcurve" smooth="yes"/>
      <point x="1047.0" y="985.0" type="line" smooth="yes"/>
      <point x="1080.0" y="1050.0"/>
      <point x="1147.0" y="1050.0" type="qcurve" smooth="yes"/>
      <point x="1426.0" y="1050.0" type="line" smooth="yes"/>
      <point x="1487.0" y="1050.0"/>
      <point x="1473.0" y="990.0" type="qcurve" smooth="yes"/>
      <point x="1258.0" y="60.0" type="line" smooth="yes"/>
      <point x="1244.0" y="0.0"/>
      <point x="1184.0" y="0.0" type="qcurve" smooth="yes"/>
      <point x="1024.0" y="0.0" type="line" smooth="yes"/>
      <point x="964.0" y="0.0"/>
      <point x="978.0" y="60.0" type="qcurve" smooth="yes"/>
      <point x="1094.0" y="565.0" type="line" smooth="yes"/>
      <point x="1103.0" y="604.0"/>
      <point x="1123.0" y="645.0" type="qcurve"/>
      <point x="1113.0" y="645.0" type="line"/>
      <point x="805.0" y="61.0" type="line" smooth="yes"/>
      <point x="773.0" y="0.0"/>
      <point x="737.0" y="0.0" type="qcurve" smooth="yes"/>
      <point x="523.0" y="0.0" type="line" smooth="yes"/>
      <point x="487.0" y="0.0"/>
      <point x="483.0" y="61.0" type="qcurve" smooth="yes"/>
      <point x="445.0" y="645.0" type="line"/>
      <point x="435.0" y="645.0" type="line"/>
      <point x="435.0" y="604.0"/>
      <point x="426.0" y="565.0" type="qcurve" smooth="yes"/>
      <point x="310.0" y="60.0" type="line" smooth="yes"/>
      <point x="296.0" y="0.0"/>
      <point x="236.0" y="0.0" type="qcurve" smooth="yes"/>
    </contour>
  </outline>
</glyph>
<glyph name="afii10091" format="2">
  <advance width="1812"/>
  <unicode hex="0449"/>
  <outline>
    <contour>
      <point x="118.0" y="450.0" type="qcurve" smooth="yes"/>
      <point x="243.0" y="990.0" type="line" smooth="yes"/>
      <point x="257.0" y="1050.0"/>
      <point x="317.0" y="1050.0" type="qcurve" smooth="yes"/>
      <point x="477.0" y="1050.0" type="line" smooth="yes"/>
      <point x="537.0" y="1050.0"/>
      <point x="523.0" y="990.0" type="qcurve" smooth="yes"/>
      <point x="417.0" y="530.0" type="line" smooth="yes"/>
      <point x="374.0" y="343.0"/>
      <point x="394.0" y="176.0"/>
      <point x="469.0" y="176.0" type="qcurve" smooth="yes"/>
      <point x="539.0" y="176.0"/>
      <point x="693.0" y="340.0"/>
      <point x="762.0" y="638.0" type="qcurve" smooth="yes"/>
      <point x="843.0" y="990.0" type="line" smooth="yes"/>
      <point x="857.0" y="1050.0"/>
      <point x="917.0" y="1050.0" type="qcurve" smooth="yes"/>
      <point x="1077.0" y="1050.0" type="line" smooth="yes"/>
      <point x="1137.0" y="1050.0"/>
      <point x="1123.0" y="990.0" type="qcurve" smooth="yes"/>
      <point x="1022.0" y="550.0" type="line" smooth="yes"/>
      <point x="975.0" y="345.0"/>
      <point x="994.0" y="176.0"/>
      <point x="1069.0" y="176.0" type="qcurve" smooth="yes"/>
      <point x="1138.0" y="176.0"/>
      <point x="1306.0" y="397.0"/>
      <point x="1362.0" y="638.0" type="qcurve" smooth="yes"/>
      <point x="1443.0" y="990.0" type="line" smooth="yes"/>
      <point x="1457.0" y="1050.0"/>
      <point x="1517.0" y="1050.0" type="qcurve" smooth="yes"/>
      <point x="1677.0" y="1050.0" type="line" smooth="yes"/>
      <point x="1737.0" y="1050.0"/>
      <point x="1723.0" y="990.0" type="qcurve" smooth="yes"/>
      <point x="1569.0" y="325.0" type="line" smooth="yes"/>
      <point x="1558.0" y="279.0"/>
      <point x="1558.0" y="200.0"/>
      <point x="1604.0" y="200.0" type="qcurve" smooth="yes"/>
      <point x="1626.0" y="200.0" type="line" smooth="yes"/>
      <point x="1686.0" y="200.0"/>
      <point x="1672.0" y="140.0" type="qcurve" smooth="yes"/>
      <point x="1573.0" y="-290.0" type="line" smooth="yes"/>
      <point x="1559.0" y="-350.0"/>
      <point x="1504.0" y="-350.0" type="qcurve" smooth="yes"/>
      <point x="1384.0" y="-350.0" type="line" smooth="yes"/>
      <point x="1329.0" y="-350.0"/>
      <point x="1343.0" y="-290.0" type="qcurve" smooth="yes"/>
      <point x="1410.0" y="0.0" type="line"/>
      <point x="1398.0" y="0.0" type="line" smooth="yes"/>
      <point x="1344.0" y="0.0"/>
      <point x="1263.0" y="67.0"/>
      <point x="1251.0" y="150.0" type="qcurve"/>
      <point x="1247.0" y="150.0" type="line"/>
      <point x="1201.0" y="81.0"/>
      <point x="1057.0" y="-20.0"/>
      <point x="981.0" y="-20.0" type="qcurve" smooth="yes"/>
      <point x="856.0" y="-20.0"/>
      <point x="747.0" y="123.0"/>
      <point x="747.0" y="211.0" type="qcurve"/>
      <point x="743.0" y="211.0" type="line"/>
      <point x="670.0" y="99.0"/>
      <point x="490.0" y="-20.0"/>
      <point x="361.0" y="-20.0" type="qcurve" smooth="yes"/>
      <point x="226.0" y="-20.0"/>
      <point x="58.0" y="192.0"/>
    </contour>
  </outline>
</glyph>
<glyph name="afii10092" format="2">
  <advance width="1309"/>
  <unicode hex="044A"/>
  <outline>
    <contour>
      <point x="183.0" y="850.0" type="line" smooth="yes"/>
      <point x="123.0" y="850.0"/>
      <point x="135.0" y="900.0" type="qcurve" smooth="yes"/>
      <point x="158.0" y="1000.0" type="line" smooth="yes"/>
      <point x="170.0" y="1050.0"/>
      <point x="229.0" y="1050.0" type="qcurve" smooth="yes"/>
      <point x="726.0" y="1050.0" type="line" smooth="yes"/>
      <point x="787.0" y="1050.0"/>
      <point x="773.0" y="990.0" type="qcurve" smooth="yes"/>
      <point x="698.0" y="667.0" type="line" smooth="yes"/>
      <point x="687.0" y="620.0"/>
      <point x="675.0" y="587.0" type="qcurve"/>
      <point x="680.0" y="587.0" type="line"/>
      <point x="713.0" y="628.0"/>
      <point x="848.0" y="664.0"/>
      <point x="904.0" y="664.0" type="qcurve" smooth="yes"/>
      <point x="1033.0" y="664.0"/>
      <point x="1213.0" y="496.0"/>
      <point x="1213.0" y="359.0" type="qcurve" smooth="yes"/>
      <point x="1213.0" y="222.0"/>
      <point x="965.0" y="-20.0"/>
      <point x="698.0" y="-20.0" type="qcurve" smooth="yes"/>
      <point x="473.0" y="-20.0"/>
      <point x="322.0" y="252.0"/>
      <point x="357.0" y="405.0" type="qcurve" smooth="yes"/>
      <point x="460.0" y="850.0" type="line"/>
    </contour>
    <contour>
      <point x="620.0" y="336.0" type="qcurve" smooth="yes"/>
      <point x="602.0" y="260.0"/>
      <point x="673.0" y="176.0"/>
      <point x="734.0" y="176.0" type="qcurve" smooth="yes"/>
      <point x="820.0" y="176.0"/>
      <point x="917.0" y="268.0"/>
      <point x="917.0" y="358.0" type="qcurve" smooth="yes"/>
      <point x="917.0" y="415.0"/>
      <point x="848.0" y="468.0"/>
      <point x="806.0" y="468.0" type="qcurve" smooth="yes"/>
      <point x="741.0" y="468.0"/>
      <point x="636.0" y="404.0"/>
    </contour>
  </outline>
</glyph>
<glyph name="uni04A2" format="2">
  <advance width="1534"/>
  <unicode hex="04A2"/>
  <outline>
    <contour>
      <point x="110.0" y="0.0" type="line" smooth="yes"/>
      <point x="40.0" y="0.0"/>
      <point x="57.0" y="75.0" type="qcurve" smooth="yes"/>
      <point x="354.0" y="1359.0" type="line" smooth="yes"/>
      <point x="371.0" y="1434.0"/>
      <point x="441.0" y="1434.0" type="qcurve" smooth="yes"/>
      <point x="593.0" y="1434.0" type="line" smooth="yes"/>
      <point x="663.0" y="1434.0"/>
      <point x="646.0" y="1359.0" type="qcurve" smooth="yes"/>
      <point x="533.0" y="870.0" type="line"/>
      <point x="1071.0" y="870.0" type="line"/>
      <point x="1184.0" y="1359.0" type="line" smooth="yes"/>
      <point x="1201.0" y="1434.0"/>
      <point x="1271.0" y="1434.0" type="qcurve" smooth="yes"/>
      <point x="1423.0" y="1434.0" type="line" smooth="yes"/>
      <point x="1493.0" y="1434.0"/>
      <point x="1476.0" y="1359.0" type="qcurve" smooth="yes"/>
      <point x="1219.0" y="248.0" type="line"/>
      <point x="1341.0" y="248.0" type="line" smooth="yes"/>
      <point x="1411.0" y="248.0"/>
      <point x="1394.0" y="173.0" type="qcurve" smooth="yes"/>
      <point x="1285.0" y="-300.0" type="line" smooth="yes"/>
      <point x="1269.0" y="-370.0"/>
      <point x="1209.0" y="-370.0" type="qcurve" smooth="yes"/>
      <point x="1079.0" y="-370.0" type="line" smooth="yes"/>
      <point x="1019.0" y="-370.0"/>
      <point x="1035.0" y="-300.0" type="qcurve" smooth="yes"/>
      <point x="1104.0" y="0.0" type="line"/>
      <point x="940.0" y="0.0" type="line" smooth="yes"/>
      <point x="870.0" y="0.0"/>
      <point x="887.0" y="75.0" type="qcurve" smooth="yes"/>
      <point x="1014.0" y="622.0" type="line"/>
      <point x="476.0" y="622.0" type="line"/>
      <point x="349.0" y="75.0" type="line" smooth="yes"/>
      <point x="332.0" y="0.0"/>
      <point x="262.0" y="0.0" type="qcurve" smooth="yes"/>
    </contour>
  </outline>
</glyph>
<glyph name="uni04AF" format="2">
  <advance width="1008"/>
  <unicode hex="04AF"/>
  <outline>
    <contour>
      <point x="146.0" y="972.0" type="line" smooth="yes"/>
      <point x="139.0" y="1050.0"/>
      <point x="197.0" y="1050.0" type="qcurve" smooth="yes"/>
      <point x="358.0" y="1050.0" type="line" smooth="yes"/>
      <point x="405.0" y="1050.0"/>
      <point x="407.0" y="999.0" type="qcurve" smooth="yes"/>
      <point x="426.0" y="413.0" type="line" smooth="yes"/>
      <point x="428.0" y="359.0"/>
      <point x="423.0" y="268.0"/>
      <point x="418.0" y="238.0" type="qcurve"/>
      <point x="424.0" y="238.0" type="line"/>
      <point x="433.0" y="268.0"/>
      <point x="473.0" y="368.0"/>
      <point x="496.0" y="413.0" type="qcurve" smooth="yes"/>
      <point x="787.0" y="999.0" type="line" smooth="yes"/>
      <point x="812.0" y="1050.0"/>
      <point x="858.0" y="1050.0" type="qcurve" smooth="yes"/>
      <point x="1055.0" y="1050.0" type="line" smooth="yes"/>
      <point x="1113.0" y="1050.0"/>
      <point x="1070.0" y="972.0" type="qcurve" smooth="yes"/>
      <point x="516.0" y="-34.0" type="line"/>
      <point x="446.0" y="-340.0" type="line" smooth="yes"/>
      <point x="432.0" y="-400.0"/>
      <point x="372.0" y="-400.0" type="qcurve" smooth="yes"/>
      <point x="212.0" y="-400.0" type="line" smooth="yes"/>
      <point x="152.0" y="-400.0"/>
      <point x="166.0" y="-340.0" type="qcurve" smooth="yes"/>
      <point x="236.0" y="-34.0" type="line"/>
    </contour>
  </outline>
</glyph>
<glyph name="uni04B7" format="2">
  <advance width="1192"/>
  <unicode hex="04B7"/>
  <outline>
    <contour>
      <point x="150.0" y="736.0" type="qcurve" smooth="yes"/>
      <point x="209.0" y="990.0" type="line" smooth="yes"/>
      <point x="223.0" y="1050.0"/>
      <point x="282.0" y="1050.0" type="qcurve" smooth="yes"/>
      <point x="442.0" y="1050.0" type="line" smooth="yes"/>
      <point x="503.0" y="1050.0"/>
      <point x="489.0" y="990.0" type="qcurve" smooth="yes"/>
      <point x="427.0" y="724.0" type="line" smooth="yes"/>
      <point x="406.0" y="634.0"/>
      <point x="464.0" y="576.0"/>
      <point x="537.0" y="576.0" type="qcurve" smooth="yes"/>
      <point x="576.0" y="576.0"/>
      <point x="693.0" y="591.0"/>
      <point x="743.0" y="646.0" type="qcurve"/>
      <point x="823.0" y="990.0" type="line" smooth="yes"/>
      <point x="837.0" y="1050.0"/>
      <point x="896.0" y="1050.0" type="qcurve" smooth="yes"/>
      <point x="1056.0" y="1050.0" type="line" smooth="yes"/>
      <point x="1117.0" y="1050.0"/>
      <point x="1103.0" y="990.0" type="qcurve" smooth="yes"/>
      <point x="920.0" y="200.0" type="line"/>
      <point x="1006.0" y="200.0" type="line" smooth="yes"/>
      <point x="1066.0" y="200.0"/>
      <point x="1052.0" y="140.0" type="qcurve" smooth="yes"/>
      <point x="953.0" y="-290.0" type="line" smooth="yes"/>
      <point x="939.0" y="-350.0"/>
      <point x="884.0" y="-350.0" type="qcurve" smooth="yes"/>
      <point x="764.0" y="-350.0" type="line" smooth="yes"/>
      <point x="709.0" y="-350.0"/>
      <point x="723.0" y="-290.0" type="qcurve" smooth="yes"/>
      <point x="790.0" y="0.0" type="line"/>
      <point x="654.0" y="0.0" type="line" smooth="yes"/>
      <point x="594.0" y="0.0"/>
      <point x="608.0" y="60.0" type="qcurve" smooth="yes"/>
      <point x="676.0" y="356.0" type="line" smooth="yes"/>
      <point x="686.0" y="398.0"/>
      <point x="699.0" y="436.0" type="qcurve"/>
      <point x="693.0" y="436.0" type="line"/>
      <point x="626.0" y="406.0"/>
      <point x="468.0" y="380.0"/>
      <point x="400.0" y="380.0" type="qcurve" smooth="yes"/>
      <point x="244.0" y="380.0"/>
      <point x="114.0" y="582.0"/>
    </contour>
  </outline>
</glyph>
<glyph name="uni04C3" format="2">
  <advance width="1376"/>
  <unicode hex="04C3"/>
  <outline>
    <contour>
      <point x="110.0" y="0.0" type="line" smooth="yes"/>
      <point x="40.0" y="0.0"/>
      <point x="57.0" y="75.0" type="qcurve" smooth="yes"/>
      <point x="354.0" y="1359.0" type="line" smooth="yes"/>
      <point x="371.0" y="1434.0"/>
      <point x="441.0" y="1434.0" type="qcurve" smooth="yes"/>
      <point x="593.0" y="1434.0" type="line" smooth="yes"/>
      <point x="663.0" y="1434.0"/>
      <point x="646.0" y="1359.0" type="qcurve" smooth="yes"/>
      <point x="529.0" y="855.0" type="line"/>
      <point x="549.0" y="855.0" type="line" smooth="yes"/>
      <point x="626.0" y="855.0"/>
      <point x="746.0" y="940.0"/>
      <point x="842.0" y="1050.0" type="qcurve" smooth="yes"/>
      <point x="1127.0" y="1375.0" type="line" smooth="yes"/>
      <point x="1179.0" y="1434.0"/>
      <point x="1231.0" y="1434.0" type="qcurve" smooth="yes"/>
      <point x="1432.0" y="1434.0" type="line" smooth="yes"/>
      <point x="1529.0" y="1434.0"/>
      <point x="1450.0" y="1348.0" type="qcurve" smooth="yes"/>
      <point x="1090.0" y="954.0" type="line" smooth="yes"/>
      <point x="1049.0" y="909.0"/>
      <point x="961.0" y="825.0"/>
      <point x="885.0" y="780.0" type="qcurve"/>
      <point x="885.0" y="779.0" type="line"/>
      <point x="1054.0" y="714.0"/>
      <point x="1218.0" y="465.0"/>
      <point x="1218.0" y="282.0" type="qcurve" smooth="yes"/>
      <point x="1218.0" y="18.0"/>
      <point x="829.0" y="-404.0"/>
      <point x="499.0" y="-404.0" type="qcurve" smooth="yes"/>
      <point x="410.0" y="-404.0"/>
      <point x="333.0" y="-383.0" type="qcurve" smooth="yes"/>
      <point x="280.0" y="-369.0"/>
      <point x="299.0" y="-317.0" type="qcurve" smooth="yes"/>
      <point x="349.0" y="-180.0" type="line" smooth="yes"/>
      <point x="368.0" y="-128.0"/>
      <point x="421.0" y="-151.0" type="qcurve" smooth="yes"/>
      <point x="460.0" y="-168.0"/>
      <point x="528.0" y="-168.0" type="qcurve" smooth="yes"/>
      <point x="694.0" y="-168.0"/>
      <point x="910.0" y="107.0"/>
      <point x="910.0" y="294.0" type="qcurve" smooth="yes"/>
      <point x="910.0" y="438.0"/>
      <point x="721.0" y="611.0"/>
      <point x="518.0" y="611.0" type="qcurve" smooth="yes"/>
      <point x="473.0" y="611.0" type="line"/>
      <point x="349.0" y="75.0" type="line" smooth="yes"/>
      <point x="332.0" y="0.0"/>
      <point x="262.0" y="0.0" type="qcurve" smooth="yes"/>
    </contour>
  </outline>
</glyph>
<glyph name="uni04C4" format="2">
  <advance width="1144"/>
  <unicode hex="04C4"/>
  <outline>
    <contour>
      <point x="76.0" y="0.0" type="line" smooth="yes"/>
      <point x="16.0" y="0.0"/>
      <point x="30.0" y="60.0" type="qcurve" smooth="yes"/>
      <point x="245.0" y="990.0" type="line" smooth="yes"/>
      <point x="259.0" y="1050.0"/>
      <point x="318.0" y="1050.0" type="qcurve" smooth="yes"/>
      <point x="478.0" y="1050.0" type="line" smooth="yes"/>
      <point x="539.0" y="1050.0"/>
      <point x="525.0" y="990.0" type="qcurve" smooth="yes"/>
      <point x="446.0" y="648.0" type="line"/>
      <point x="469.0" y="648.0" type="line" smooth="yes"/>
      <point x="498.0" y="648.0"/>
      <point x="564.0" y="697.0"/>
      <point x="629.0" y="776.0" type="qcurve" smooth="yes"/>
      <point x="821.0" y="1009.0" type="line" smooth="yes"/>
      <point x="855.0" y="1050.0"/>
      <point x="908.0" y="1050.0" type="qcurve" smooth="yes"/>
      <point x="1092.0" y="1050.0" type="line" smooth="yes"/>
      <point x="1170.0" y="1050.0"/>
      <point x="1106.0" y="976.0" type="qcurve" smooth="yes"/>
      <point x="882.0" y="716.0" type="line" smooth="yes"/>
      <point x="853.0" y="682.0"/>
      <point x="748.0" y="590.0"/>
      <point x="703.0" y="574.0" type="qcurve"/>
      <point x="702.0" y="572.0" type="line"/>
      <point x="850.0" y="516.0"/>
      <point x="973.0" y="297.0"/>
      <point x="973.0" y="171.0" type="qcurve" smooth="yes"/>
      <point x="973.0" y="-57.0"/>
      <point x="631.0" y="-420.0"/>
      <point x="336.0" y="-420.0" type="qcurve" smooth="yes"/>
      <point x="272.0" y="-420.0"/>
      <point x="199.0" y="-408.0" type="qcurve" smooth="yes"/>
      <point x="173.0" y="-404.0"/>
      <point x="182.0" y="-359.0" type="qcurve" smooth="yes"/>
      <point x="204.0" y="-246.0" type="line" smooth="yes"/>
      <point x="212.0" y="-203.0"/>
      <point x="263.0" y="-213.0" type="qcurve" smooth="yes"/>
      <point x="319.0" y="-224.0"/>
      <point x="359.0" y="-224.0" type="qcurve" smooth="yes"/>
      <point x="505.0" y="-224.0"/>
      <point x="679.0" y="21.0"/>
      <point x="679.0" y="189.0" type="qcurve" smooth="yes"/>
      <point x="679.0" y="321.0"/>
      <point x="547.0" y="448.0"/>
      <point x="423.0" y="448.0" type="qcurve" smooth="yes"/>
      <point x="399.0" y="448.0" type="line"/>
      <point x="310.0" y="60.0" type="line" smooth="yes"/>
      <point x="296.0" y="0.0"/>
      <point x="236.0" y="0.0" type="qcurve" smooth="yes"/>
    </contour>
  </outline>
</glyph>
<glyph name="uni04C8" format="2">
  <advance width="1191"/>
  <unicode hex="04C8"/>
  <outline>
    <contour>
      <point x="76.0" y="0.0" type="line" smooth="yes"/>
      <point x="16.0" y="0.0"/>
      <point x="30.0" y="60.0" type="qcurve" smooth="yes"/>
      <point x="245.0" y="990.0" type="line" smooth="yes"/>
      <point x="259.0" y="1050.0"/>
      <point x="318.0" y="1050.0" type="qcurve" smooth="yes"/>
      <point x="478.0" y="1050.0" type="line" smooth="yes"/>
      <point x="538.0" y="1050.0"/>
      <point x="525.0" y="990.0" type="qcurve" smooth="yes"/>
      <point x="446.0" y="648.0" type="line"/>
      <point x="806.0" y="648.0" type="line"/>
      <point x="885.0" y="990.0" type="line" smooth="yes"/>
      <point x="899.0" y="1050.0"/>
      <point x="958.0" y="1050.0" type="qcurve" smooth="yes"/>
      <point x="1118.0" y="1050.0" type="line" smooth="yes"/>
      <point x="1178.0" y="1050.0"/>
      <point x="1165.0" y="990.0" type="qcurve" smooth="yes"/>
      <point x="935.0" y="-4.0" type="line" smooth="yes"/>
      <point x="878.0" y="-252.0"/>
      <point x="656.0" y="-420.0"/>
      <point x="485.0" y="-420.0" type="qcurve" smooth="yes"/>
      <point x="395.0" y="-420.0"/>
      <point x="344.0" y="-405.0" type="qcurve" smooth="yes"/>
      <point x="307.0" y="-394.0"/>
      <point x="323.0" y="-349.0" type="qcurve" smooth="yes"/>
      <point x="360.0" y="-243.0" type="line" smooth="yes"/>
      <point x="372.0" y="-208.0"/>
      <point x="414.0" y="-215.0" type="qcurve" smooth="yes"/>
      <point x="463.0" y="-224.0"/>
      <point x="481.0" y="-224.0" type="qcurve" smooth="yes"/>
      <point x="554.0" y="-224.0"/>
      <point x="634.0" y="-94.0"/>
      <point x="662.0" y="26.0" type="qcurve" smooth="yes"/>
      <point x="759.0" y="448.0" type="line"/>
      <point x="399.0" y="448.0" type="line"/>
      <point x="310.0" y="60.0" type="line" smooth="yes"/>
      <point x="296.0" y="0.0"/>
      <point x="236.0" y="0.0" type="qcurve" smooth="yes"/>
    </contour>
  </outline>
</glyph>
<glyph name="uni04CB" format="2">
  <advance width="1308"/>
  <unicode hex="04CB"/>
  <outline>
    <contour>
      <point x="212.0" y="953.0" type="qcurve" smooth="yes"/>
      <point x="306.0" y="1359.0" type="line" smooth="yes"/>
      <point x="323.0" y="1434.0"/>
      <point x="393.0" y="1434.0" type="qcurve" smooth="yes"/>
      <point x="545.0" y="1434.0" type="line" smooth="yes"/>
      <point x="615.0" y="1434.0"/>
      <point x="598.0" y="1359.0" type="qcurve" smooth="yes"/>
      <point x="510.0" y="980.0" type="line" smooth="yes"/>
      <point x="482.0" y="858.0"/>
      <point x="544.0" y="760.0"/>
      <point x="612.0" y="760.0" type="qcurve" smooth="yes"/>
      <point x="684.0" y="760.0"/>
      <point x="829.0" y="786.0"/>
      <point x="927.0" y="827.0" type="qcurve"/>
      <point x="1050.0" y="1359.0" type="line" smooth="yes"/>
      <point x="1067.0" y="1434.0"/>
      <point x="1137.0" y="1434.0" type="qcurve" smooth="yes"/>
      <point x="1289.0" y="1434.0" type="line" smooth="yes"/>
      <point x="1359.0" y="1434.0"/>
      <point x="1342.0" y="1359.0" type="qcurve" smooth="yes"/>
      <point x="1045.0" y="75.0" type="line" smooth="yes"/>
      <point x="1028.0" y="0.0"/>
      <point x="958.0" y="0.0" type="qcurve" smooth="yes"/>
      <point x="794.0" y="0.0" type="line"/>
      <point x="725.0" y="-300.0" type="line" smooth="yes"/>
      <point x="709.0" y="-370.0"/>
      <point x="649.0" y="-370.0" type="qcurve" smooth="yes"/>
      <point x="519.0" y="-370.0" type="line" smooth="yes"/>
      <point x="459.0" y="-370.0"/>
      <point x="475.0" y="-300.0" type="qcurve" smooth="yes"/>
      <point x="584.0" y="173.0" type="line" smooth="yes"/>
      <point x="601.0" y="248.0"/>
      <point x="671.0" y="248.0" type="qcurve" smooth="yes"/>
      <point x="793.0" y="248.0" type="line"/>
      <point x="849.0" y="491.0" type="line" smooth="yes"/>
      <point x="862.0" y="549.0"/>
      <point x="882.0" y="611.0" type="qcurve"/>
      <point x="875.0" y="611.0" type="line"/>
      <point x="794.0" y="574.0"/>
      <point x="612.0" y="524.0"/>
      <point x="514.0" y="524.0" type="qcurve" smooth="yes"/>
      <point x="354.0" y="524.0"/>
      <point x="170.0" y="770.0"/>
    </contour>
  </outline>
</glyph>
<glyph name="uni04CF" format="2">
  <advance width="612"/>
  <unicode hex="04CF"/>
  <outline>
    <contour>
      <point x="76.0" y="0.0" type="line" smooth="yes"/>
      <point x="16.0" y="0.0"/>
      <point x="30.0" y="60.0" type="qcurve" smooth="yes"/>
      <point x="343.0" y="1416.0" type="line" smooth="yes"/>
      <point x="357.0" y="1476.0"/>
      <point x="417.0" y="1476.0" type="qcurve" smooth="yes"/>
      <point x="577.0" y="1476.0" type="line" smooth="yes"/>
      <point x="637.0" y="1476.0"/>
      <point x="623.0" y="1416.0" type="qcurve" smooth="yes"/>
      <point x="310.0" y="60.0" type="line" smooth="yes"/>
      <point x="296.0" y="0.0"/>
      <point x="236.0" y="0.0" type="qcurve" smooth="yes"/>
    </contour>
  </outline>
</glyph>
<glyph name="uni0512" format="2">
  <advance width="1482"/>
  <unicode hex="0512"/>
  <outline>
    <contour>
      <point x="-44.0" y="-10.0" type="qcurve" smooth="yes"/>
      <point x="-77.0" y="2.0"/>
      <point x="-59.0" y="58.0" type="qcurve" smooth="yes"/>
      <point x="-23.0" y="172.0" type="line" smooth="yes"/>
      <point x="-6.0" y="227.0"/>
      <point x="48.0" y="210.0" type="qcurve" smooth="yes"/>
      <point x="74.0" y="202.0"/>
      <point x="115.0" y="202.0" type="qcurve" smooth="yes"/>
      <point x="276.0" y="202.0"/>
      <point x="477.0" y="619.0"/>
      <point x="586.0" y="1090.0" type="qcurve" smooth="yes"/>
      <point x="648.0" y="1359.0" type="line" smooth="yes"/>
      <point x="665.0" y="1434.0"/>
      <point x="735.0" y="1434.0" type="qcurve" smooth="yes"/>
      <point x="1463.0" y="1434.0" type="line" smooth="yes"/>
      <point x="1533.0" y="1434.0"/>
      <point x="1516.0" y="1359.0" type="qcurve" smooth="yes"/>
      <point x="1210.0" y="35.0" type="line" smooth="yes"/>
      <point x="1155.0" y="-202.0"/>
      <point x="915.0" y="-420.0"/>
      <point x="725.0" y="-420.0" type="qcurve" smooth="yes"/>
      <point x="622.0" y="-420.0"/>
      <point x="541.0" y="-389.0" type="qcurve" smooth="yes"/>
      <point x="501.0" y="-374.0"/>
      <point x="519.0" y="-320.0" type="qcurve" smooth="yes"/>
      <point x="558.0" y="-206.0" type="line" smooth="yes"/>
      <point x="578.0" y="-146.0"/>
      <point x="630.0" y="-167.0" type="qcurve" smooth="yes"/>
      <point x="674.0" y="-184.0"/>
      <point x="721.0" y="-184.0" type="qcurve" smooth="yes"/>
      <point x="798.0" y="-184.0"/>
      <point x="894.0" y="-69.0"/>
      <point x="931.0" y="91.0" type="qcurve" smooth="yes"/>
      <point x="1184.0" y="1186.0" type="line"/>
      <point x="858.0" y="1186.0" type="line"/>
      <point x="823.0" y="1034.0" type="line" smooth="yes"/>
      <point x="685.0" y="434.0"/>
      <point x="378.0" y="-34.0"/>
      <point x="78.0" y="-34.0" type="qcurve" smooth="yes"/>
      <point x="24.0" y="-34.0"/>
    </contour>
  </outline>
</glyph>
<glyph name="uni1E9E" format="2">
  <advance width="1408"/>
  <unicode hex="1E9E"/>
  <outline>
    <contour>
      <point x="110.0" y="0.0" type="line" smooth="yes"/>
      <point x="40.0" y="0.0"/>
      <point x="57.0" y="75.0" type="qcurve" smooth="yes"/>
      <point x="227.0" y="809.0" type="line" smooth="yes"/>
      <point x="311.0" y="1173.0"/>
      <point x="704.0" y="1468.0"/>
      <point x="999.0" y="1468.0" type="qcurve" smooth="yes"/>
      <point x="1146.0" y="1468.0"/>
      <point x="1318.0" y="1364.0"/>
      <point x="1367.0" y="1298.0" type="qcurve" smooth="yes"/>
      <point x="1393.0" y="1262.0"/>
      <point x="1393.0" y="1227.0" type="qcurve"/>
      <point x="1391.0" y="1183.0"/>
      <point x="1358.0" y="1146.0" type="qcurve" smooth="yes"/>
      <point x="1057.0" y="814.0" type="line"/>
      <point x="1056.0" y="811.0" type="line"/>
      <point x="1185.0" y="756.0"/>
      <point x="1285.0" y="588.0"/>
      <point x="1285.0" y="474.0" type="qcurve" smooth="yes"/>
      <point x="1285.0" y="237.0"/>
      <point x="974.0" y="-34.0"/>
      <point x="736.0" y="-34.0" type="qcurve" smooth="yes"/>
      <point x="658.0" y="-34.0"/>
      <point x="524.0" y="0.0"/>
      <point x="475.0" y="33.0" type="qcurve" smooth="yes"/>
      <point x="445.0" y="53.0"/>
      <point x="467.0" y="97.0" type="qcurve" smooth="yes"/>
      <point x="536.0" y="233.0" type="line" smooth="yes"/>
      <point x="557.0" y="277.0"/>
      <point x="616.0" y="239.0" type="qcurve" smooth="yes"/>
      <point x="642.0" y="222.0"/>
      <point x="709.0" y="202.0"/>
      <point x="762.0" y="202.0" type="qcurve" smooth="yes"/>
      <point x="870.0" y="202.0"/>
      <point x="983.0" y="358.0"/>
      <point x="983.0" y="460.0" type="qcurve" smooth="yes"/>
      <point x="983.0" y="548.0"/>
      <point x="864.0" y="636.0"/>
      <point x="778.0" y="643.0" type="qcurve" smooth="yes"/>
      <point x="738.0" y="646.0"/>
      <point x="720.0" y="688.0" type="qcurve" smooth="yes"/>
      <point x="698.0" y="740.0" type="line" smooth="yes"/>
      <point x="681.0" y="779.0"/>
      <point x="728.0" y="830.0" type="qcurve" smooth="yes"/>
      <point x="1035.0" y="1166.0" type="line"/>
      <point x="1036.0" y="1169.0" type="line"/>
      <point x="1022.0" y="1204.0"/>
      <point x="972.0" y="1232.0"/>
      <point x="928.0" y="1232.0" type="qcurve" smooth="yes"/>
      <point x="820.0" y="1232.0"/>
      <point x="583.0" y="1089.0"/>
      <point x="533.0" y="872.0" type="qcurve" smooth="yes"/>
      <point x="349.0" y="75.0" type="line" smooth="yes"/>
      <point x="332.0" y="0.0"/>
      <point x="262.0" y="0.0" type="qcurve" smooth="yes"/>
    </contour>
  </outline>
</glyph>
<glyph name="quotereversed" format="2">
  <advance width="570"/>
  <unicode hex="201B"/>
  <outline>
    <contour>
      <point x="314.0" y="1287.0" type="qcurve" smooth="yes"/>
      <point x="345.0" y="1421.0" type="line" smooth="yes"/>
      <point x="362.0" y="1496.0"/>
      <point x="432.0" y="1496.0" type="qcurve" smooth="yes"/>
      <point x="588.0" y="1496.0" type="line" smooth="yes"/>
      <point x="658.0" y="1496.0"/>
      <point x="641.0" y="1421.0" type="qcurve" smooth="yes"/>
      <point x="610.0" y="1287.0" type="line" smooth="yes"/>
      <point x="593.0" y="1212.0"/>
      <point x="523.0" y="1212.0" type="qcurve" smooth="yes"/>
      <point x="454.0" y="1212.0" type="line"/>
      <point x="431.0" y="1112.0"/>
      <point x="441.0" y="1051.0"/>
      <point x="464.0" y="1024.0" type="qcurve" smooth="yes"/>
      <point x="498.0" y="984.0"/>
      <point x="458.0" y="949.0" type="qcurve" smooth="yes"/>
      <point x="420.0" y="916.0" type="line" smooth="yes"/>
      <point x="389.0" y="889.0"/>
      <point x="344.0" y="933.0" type="qcurve" smooth="yes"/>
      <point x="298.0" y="978.0"/>
      <point x="280.0" y="1142.0"/>
    </contour>
  </outline>
</glyph>
<glyph name="guilsinglright" format="2">
  <advance width="706"/>
  <unicode hex="203A"/>
  <outline>
    <contour>
      <point x="61.0" y="205.0" type="line" smooth="yes"/>
      <point x="39.0" y="226.0"/>
      <point x="79.0" y="265.0" type="qcurve" smooth="yes"/>
      <point x="388.0" y="562.0" type="line"/>
      <point x="206.0" y="878.0" type="line" smooth="yes"/>
      <point x="183.0" y="917.0"/>
      <point x="216.0" y="938.0" type="qcurve" smooth="yes"/>
      <point x="310.0" y="998.0" type="line" smooth="yes"/>
      <point x="348.0" y="1022.0"/>
      <point x="368.0" y="988.0" type="qcurve" smooth="yes"/>
      <point x="599.0" y="582.0" type="line" smooth="yes"/>
      <point x="621.0" y="543.0"/>
      <point x="581.0" y="504.0" type="qcurve" smooth="yes"/>
      <point x="204.0" y="138.0" type="line" smooth="yes"/>
      <point x="168.0" y="103.0"/>
      <point x="142.0" y="128.0" type="qcurve" smooth="yes"/>
    </contour>
  </outline>
</glyph>
<glyph name="uni2070" format="2">
  <advance width="648"/>
  <unicode hex="2070"/>
  <outline>
    <contour>
      <point x="155.0" y="955.0" type="qcurve" smooth="yes"/>
      <point x="155.0" y="1134.0"/>
      <point x="346.0" y="1468.0"/>
      <point x="524.0" y="1468.0" type="qcurve" smooth="yes"/>
      <point x="648.0" y="1468.0"/>
      <point x="753.0" y="1348.0"/>
      <point x="753.0" y="1207.0" type="qcurve" smooth="yes"/>
      <point x="753.0" y="1028.0"/>
      <point x="562.0" y="694.0"/>
      <point x="384.0" y="694.0" type="qcurve" smooth="yes"/>
      <point x="260.0" y="694.0"/>
      <point x="155.0" y="814.0"/>
    </contour>
    <contour>
      <point x="319.0" y="941.0" type="qcurve" smooth="yes"/>
      <point x="319.0" y="866.0"/>
      <point x="349.0" y="818.0"/>
      <point x="404.0" y="818.0" type="qcurve" smooth="yes"/>
      <point x="488.0" y="818.0"/>
      <point x="589.0" y="1122.0"/>
      <point x="589.0" y="1221.0" type="qcurve" smooth="yes"/>
      <point x="589.0" y="1296.0"/>
      <point x="559.0" y="1344.0"/>
      <point x="504.0" y="1344.0" type="qcurve" smooth="yes"/>
      <point x="420.0" y="1344.0"/>
      <point x="319.0" y="1040.0"/>
    </contour>
  </outline>
</glyph>
<glyph name="uni2075" format="2">
  <advance width="640"/>
  <unicode hex="2075"/>
  <outline>
    <contour>
      <point x="130.0" y="756.0" type="qcurve" smooth="yes"/>
      <point x="105.0" y="774.0"/>
      <point x="124.0" y="803.0" type="qcurve" smooth="yes"/>
      <point x="159.0" y="856.0" type="line" smooth="yes"/>
      <point x="178.0" y="885.0"/>
      <point x="211.0" y="863.0" type="qcurve" smooth="yes"/>
      <point x="241.0" y="843.0"/>
      <point x="325.0" y="821.0"/>
      <point x="362.0" y="821.0" type="qcurve" smooth="yes"/>
      <point x="427.0" y="821.0"/>
      <point x="520.0" y="905.0"/>
      <point x="520.0" y="984.0" type="qcurve" smooth="yes"/>
      <point x="520.0" y="1020.0"/>
      <point x="484.0" y="1072.0"/>
      <point x="440.0" y="1072.0" type="qcurve" smooth="yes"/>
      <point x="413.0" y="1072.0"/>
      <point x="370.0" y="1062.0"/>
      <point x="330.0" y="1037.0" type="qcurve" smooth="yes"/>
      <point x="304.0" y="1020.0"/>
      <point x="279.0" y="1020.0" type="qcurve" smooth="yes"/>
      <point x="217.0" y="1020.0" type="line" smooth="yes"/>
      <point x="183.0" y="1020.0"/>
      <point x="191.0" y="1054.0" type="qcurve" smooth="yes"/>
      <point x="275.0" y="1417.0" type="line" smooth="yes"/>
      <point x="283.0" y="1451.0"/>
      <point x="317.0" y="1451.0" type="qcurve" smooth="yes"/>
      <point x="722.0" y="1451.0" type="line" smooth="yes"/>
      <point x="756.0" y="1451.0"/>
      <point x="748.0" y="1417.0" type="qcurve" smooth="yes"/>
      <point x="732.0" y="1345.0" type="line" smooth="yes"/>
      <point x="724.0" y="1311.0"/>
      <point x="690.0" y="1311.0" type="qcurve" smooth="yes"/>
      <point x="411.0" y="1311.0" type="line"/>
      <point x="385.0" y="1201.0" type="line" smooth="yes"/>
      <point x="380.0" y="1182.0"/>
      <point x="371.0" y="1159.0" type="qcurve"/>
      <point x="377.0" y="1159.0" type="line"/>
      <point x="409.0" y="1186.0"/>
      <point x="477.0" y="1199.0"/>
      <point x="508.0" y="1199.0" type="qcurve" smooth="yes"/>
      <point x="592.0" y="1199.0"/>
      <point x="682.0" y="1090.0"/>
      <point x="682.0" y="1000.0" type="qcurve" smooth="yes"/>
      <point x="682.0" y="856.0"/>
      <point x="512.0" y="694.0"/>
      <point x="379.0" y="694.0" type="qcurve" smooth="yes"/>
      <point x="305.0" y="694.0"/>
      <point x="177.0" y="721.0"/>
    </contour>
  </outline>
</glyph>
<glyph name="uni20BD" format="2">
  <advance width="1200"/>
  <unicode hex="20BD"/>
  <outline>
    <contour>
      <point x="82.0" y="272.0" type="line" smooth="yes"/>
      <point x="18.0" y="272.0"/>
      <point x="33.0" y="337.0" type="qcurve" smooth="yes"/>
      <point x="58.0" y="445.0" type="line" smooth="yes"/>
      <point x="73.0" y="510.0"/>
      <point x="138.0" y="510.0" type="qcurve" smooth="yes"/>
      <point x="178.0" y="510.0" type="line"/>
      <point x="204.0" y="622.0" type="line"/>
      <point x="163.0" y="622.0" type="line" smooth="yes"/>
      <point x="99.0" y="622.0"/>
      <point x="114.0" y="687.0" type="qcurve" smooth="yes"/>
      <point x="139.0" y="795.0" type="line" smooth="yes"/>
      <point x="154.0" y="860.0"/>
      <point x="219.0" y="860.0" type="qcurve" smooth="yes"/>
      <point x="259.0" y="860.0" type="line"/>
      <point x="373.0" y="1357.0" type="line" smooth="yes"/>
      <point x="388.0" y="1422.0"/>
      <point x="453.0" y="1422.0" type="qcurve" smooth="yes"/>
      <point x="783.0" y="1422.0" type="line" smooth="yes"/>
      <point x="995.0" y="1422.0"/>
      <point x="1238.0" y="1249.0"/>
      <point x="1238.0" y="1064.0" type="qcurve" smooth="yes"/>
      <point x="1238.0" y="865.0"/>
      <point x="914.0" y="622.0"/>
      <point x="625.0" y="622.0" type="qcurve" smooth="yes"/>
      <point x="484.0" y="622.0" type="line"/>
      <point x="458.0" y="510.0" type="line"/>
      <point x="789.0" y="510.0" type="line" smooth="yes"/>
      <point x="854.0" y="510.0"/>
      <point x="839.0" y="445.0" type="qcurve" smooth="yes"/>
      <point x="814.0" y="337.0" type="line" smooth="yes"/>
      <point x="799.0" y="272.0"/>
      <point x="735.0" y="272.0" type="qcurve" smooth="yes"/>
      <point x="403.0" y="272.0" type="line"/>
      <point x="357.0" y="75.0" type="line" smooth="yes"/>
      <point x="339.0" y="0.0"/>
      <point x="275.0" y="0.0" type="qcurve" smooth="yes"/>
      <point x="125.0" y="0.0" type="line" smooth="yes"/>
      <point x="59.0" y="0.0"/>
      <point x="77.0" y="75.0" type="qcurve" smooth="yes"/>
      <point x="123.0" y="272.0" type="line"/>
    </contour>
    <contour>
      <point x="539.0" y="860.0" type="line"/>
      <point x="668.0" y="860.0" type="line" smooth="yes"/>
      <point x="809.0" y="860.0"/>
      <point x="946.0" y="958.0"/>
      <point x="946.0" y="1046.0" type="qcurve" smooth="yes"/>
      <point x="946.0" y="1129.0"/>
      <point x="818.0" y="1184.0"/>
      <point x="719.0" y="1184.0" type="qcurve" smooth="yes"/>
      <point x="613.0" y="1184.0" type="line"/>
    </contour>
  </outline>
</glyph>
<glyph name="uni2116" format="2">
  <advance width="2082"/>
  <unicode hex="2116"/>
  <outline>
    <contour>
      <point x="110.0" y="0.0" type="line" smooth="yes"/>
      <point x="40.0" y="0.0"/>
      <point x="57.0" y="75.0" type="qcurve" smooth="yes"/>
      <point x="354.0" y="1359.0" type="line" smooth="yes"/>
      <point x="371.0" y="1434.0"/>
      <point x="441.0" y="1434.0" type="qcurve" smooth="yes"/>
      <point x="567.0" y="1434.0" type="line" smooth="yes"/>
      <point x="658.0" y="1434.0"/>
      <point x="681.0" y="1364.0" type="qcurve" smooth="yes"/>
      <point x="948.0" y="564.0" type="line"/>
      <point x="955.0" y="564.0" type="line"/>
      <point x="964.0" y="622.0"/>
      <point x="978.0" y="684.0" type="qcurve" smooth="yes"/>
      <point x="1134.0" y="1359.0" type="line" smooth="yes"/>
      <point x="1151.0" y="1434.0"/>
      <point x="1221.0" y="1434.0" type="qcurve" smooth="yes"/>
      <point x="1373.0" y="1434.0" type="line" smooth="yes"/>
      <point x="1443.0" y="1434.0"/>
      <point x="1426.0" y="1359.0" type="qcurve" smooth="yes"/>
      <point x="1129.0" y="75.0" type="line" smooth="yes"/>
      <point x="1112.0" y="0.0"/>
      <point x="1042.0" y="0.0" type="qcurve" smooth="yes"/>
      <point x="924.0" y="0.0" type="line" smooth="yes"/>
      <point x="833.0" y="0.0"/>
      <point x="810.0" y="70.0" type="qcurve" smooth="yes"/>
      <point x="538.0" y="887.0" type="line"/>
      <point x="531.0" y="887.0" type="line"/>
      <point x="520.0" y="816.0"/>
      <point x="509.0" y="767.0" type="qcurve" smooth="yes"/>
      <point x="349.0" y="75.0" type="line" smooth="yes"/>
      <point x="332.0" y="0.0"/>
      <point x="262.0" y="0.0" type="qcurve" smooth="yes"/>
    </contour>
    <contour>
      <point x="1390.0" y="617.0" type="qcurve" smooth="yes"/>
      <point x="1390.0" y="757.0"/>
      <point x="1576.0" y="1023.0"/>
      <point x="1756.0" y="1023.0" type="qcurve" smooth="yes"/>
      <point x="1876.0" y="1023.0"/>
      <point x="2035.0" y="889.0"/>
      <point x="2035.0" y="729.0" type="qcurve" smooth="yes"/>
      <point x="2035.0" y="589.0"/>
      <point x="1849.0" y="324.0"/>
      <point x="1669.0" y="324.0" type="qcurve" smooth="yes"/>
      <point x="1549.0" y="324.0"/>
      <point x="1390.0" y="457.0"/>
    </contour>
    <contour>
      <point x="1554.0" y="587.0" type="qcurve" smooth="yes"/>
      <point x="1554.0" y="517.0"/>
      <point x="1614.0" y="447.0"/>
      <point x="1669.0" y="447.0" type="qcurve" smooth="yes"/>
      <point x="1769.0" y="447.0"/>
      <point x="1871.0" y="639.0"/>
      <point x="1871.0" y="759.0" type="qcurve" smooth="yes"/>
      <point x="1871.0" y="829.0"/>
      <point x="1811.0" y="899.0"/>
      <point x="1756.0" y="899.0" type="qcurve" smooth="yes"/>
      <point x="1656.0" y="899.0"/>
      <point x="1554.0" y="707.0"/>
    </contour>
    <contour>
      <point x="1343.0" y="1.0" type="line" smooth="yes"/>
      <point x="1283.0" y="1.0"/>
      <point x="1295.0" y="51.0" type="qcurve" smooth="yes"/>
      <point x="1318.0" y="151.0" type="line" smooth="yes"/>
      <point x="1330.0" y="201.0"/>
      <point x="1389.0" y="201.0" type="qcurve" smooth="yes"/>
      <point x="1821.0" y="201.0" type="line" smooth="yes"/>
      <point x="1881.0" y="201.0"/>
      <point x="1870.0" y="151.0" type="qcurve" smooth="yes"/>
      <point x="1847.0" y="51.0" type="line" smooth="yes"/>
      <point x="1835.0" y="1.0"/>
      <point x="1775.0" y="1.0" type="qcurve" smooth="yes"/>
    </contour>
  </outline>
</glyph>
<glyph name="partialdiff" format="2">
  <advance width="1244"/>
  <unicode hex="2202"/>
  <outline>
    <contour>
      <point x="112.0" y="402.0" type="qcurve" smooth="yes"/>
      <point x="112.0" y="633.0"/>
      <point x="443.0" y="978.0"/>
      <point x="662.0" y="978.0" type="qcurve" smooth="yes"/>
      <point x="746.0" y="978.0"/>
      <point x="893.0" y="894.0"/>
      <point x="922.0" y="807.0" type="qcurve"/>
      <point x="926.0" y="807.0" type="line"/>
      <point x="943.0" y="855.0"/>
      <point x="943.0" y="906.0" type="qcurve" smooth="yes"/>
      <point x="943.0" y="1104.0"/>
      <point x="797.0" y="1300.0"/>
      <point x="690.0" y="1300.0" type="qcurve" smooth="yes"/>
      <point x="647.0" y="1300.0"/>
      <point x="542.0" y="1272.0"/>
      <point x="467.0" y="1221.0" type="qcurve" smooth="yes"/>
      <point x="419.0" y="1189.0"/>
      <point x="385.0" y="1240.0" type="qcurve" smooth="yes"/>
      <point x="349.0" y="1294.0" type="line" smooth="yes"/>
      <point x="315.0" y="1344.0"/>
      <point x="364.0" y="1381.0" type="qcurve" smooth="yes"/>
      <point x="437.0" y="1436.0"/>
      <point x="598.0" y="1496.0"/>
      <point x="683.0" y="1496.0" type="qcurve" smooth="yes"/>
      <point x="917.0" y="1496.0"/>
      <point x="1185.0" y="1182.0"/>
      <point x="1185.0" y="826.0" type="qcurve" smooth="yes"/>
      <point x="1185.0" y="504.0"/>
      <point x="827.0" y="-20.0"/>
      <point x="548.0" y="-20.0" type="qcurve" smooth="yes"/>
      <point x="335.0" y="-20.0"/>
      <point x="112.0" y="236.0"/>
    </contour>
    <contour>
      <point x="371.0" y="387.0" type="qcurve" smooth="yes"/>
      <point x="371.0" y="277.0"/>
      <point x="476.0" y="176.0"/>
      <point x="551.0" y="176.0" type="qcurve" smooth="yes"/>
      <point x="665.0" y="176.0"/>
      <point x="833.0" y="404.0"/>
      <point x="859.0" y="579.0" type="qcurve"/>
      <point x="845.0" y="681.0"/>
      <point x="743.0" y="782.0"/>
      <point x="677.0" y="782.0" type="qcurve" smooth="yes"/>
      <point x="572.0" y="782.0"/>
      <point x="371.0" y="572.0"/>
    </contour>
  </outline>
</glyph>
<glyph name="Delta" format="2">
  <advance width="1518"/>
  <unicode hex="2206"/>
  <outline>
    <contour>
      <point x="165.0" y="0.0" type="line" smooth="yes"/>
      <point x="95.0" y="0.0"/>
      <point x="95.0" y="75.0" type="qcurve" smooth="yes"/>
      <point x="95.0" y="105.0" type="line" smooth="yes"/>
      <point x="95.0" y="141.0"/>
      <point x="118.0" y="197.0" type="qcurve" smooth="yes"/>
      <point x="595.0" y="1353.0" type="line" smooth="yes"/>
      <point x="628.0" y="1434.0"/>
      <point x="689.0" y="1434.0" type="qcurve" smooth="yes"/>
      <point x="829.0" y="1434.0" type="line" smooth="yes"/>
      <point x="890.0" y="1433.0"/>
      <point x="923.0" y="1353.0" type="qcurve" smooth="yes"/>
      <point x="1400.0" y="197.0" type="line" smooth="yes"/>
      <point x="1423.0" y="141.0"/>
      <point x="1423.0" y="105.0" type="qcurve" smooth="yes"/>
      <point x="1423.0" y="75.0" type="line" smooth="yes"/>
      <point x="1423.0" y="0.0"/>
      <point x="1353.0" y="0.0" type="qcurve" smooth="yes"/>
    </contour>
    <contour>
      <point x="444.0" y="244.0" type="line"/>
      <point x="504.0" y="248.0"/>
      <point x="544.0" y="248.0" type="qcurve" smooth="yes"/>
      <point x="974.0" y="248.0" type="line" smooth="yes"/>
      <point x="1014.0" y="248.0"/>
      <point x="1074.0" y="244.0" type="qcurve"/>
      <point x="1074.0" y="250.0" type="line"/>
      <point x="802.0" y="904.0" type="line" smooth="yes"/>
      <point x="783.0" y="950.0"/>
      <point x="766.0" y="1011.0"/>
      <point x="761.0" y="1061.0" type="qcurve"/>
      <point x="757.0" y="1061.0" type="line"/>
      <point x="752.0" y="1011.0"/>
      <point x="735.0" y="950.0"/>
      <point x="716.0" y="904.0" type="qcurve" smooth="yes"/>
      <point x="444.0" y="250.0" type="line"/>
    </contour>
  </outline>
</glyph>
<glyph name="circumflex.cap" format="2">
  <advance width="820"/>
  <unicode hex="EFF7"/>
  <outline>
    <contour>
      <point x="263.0" y="1589.0" type="line" smooth="yes"/>
      <point x="247.0" y="1631.0"/>
      <point x="300.0" y="1651.0" type="qcurve" smooth="yes"/>
      <point x="574.0" y="1753.0" type="line" smooth="yes"/>
      <point x="609.0" y="1766.0"/>
      <point x="652.0" y="1766.0" type="qcurve" smooth="yes"/>
      <point x="712.0" y="1766.0" type="line" smooth="yes"/>
      <point x="755.0" y="1766.0"/>
      <point x="784.0" y="1753.0" type="qcurve" smooth="yes"/>
      <point x="1017.0" y="1647.0" type="line" smooth="yes"/>
      <point x="1068.0" y="1624.0"/>
      <point x="1040.0" y="1577.0" type="qcurve" smooth="yes"/>
      <point x="1016.0" y="1536.0" type="line" smooth="yes"/>
      <point x="990.0" y="1491.0"/>
      <point x="941.0" y="1513.0" type="qcurve" smooth="yes"/>
      <point x="679.0" y="1632.0" type="line"/>
      <point x="677.0" y="1632.0" type="line"/>
      <point x="355.0" y="1510.0" type="line" smooth="yes"/>
      <point x="300.0" y="1489.0"/>
      <point x="284.0" y="1533.0" type="qcurve" smooth="yes"/>
    </contour>
  </outline>
</glyph>
<glyph name="zero.oldstyle.tab" format="2">
  <advance width="1200"/>
  <unicode hex="F643"/>
  <outline>
    <contour>
      <point x="85.0" y="426.0" type="qcurve" smooth="yes"/>
      <point x="85.0" y="711.0"/>
      <point x="412.0" y="1096.0"/>
      <point x="692.0" y="1096.0" type="qcurve" smooth="yes"/>
      <point x="892.0" y="1096.0"/>
      <point x="1115.0" y="881.0"/>
      <point x="1115.0" y="656.0" type="qcurve" smooth="yes"/>
      <point x="1115.0" y="371.0"/>
      <point x="788.0" y="-24.0"/>
      <point x="508.0" y="-24.0" type="qcurve" smooth="yes"/>
      <point x="308.0" y="-24.0"/>
      <point x="85.0" y="201.0"/>
    </contour>
    <contour>
      <point x="377.0" y="410.0" type="qcurve" smooth="yes"/>
      <point x="377.0" y="330.0"/>
      <point x="435.0" y="194.0"/>
      <point x="531.0" y="194.0" type="qcurve" smooth="yes"/>
      <point x="659.0" y="194.0"/>
      <point x="823.0" y="504.0"/>
      <point x="823.0" y="672.0" type="qcurve" smooth="yes"/>
      <point x="823.0" y="752.0"/>
      <point x="765.0" y="878.0"/>
      <point x="669.0" y="878.0" type="qcurve" smooth="yes"/>
      <point x="541.0" y="878.0"/>
      <point x="377.0" y="578.0"/>
    </contour>
  </outline>
</glyph>
<glyph name="ghe.ital" format="2">
  <advance width="916"/>
  <unicode hex="F6C4"/>
  <outline>
    <contour>
      <point x="76.0" y="0.0" type="line" smooth="yes"/>
      <point x="16.0" y="0.0"/>
      <point x="30.0" y="60.0" type="qcurve" smooth="yes"/>
      <point x="245.0" y="990.0" type="line" smooth="yes"/>
      <point x="259.0" y="1050.0"/>
      <point x="318.0" y="1050.0" type="qcurve" smooth="yes"/>
      <point x="948.0" y="1050.0" type="line" smooth="yes"/>
      <point x="1008.0" y="1050.0"/>
      <point x="997.0" y="1000.0" type="qcurve" smooth="yes"/>
      <point x="974.0" y="900.0" type="line" smooth="yes"/>
      <point x="962.0" y="850.0"/>
      <point x="902.0" y="850.0" type="qcurve" smooth="yes"/>
      <point x="492.0" y="850.0" type="line"/>
      <point x="310.0" y="60.0" type="line" smooth="yes"/>
      <point x="296.0" y="0.0"/>
      <point x="236.0" y="0.0" type="qcurve" smooth="yes"/>
    </contour>
  </outline>
</glyph>
<glyph name="te.ital" format="2">
  <advance width="1750"/>
  <unicode hex="F6C8"/>
  <outline>
    <contour>
      <point x="118.0" y="450.0" type="qcurve" smooth="yes"/>
      <point x="243.0" y="990.0" type="line" smooth="yes"/>
      <point x="257.0" y="1050.0"/>
      <point x="317.0" y="1050.0" type="qcurve" smooth="yes"/>
      <point x="477.0" y="1050.0" type="line" smooth="yes"/>
      <point x="537.0" y="1050.0"/>
      <point x="523.0" y="990.0" type="qcurve" smooth="yes"/>
      <point x="417.0" y="530.0" type="line" smooth="yes"/>
      <point x="374.0" y="342.0"/>
      <point x="394.0" y="176.0"/>
      <point x="469.0" y="176.0" type="qcurve" smooth="yes"/>
      <point x="539.0" y="176.0"/>
      <point x="693.0" y="339.0"/>
      <point x="762.0" y="638.0" type="qcurve" smooth="yes"/>
      <point x="843.0" y="990.0" type="line" smooth="yes"/>
      <point x="857.0" y="1050.0"/>
      <point x="917.0" y="1050.0" type="qcurve" smooth="yes"/>
      <point x="1077.0" y="1050.0" type="line" smooth="yes"/>
      <point x="1137.0" y="1050.0"/>
      <point x="1123.0" y="990.0" type="qcurve" smooth="yes"/>
      <point x="1022.0" y="550.0" type="line" smooth="yes"/>
      <point x="975.0" y="345.0"/>
      <point x="994.0" y="176.0"/>
      <point x="1069.0" y="176.0" type="qcurve" smooth="yes"/>
      <point x="1138.0" y="176.0"/>
      <point x="1306.0" y="396.0"/>
      <point x="1362.0" y="638.0" type="qcurve" smooth="yes"/>
      <point x="1443.0" y="990.0" type="line" smooth="yes"/>
      <point x="1457.0" y="1050.0"/>
      <point x="1517.0" y="1050.0" type="qcurve" smooth="yes"/>
      <point x="1677.0" y="1050.0" type="line" smooth="yes"/>
      <point x="1737.0" y="1050.0"/>
      <point x="1723.0" y="990.0" type="qcurve" smooth="yes"/>
      <point x="1508.0" y="60.0" type="line" smooth="yes"/>
      <point x="1494.0" y="0.0"/>
      <point x="1435.0" y="0.0" type="qcurve" smooth="yes"/>
      <point x="1277.0" y="0.0" type="line" smooth="yes"/>
      <point x="1217.0" y="0.0"/>
      <point x="1230.0" y="60.0" type="qcurve" smooth="yes"/>
      <point x="1251.0" y="150.0" type="line"/>
      <point x="1247.0" y="150.0" type="line"/>
      <point x="1201.0" y="81.0"/>
      <point x="1057.0" y="-20.0"/>
      <point x="981.0" y="-20.0" type="qcurve" smooth="yes"/>
      <point x="856.0" y="-20.0"/>
      <point x="747.0" y="123.0"/>
      <point x="747.0" y="211.0" type="qcurve"/>
      <point x="743.0" y="211.0" type="line"/>
      <point x="670.0" y="99.0"/>
      <point x="490.0" y="-20.0"/>
      <point x="361.0" y="-20.0" type="qcurve" smooth="yes"/>
      <point x="226.0" y="-20.0"/>
      <point x="58.0" y="192.0"/>
    </contour>
    <contour>
      <point x="339.0" y="1146.0" type="line" smooth="yes"/>
      <point x="279.0" y="1146.0"/>
      <point x="290.0" y="1196.0" type="qcurve" smooth="yes"/>
      <point x="305.0" y="1262.0" type="line" smooth="yes"/>
      <point x="317.0" y="1312.0"/>
      <point x="377.0" y="1312.0" type="qcurve" smooth="yes"/>
      <point x="1737.0" y="1312.0" type="line" smooth="yes"/>
      <point x="1797.0" y="1312.0"/>
      <point x="1785.0" y="1262.0" type="qcurve" smooth="yes"/>
      <point x="1770.0" y="1196.0" type="line" smooth="yes"/>
      <point x="1758.0" y="1146.0"/>
      <point x="1699.0" y="1146.0" type="qcurve" smooth="yes"/>
    </contour>
  </outline>
</glyph>
<glyph name="caron.cap" format="2">
  <advance width="820"/>
  <unicode hex="F6CA"/>
  <outline>
    <contour>
      <point x="318.0" y="1625.0" type="line" smooth="yes"/>
      <point x="267.0" y="1648.0"/>
      <point x="295.0" y="1695.0" type="qcurve" smooth="yes"/>
      <point x="319.0" y="1736.0" type="line" smooth="yes"/>
      <point x="345.0" y="1781.0"/>
      <point x="394.0" y="1759.0" type="qcurve" smooth="yes"/>
      <point x="656.0" y="1640.0" type="line"/>
      <point x="658.0" y="1640.0" type="line"/>
      <point x="980.0" y="1762.0" type="line" smooth="yes"/>
      <point x="1035.0" y="1783.0"/>
      <point x="1051.0" y="1739.0" type="qcurve" smooth="yes"/>
      <point x="1072.0" y="1683.0" type="line" smooth="yes"/>
      <point x="1088.0" y="1641.0"/>
      <point x="1035.0" y="1621.0" type="qcurve" smooth="yes"/>
      <point x="761.0" y="1519.0" type="line" smooth="yes"/>
      <point x="726.0" y="1506.0"/>
      <point x="683.0" y="1506.0" type="qcurve" smooth="yes"/>
      <point x="623.0" y="1506.0" type="line" smooth="yes"/>
      <point x="580.0" y="1506.0"/>
      <point x="551.0" y="1519.0" type="qcurve" smooth="yes"/>
    </contour>
  </outline>
</glyph>
<glyph name="grave.cap" format="2">
  <advance width="820"/>
  <unicode hex="F6CE"/>
  <outline>
    <contour>
      <point x="423.0" y="1724.0" type="line" smooth="yes"/>
      <point x="356.0" y="1785.0"/>
      <point x="461.0" y="1785.0" type="qcurve" smooth="yes"/>
      <point x="637.0" y="1785.0" type="line" smooth="yes"/>
      <point x="709.0" y="1785.0"/>
      <point x="735.0" y="1738.0" type="qcurve" smooth="yes"/>
      <point x="809.0" y="1604.0" type="line" smooth="yes"/>
      <point x="844.0" y="1540.0"/>
      <point x="770.0" y="1540.0" type="qcurve" smooth="yes"/>
      <point x="687.0" y="1540.0" type="line" smooth="yes"/>
      <point x="626.0" y="1540.0"/>
      <point x="584.0" y="1578.0" type="qcurve" smooth="yes"/>
    </contour>
  </outline>
</glyph>
<glyph name="hungarumlaut.cap" format="2">
  <advance width="820"/>
  <unicode hex="F6CF"/>
  <outline>
    <contour>
      <point x="278.0" y="1540.0" type="line" smooth="yes"/>
      <point x="225.0" y="1540.0"/>
      <point x="271.0" y="1604.0" type="qcurve" smooth="yes"/>
      <point x="369.0" y="1740.0" type="line" smooth="yes"/>
      <point x="401.0" y="1785.0"/>
      <point x="484.0" y="1785.0" type="qcurve" smooth="yes"/>
      <point x="639.0" y="1785.0" type="line" smooth="yes"/>
      <point x="718.0" y="1785.0"/>
      <point x="651.0" y="1726.0" type="qcurve" smooth="yes"/>
      <point x="483.0" y="1578.0" type="line" smooth="yes"/>
      <point x="440.0" y="1540.0"/>
      <point x="381.0" y="1540.0" type="qcurve" smooth="yes"/>
    </contour>
    <contour>
      <point x="698.0" y="1540.0" type="line" smooth="yes"/>
      <point x="645.0" y="1540.0"/>
      <point x="691.0" y="1604.0" type="qcurve" smooth="yes"/>
      <point x="789.0" y="1740.0" type="line" smooth="yes"/>
      <point x="821.0" y="1785.0"/>
      <point x="904.0" y="1785.0" type="qcurve" smooth="yes"/>
      <point x="1059.0" y="1785.0" type="line" smooth="yes"/>
      <point x="1138.0" y="1785.0"/>
      <point x="1071.0" y="1726.0" type="qcurve" smooth="yes"/>
      <point x="903.0" y="1578.0" type="line" smooth="yes"/>
      <point x="860.0" y="1540.0"/>
      <point x="801.0" y="1540.0" type="qcurve" smooth="yes"/>
    </contour>
  </outline>
</glyph>
<glyph name="cyrbreve" format="2">
  <advance width="1194"/>
  <unicode hex="F6D4"/>
  <outline>
    <contour>
      <point x="420.0" y="1412.0" type="line" smooth="yes"/>
      <point x="427.0" y="1471.0"/>
      <point x="494.0" y="1471.0" type="qcurve" smooth="yes"/>
      <point x="600.0" y="1471.0" type="line" smooth="yes"/>
      <point x="646.0" y="1471.0"/>
      <point x="646.0" y="1417.0" type="qcurve" smooth="yes"/>
      <point x="646.0" y="1392.0" type="line" smooth="yes"/>
      <point x="646.0" y="1325.0"/>
      <point x="718.0" y="1290.0"/>
      <point x="758.0" y="1290.0" type="qcurve" smooth="yes"/>
      <point x="874.0" y="1290.0"/>
      <point x="1034.0" y="1432.0"/>
      <point x="1072.0" y="1490.0" type="qcurve" smooth="yes"/>
      <point x="1094.0" y="1524.0"/>
      <point x="1132.0" y="1496.0" type="qcurve" smooth="yes"/>
      <point x="1186.0" y="1457.0" type="line" smooth="yes"/>
      <point x="1217.0" y="1435.0"/>
      <point x="1190.0" y="1393.0" type="qcurve" smooth="yes"/>
      <point x="1130.0" y="1298.0"/>
      <point x="894.0" y="1130.0"/>
      <point x="721.0" y="1130.0" type="qcurve" smooth="yes"/>
      <point x="590.0" y="1130.0"/>
      <point x="402.0" y="1264.0"/>
      <point x="413.0" y="1354.0" type="qcurve" smooth="yes"/>
    </contour>
  </outline>
</glyph>
<glyph name="zero.oldstyle" format="2">
  <advance width="1174"/>
  <unicode hex="F730"/>
  <outline>
    <contour>
      <point x="85.0" y="426.0" type="qcurve" smooth="yes"/>
      <point x="85.0" y="711.0"/>
      <point x="412.0" y="1096.0"/>
      <point x="681.0" y="1096.0" type="qcurve" smooth="yes"/>
      <point x="871.0" y="1096.0"/>
      <point x="1089.0" y="881.0"/>
      <point x="1089.0" y="656.0" type="qcurve" smooth="yes"/>
      <point x="1089.0" y="371.0"/>
      <point x="762.0" y="-24.0"/>
      <point x="493.0" y="-24.0" type="qcurve" smooth="yes"/>
      <point x="303.0" y="-24.0"/>
      <point x="85.0" y="201.0"/>
    </contour>
    <contour>
      <point x="377.0" y="410.0" type="qcurve" smooth="yes"/>
      <point x="377.0" y="335.0"/>
      <point x="429.0" y="194.0"/>
      <point x="521.0" y="194.0" type="qcurve" smooth="yes"/>
      <point x="643.0" y="194.0"/>
      <point x="797.0" y="504.0"/>
      <point x="797.0" y="672.0" type="qcurve" smooth="yes"/>
      <point x="797.0" y="747.0"/>
      <point x="745.0" y="878.0"/>
      <point x="654.0" y="878.0" type="qcurve" smooth="yes"/>
      <point x="532.0" y="878.0"/>
      <point x="377.0" y="578.0"/>
    </contour>
  </outline>
</glyph>
<glyph name="six.oldstyle" format="2">
  <advance width="1180"/>
  <unicode hex="F736"/>
  <outline>
    <contour>
      <point x="108.0" y="471.0" type="qcurve" smooth="yes"/>
      <point x="108.0" y="849.0"/>
      <point x="534.0" y="1366.0"/>
      <point x="821.0" y="1366.0" type="qcurve" smooth="yes"/>
      <point x="918.0" y="1366.0"/>
      <point x="1096.0" y="1326.0"/>
      <point x="1160.0" y="1271.0" type="qcurve" smooth="yes"/>
      <point x="1209.0" y="1228.0"/>
      <point x="1175.0" y="1185.0" type="qcurve" smooth="yes"/>
      <point x="1099.0" y="1088.0" type="line" smooth="yes"/>
      <point x="1067.0" y="1047.0"/>
      <point x="1012.0" y="1090.0" type="qcurve" smooth="yes"/>
      <point x="975.0" y="1119.0"/>
      <point x="858.0" y="1142.0"/>
      <point x="802.0" y="1142.0" type="qcurve" smooth="yes"/>
      <point x="684.0" y="1142.0"/>
      <point x="459.0" y="951.0"/>
      <point x="413.0" y="750.0" type="qcurve"/>
      <point x="417.0" y="750.0" type="line"/>
      <point x="487.0" y="828.0"/>
      <point x="666.0" y="879.0"/>
      <point x="727.0" y="879.0" type="qcurve" smooth="yes"/>
      <point x="912.0" y="879.0"/>
      <point x="1082.0" y="669.0"/>
      <point x="1082.0" y="500.0" type="qcurve" smooth="yes"/>
      <point x="1082.0" y="282.0"/>
      <point x="762.0" y="-24.0"/>
      <point x="517.0" y="-24.0" type="qcurve" smooth="yes"/>
      <point x="324.0" y="-24.0"/>
      <point x="108.0" y="225.0"/>
    </contour>
    <contour>
      <point x="392.0" y="372.0" type="qcurve" smooth="yes"/>
      <point x="392.0" y="282.0"/>
      <point x="480.0" y="200.0"/>
      <point x="544.0" y="200.0" type="qcurve" smooth="yes"/>
      <point x="642.0" y="200.0"/>
      <point x="786.0" y="378.0"/>
      <point x="786.0" y="511.0" type="qcurve" smooth="yes"/>
      <point x="786.0" y="591.0"/>
      <point x="717.0" y="655.0"/>
      <point x="658.0" y="655.0" type="qcurve" smooth="yes"/>
      <point x="546.0" y="655.0"/>
      <point x="392.0" y="459.0"/>
    </contour>
  </outline>
</glyph>
<glyph name="minus.tab" format="2">
  <advance width="1200"/>
  <outline>
    <contour>
      <point x="177.0" y="632.0" type="line" smooth="yes"/>
      <point x="117.0" y="632.0"/>
      <point x="117.0" y="682.0" type="qcurve" smooth="yes"/>
      <point x="117.0" y="768.0" type="line" smooth="yes"/>
      <point x="117.0" y="818.0"/>
      <point x="177.0" y="818.0" type="qcurve" smooth="yes"/>
      <point x="1117.0" y="818.0" type="line" smooth="yes"/>
      <point x="1177.0" y="818.0"/>
      <point x="1177.0" y="768.0" type="qcurve" smooth="yes"/>
      <point x="1177.0" y="682.0" type="line" smooth="yes"/>
      <point x="1177.0" y="632.0"/>
      <point x="1117.0" y="632.0" type="qcurve" smooth="yes"/>
    </contour>
  </outline>
</glyph>
